G04*
G04 #@! TF.GenerationSoftware,Altium Limited,Altium Designer,22.7.1 (60)*
G04*
G04 Layer_Color=65535*
%FSLAX25Y25*%
%MOIN*%
G70*
G04*
G04 #@! TF.SameCoordinates,FBDB1D81-1F97-4559-A255-E9B88A778833*
G04*
G04*
G04 #@! TF.FilePolarity,Positive*
G04*
G01*
G75*
%ADD10C,0.00787*%
%ADD11C,0.00984*%
%ADD12C,0.00036*%
%ADD13C,0.00394*%
%ADD14C,0.01000*%
%ADD15C,0.00866*%
%ADD16C,0.00591*%
G36*
X23818Y13583D02*
X26180Y15945D01*
Y11220D01*
X23818Y13583D01*
D02*
G37*
G36*
X135826Y104776D02*
X133463Y107138D01*
X138188D01*
X135826Y104776D01*
D02*
G37*
G36*
X154723Y85189D02*
X157085Y87551D01*
Y82827D01*
X154723Y85189D01*
D02*
G37*
G36*
X176278Y104776D02*
X173916Y107138D01*
X178640D01*
X176278Y104776D01*
D02*
G37*
G36*
X157085Y126134D02*
X154723Y123772D01*
Y128496D01*
X157085Y126134D01*
D02*
G37*
G36*
X71250Y141492D02*
X71268Y141474D01*
X71450Y140563D01*
Y140545D01*
X71469Y140527D01*
X71505D01*
X72215Y140217D01*
X72234D01*
X72252D01*
X72270D01*
X72288D01*
X73054Y140745D01*
X73090D01*
X73108D01*
X73801Y140053D01*
X73819Y140035D01*
Y140017D01*
X73801Y139980D01*
X73290Y139233D01*
Y139160D01*
X73473Y138850D01*
Y138814D01*
X73454Y138796D01*
X71797Y138103D01*
X71778D01*
X71724Y138122D01*
X71687Y138213D01*
X71669Y138231D01*
X71651Y138249D01*
X71632Y138268D01*
X71614Y138286D01*
X71578Y138340D01*
X71505Y138432D01*
X71414Y138523D01*
X71286Y138595D01*
X71140Y138687D01*
X70958Y138741D01*
X70758Y138759D01*
X70740D01*
X70685D01*
X70594Y138741D01*
X70485Y138723D01*
X70375Y138687D01*
X70248Y138632D01*
X70120Y138559D01*
X69993Y138450D01*
X69974Y138432D01*
X69938Y138395D01*
X69883Y138322D01*
X69829Y138231D01*
X69774Y138122D01*
X69719Y137994D01*
X69683Y137848D01*
X69665Y137685D01*
Y137612D01*
X69683Y137521D01*
X69701Y137429D01*
X69738Y137302D01*
X69810Y137174D01*
X69883Y137047D01*
X69993Y136919D01*
X70011Y136901D01*
X70047Y136865D01*
X70120Y136828D01*
X70211Y136774D01*
X70321Y136701D01*
X70448Y136664D01*
X70594Y136628D01*
X70758Y136609D01*
X70776D01*
X70849D01*
X70958Y136628D01*
X71086Y136664D01*
X71232Y136737D01*
X71377Y136810D01*
X71505Y136937D01*
X71632Y137101D01*
X71651Y137120D01*
X71669Y137138D01*
Y137156D01*
X71687D01*
X71724Y137247D01*
X71742Y137265D01*
X71797D01*
X73454Y136591D01*
Y136573D01*
X73473Y136518D01*
X73290Y136190D01*
Y136136D01*
X73801Y135389D01*
X73819Y135371D01*
Y135352D01*
X73801Y135316D01*
X73108Y134605D01*
X73090D01*
X73072D01*
X73054D01*
X72288Y135152D01*
X72270D01*
X72252D01*
X72234D01*
X72215D01*
X71505Y134842D01*
X71487D01*
X71469D01*
X71450Y134824D01*
Y134806D01*
X71268Y133895D01*
Y133877D01*
X71250Y133858D01*
X71213D01*
X70248D01*
X70230D01*
X70211D01*
X70193Y133877D01*
Y133895D01*
X70029Y134824D01*
Y134842D01*
X69993Y134897D01*
X69319Y135170D01*
X69300D01*
X69282D01*
X69264D01*
X69246D01*
X68426Y134605D01*
X68408D01*
X68389D01*
X68371D01*
X68353D01*
X67679Y135316D01*
X67660Y135334D01*
Y135389D01*
X68244Y136190D01*
Y136263D01*
X67970Y136919D01*
Y136937D01*
X67952Y136956D01*
X67916D01*
X66950Y137156D01*
X66932D01*
X66913D01*
X66895Y137174D01*
Y138195D01*
X66913Y138213D01*
X66950D01*
X67916Y138413D01*
X67934D01*
X67952Y138432D01*
X67970Y138450D01*
X68244Y139106D01*
Y139160D01*
X67660Y139980D01*
Y140017D01*
X67679Y140053D01*
X68353Y140745D01*
X68371D01*
X68389D01*
X68408D01*
X68426D01*
X69246Y140199D01*
X69282D01*
X69300D01*
X69319D01*
X69993Y140490D01*
X70011D01*
X70029Y140509D01*
Y140545D01*
X70193Y141474D01*
Y141492D01*
X70211Y141511D01*
X70248D01*
X71213D01*
X71232D01*
X71250Y141492D01*
D02*
G37*
G36*
X188058Y135111D02*
X186950Y134382D01*
X188058D01*
Y134207D01*
X186658D01*
Y134397D01*
X187752Y135126D01*
X186658D01*
Y135301D01*
X188058D01*
Y135111D01*
D02*
G37*
G36*
X188962Y132880D02*
X188277D01*
Y133391D01*
X188364D01*
Y132983D01*
X188568D01*
Y133362D01*
X188656D01*
Y132983D01*
X188889D01*
Y133405D01*
X188962D01*
Y132880D01*
D02*
G37*
G36*
X187489Y133959D02*
X187606Y133945D01*
X187737Y133886D01*
X187766Y133872D01*
X187839Y133828D01*
X187912Y133741D01*
X187985Y133639D01*
X187999Y133609D01*
X188029Y133537D01*
X188058Y133434D01*
X188072Y133303D01*
Y133274D01*
X188058Y133187D01*
X188029Y133070D01*
X187985Y132953D01*
X187970Y132924D01*
X187912Y132866D01*
X187839Y132778D01*
X187723Y132705D01*
X187708D01*
X187693Y132691D01*
X187620Y132676D01*
X187504Y132647D01*
X187373Y132633D01*
X187358D01*
X187314D01*
X187256Y132647D01*
X187169Y132662D01*
X186994Y132720D01*
X186906Y132764D01*
X186833Y132822D01*
X186819Y132837D01*
X186804Y132851D01*
X186775Y132895D01*
X186731Y132953D01*
X186658Y133099D01*
X186644Y133201D01*
X186629Y133303D01*
Y133332D01*
X186644Y133420D01*
X186673Y133537D01*
X186731Y133653D01*
X186746Y133682D01*
X186789Y133741D01*
X186877Y133814D01*
X186979Y133886D01*
X186994D01*
X187008Y133901D01*
X187096Y133930D01*
X187212Y133959D01*
X187358Y133974D01*
X187373D01*
X187387D01*
X187489Y133959D01*
D02*
G37*
G36*
X188816Y132735D02*
X188874Y132705D01*
X188903Y132662D01*
X188918Y132647D01*
X188933Y132618D01*
X188962Y132560D01*
X188976Y132487D01*
Y132472D01*
X188962Y132414D01*
X188947Y132355D01*
X188918Y132297D01*
Y132283D01*
X188889Y132254D01*
X188860Y132224D01*
X188816Y132181D01*
X188801D01*
X188758Y132166D01*
X188699Y132151D01*
X188626D01*
X188612D01*
X188554D01*
X188495Y132166D01*
X188437Y132195D01*
X188422D01*
X188393Y132224D01*
X188349Y132254D01*
X188306Y132312D01*
X188291Y132326D01*
X188277Y132355D01*
X188262Y132414D01*
Y132545D01*
X188291Y132603D01*
X188320Y132662D01*
X188335Y132676D01*
X188364Y132691D01*
X188408Y132720D01*
X188466Y132749D01*
X188495Y132662D01*
X188481D01*
X188452Y132647D01*
X188379Y132589D01*
X188364Y132560D01*
X188349Y132487D01*
Y132443D01*
X188379Y132341D01*
X188393D01*
X188408Y132312D01*
X188495Y132268D01*
X188510D01*
X188539Y132254D01*
X188626Y132239D01*
X188641D01*
X188670D01*
X188772Y132268D01*
X188787D01*
X188816Y132297D01*
X188845Y132312D01*
X188874Y132355D01*
Y132399D01*
X188889Y132472D01*
Y132516D01*
X188860Y132603D01*
X188845Y132618D01*
X188831Y132633D01*
X188787Y132662D01*
X188728Y132676D01*
X188758Y132764D01*
X188772D01*
X188816Y132735D01*
D02*
G37*
G36*
X188058Y132181D02*
X186658D01*
Y132370D01*
X188058D01*
Y132181D01*
D02*
G37*
G36*
X188962Y131991D02*
X188772Y131918D01*
Y131626D01*
X188962Y131554D01*
Y131452D01*
X188277Y131714D01*
Y131816D01*
X188962Y132108D01*
Y131991D01*
D02*
G37*
G36*
X188364Y131072D02*
X188583D01*
Y131408D01*
X188656D01*
Y131072D01*
X188962D01*
Y130985D01*
X188277D01*
Y131452D01*
X188364D01*
Y131072D01*
D02*
G37*
G36*
X186819Y131495D02*
X188058D01*
Y131306D01*
X186819D01*
Y130854D01*
X186658D01*
Y131962D01*
X186819D01*
Y131495D01*
D02*
G37*
G36*
X188962Y130781D02*
X188831Y130693D01*
X188816Y130679D01*
X188787Y130664D01*
X188758Y130635D01*
X188728Y130621D01*
X188714Y130606D01*
X188685Y130577D01*
Y130562D01*
X188670Y130533D01*
Y130373D01*
X188962D01*
Y130285D01*
X188277D01*
Y130650D01*
X188291Y130737D01*
Y130752D01*
X188306Y130766D01*
X188364Y130810D01*
X188379D01*
X188393Y130825D01*
X188466Y130839D01*
X188481D01*
X188510D01*
X188554Y130825D01*
X188597Y130796D01*
Y130781D01*
X188626Y130752D01*
X188641Y130708D01*
X188656Y130650D01*
X188670Y130664D01*
X188699Y130693D01*
X188714Y130723D01*
X188787Y130781D01*
X188962Y130897D01*
Y130781D01*
D02*
G37*
G36*
X188801Y130110D02*
X188845Y130096D01*
X188874Y130081D01*
X188903Y130052D01*
X188933Y130008D01*
Y129994D01*
X188947Y129964D01*
X188962Y129921D01*
X188976Y129848D01*
Y129789D01*
X188962Y129731D01*
X188933Y129687D01*
Y129673D01*
X188918Y129658D01*
X188860Y129600D01*
X188845D01*
X188816Y129585D01*
X188758Y129571D01*
X188685D01*
X188277D01*
Y129673D01*
X188685D01*
X188699D01*
X188743D01*
X188787D01*
X188816Y129687D01*
X188845Y129702D01*
X188889Y129746D01*
Y129906D01*
X188874Y129950D01*
X188860Y129994D01*
X188845Y130008D01*
X188816Y130023D01*
X188772Y130037D01*
X188685D01*
X188277D01*
Y130125D01*
X188685D01*
X188699D01*
X188743D01*
X188801Y130110D01*
D02*
G37*
G36*
X188058Y130460D02*
X186950Y129717D01*
X188058D01*
Y129542D01*
X186658D01*
Y129731D01*
X187752Y130475D01*
X186658D01*
Y130650D01*
X188058D01*
Y130460D01*
D02*
G37*
G36*
X188860Y129439D02*
X188889Y129410D01*
X188903Y129396D01*
X188947Y129323D01*
Y129308D01*
X188962Y129279D01*
X188976Y129192D01*
Y129133D01*
X188947Y129031D01*
Y129017D01*
X188933Y129002D01*
X188874Y128929D01*
X188860D01*
X188845Y128915D01*
X188758Y128885D01*
X188743Y128988D01*
X188772D01*
X188831Y129017D01*
X188845Y129031D01*
X188889Y129075D01*
Y129294D01*
X188874Y129308D01*
X188845Y129338D01*
X188831Y129352D01*
X188787Y129367D01*
X188772D01*
X188728Y129338D01*
X188714Y129323D01*
X188685Y129279D01*
Y129265D01*
X188670Y129221D01*
X188656Y129148D01*
Y129133D01*
X188641Y129104D01*
X188626Y129060D01*
X188612Y129017D01*
X188597Y128988D01*
X188539Y128944D01*
X188524Y128929D01*
X188466Y128915D01*
X188452D01*
X188437D01*
X188364Y128944D01*
X188349D01*
X188335Y128973D01*
X188291Y129031D01*
Y129046D01*
X188277Y129075D01*
X188262Y129163D01*
Y129221D01*
X188291Y129308D01*
Y129323D01*
X188306Y129338D01*
X188364Y129396D01*
X188379D01*
X188393Y129410D01*
X188481Y129425D01*
Y129338D01*
X188466D01*
X188437D01*
X188408Y129323D01*
X188379Y129294D01*
Y129279D01*
X188364Y129265D01*
X188349Y129177D01*
Y129133D01*
X188364Y129090D01*
X188379Y129046D01*
X188393Y129031D01*
X188452Y129017D01*
X188481D01*
X188524Y129031D01*
X188539Y129060D01*
X188554Y129104D01*
X188568Y129177D01*
Y129192D01*
X188583Y129235D01*
X188597Y129294D01*
X188612Y129323D01*
Y129338D01*
X188626Y129367D01*
X188656Y129396D01*
X188685Y129425D01*
X188714Y129439D01*
X188787Y129454D01*
X188801D01*
X188816D01*
X188860Y129439D01*
D02*
G37*
G36*
X188058Y128244D02*
X186658D01*
Y129265D01*
X186819D01*
Y128434D01*
X187256D01*
Y129206D01*
X187416D01*
Y128434D01*
X187898D01*
Y129294D01*
X188058D01*
Y128244D01*
D02*
G37*
G36*
X188364Y128346D02*
X188962D01*
Y128259D01*
X188364D01*
Y128025D01*
X188277D01*
Y128579D01*
X188364D01*
Y128346D01*
D02*
G37*
G36*
X188758Y127938D02*
X188816Y127909D01*
X188831Y127894D01*
X188860Y127880D01*
X188933Y127792D01*
Y127777D01*
X188947Y127734D01*
X188962Y127675D01*
X188976Y127617D01*
Y127603D01*
X188962Y127559D01*
X188947Y127500D01*
X188918Y127442D01*
Y127427D01*
X188889Y127398D01*
X188860Y127369D01*
X188816Y127325D01*
X188801D01*
X188758Y127311D01*
X188699Y127296D01*
X188641Y127282D01*
X188626D01*
X188612D01*
X188539Y127296D01*
X188452Y127325D01*
X188364Y127384D01*
X188349Y127398D01*
X188306Y127442D01*
X188277Y127515D01*
X188262Y127617D01*
Y127675D01*
X188291Y127734D01*
X188320Y127792D01*
Y127807D01*
X188349Y127836D01*
X188379Y127880D01*
X188437Y127923D01*
X188452D01*
X188495Y127938D01*
X188554Y127952D01*
X188626D01*
X188641D01*
X188699D01*
X188758Y127938D01*
D02*
G37*
G36*
X186819Y127588D02*
X188058D01*
Y127413D01*
X186819D01*
Y126946D01*
X186658D01*
Y128054D01*
X186819D01*
Y127588D01*
D02*
G37*
G36*
X188962Y127063D02*
X188641D01*
Y126699D01*
X188962D01*
Y126611D01*
X188277D01*
Y126699D01*
X188568D01*
Y127063D01*
X188277D01*
Y127165D01*
X188962D01*
Y127063D01*
D02*
G37*
G36*
X186819Y126407D02*
X188058D01*
Y126217D01*
X186819D01*
Y125751D01*
X186658D01*
Y126859D01*
X186819D01*
Y126407D01*
D02*
G37*
G36*
X188058Y125649D02*
X187635Y125488D01*
Y124905D01*
X188058Y124745D01*
Y124555D01*
X186658Y125080D01*
Y125284D01*
X188058Y125853D01*
Y125649D01*
D02*
G37*
G36*
X185594Y135432D02*
X185608D01*
X185638Y135417D01*
X185696Y135403D01*
X185754Y135388D01*
X185769D01*
X185798Y135374D01*
X185842Y135344D01*
X185915Y135315D01*
Y135301D01*
X185929Y135286D01*
X185973Y135257D01*
X186046Y135213D01*
X186119Y135140D01*
X186206Y135053D01*
X186294Y134951D01*
X186367Y134820D01*
X186425Y134674D01*
Y134659D01*
X186440Y134615D01*
X186454Y134557D01*
Y134499D01*
X186469Y134484D01*
Y134426D01*
X186483Y134353D01*
Y125474D01*
X186469Y125386D01*
X186440Y125284D01*
X186410Y125153D01*
X186352Y125022D01*
X186279Y124891D01*
X186177Y124759D01*
X186162Y124745D01*
X186133Y124716D01*
X186060Y124643D01*
X186046Y124628D01*
X186017Y124614D01*
X185915Y124555D01*
X185900Y124541D01*
X185856Y124526D01*
X185783Y124497D01*
X185681Y124453D01*
X185565Y124424D01*
X185433Y124409D01*
X185288D01*
X185127Y124424D01*
X185113D01*
X185069Y124439D01*
X185011Y124453D01*
X184967Y124468D01*
X184952D01*
X184923Y124482D01*
X184879Y124512D01*
X184821Y124541D01*
X184807D01*
X184792D01*
Y124555D01*
X177181Y128944D01*
X177167D01*
X177137Y128973D01*
X177050Y129031D01*
X176919Y129148D01*
X176802Y129279D01*
X176787Y129308D01*
X176758Y129367D01*
X176744Y129381D01*
X176729Y129410D01*
X176700Y129469D01*
X176671Y129527D01*
X176642Y129614D01*
X176627Y129717D01*
X176598Y129819D01*
Y130008D01*
X176612Y130096D01*
X176642Y130198D01*
X176671Y130314D01*
X176729Y130446D01*
X176802Y130562D01*
X176904Y130693D01*
X176919Y130708D01*
X176948Y130737D01*
X177021Y130810D01*
X177035Y130825D01*
X177065Y130839D01*
X177152Y130897D01*
X184777Y135301D01*
X184792Y135315D01*
X184836Y135330D01*
X184923Y135359D01*
X185025Y135403D01*
X185142Y135432D01*
X185288Y135447D01*
X185433D01*
X185594Y135432D01*
D02*
G37*
G36*
X21082Y175782D02*
X21107D01*
X21158Y175756D01*
X21260Y175731D01*
X21362Y175705D01*
X21388D01*
X21439Y175680D01*
X21515Y175628D01*
X21643Y175577D01*
Y175552D01*
X21668Y175526D01*
X21745Y175476D01*
X21872Y175399D01*
X22000Y175271D01*
X22153Y175118D01*
X22306Y174940D01*
X22434Y174710D01*
X22536Y174455D01*
Y174430D01*
X22561Y174353D01*
X22587Y174251D01*
Y174149D01*
X22612Y174124D01*
Y174021D01*
X22638Y173894D01*
Y158358D01*
X22612Y158205D01*
X22561Y158027D01*
X22510Y157797D01*
X22408Y157568D01*
X22281Y157338D01*
X22102Y157108D01*
X22077Y157083D01*
X22026Y157032D01*
X21898Y156904D01*
X21872Y156879D01*
X21822Y156853D01*
X21643Y156751D01*
X21617Y156726D01*
X21541Y156700D01*
X21413Y156649D01*
X21235Y156573D01*
X21031Y156522D01*
X20801Y156496D01*
X20546D01*
X20265Y156522D01*
X20240D01*
X20163Y156547D01*
X20061Y156573D01*
X19985Y156598D01*
X19959D01*
X19908Y156624D01*
X19832Y156675D01*
X19730Y156726D01*
X19704D01*
X19679D01*
Y156751D01*
X6362Y164430D01*
X6337D01*
X6286Y164481D01*
X6133Y164583D01*
X5903Y164787D01*
X5699Y165016D01*
X5674Y165067D01*
X5623Y165170D01*
X5597Y165195D01*
X5572Y165246D01*
X5521Y165348D01*
X5470Y165450D01*
X5418Y165603D01*
X5393Y165782D01*
X5342Y165960D01*
Y166292D01*
X5367Y166445D01*
X5418Y166623D01*
X5470Y166828D01*
X5572Y167057D01*
X5699Y167261D01*
X5878Y167491D01*
X5903Y167516D01*
X5954Y167567D01*
X6082Y167695D01*
X6107Y167720D01*
X6158Y167746D01*
X6311Y167848D01*
X19653Y175552D01*
X19679Y175577D01*
X19755Y175603D01*
X19908Y175654D01*
X20087Y175731D01*
X20291Y175782D01*
X20546Y175807D01*
X20801D01*
X21082Y175782D01*
D02*
G37*
G36*
X68648Y156875D02*
Y157112D01*
X69868D01*
Y156238D01*
X71782Y156074D01*
X74423Y155837D01*
X77448Y158752D01*
X77685Y158533D01*
X74861Y155800D01*
X75025Y155782D01*
X75079Y155910D01*
X75170Y156055D01*
X75298Y156183D01*
X75426Y156274D01*
X75571Y156347D01*
X75717Y156402D01*
X75863Y156438D01*
X76045Y156456D01*
X76209Y156438D01*
X76391Y156383D01*
X76592Y156292D01*
X76774Y156165D01*
X76901Y156037D01*
X77011Y155873D01*
X77084Y155673D01*
X77138Y155509D01*
Y155290D01*
X77120Y155072D01*
X77047Y154835D01*
X76901Y154634D01*
X76737Y154489D01*
X76592Y154379D01*
X76446Y154306D01*
Y152156D01*
X77193D01*
Y151464D01*
X76446D01*
Y151373D01*
X74496Y151191D01*
X77685Y148075D01*
X77466Y147856D01*
X74059Y151154D01*
X72547Y151008D01*
X70451Y150808D01*
X69577Y150717D01*
X66370Y147638D01*
X66152Y147856D01*
X69085Y150680D01*
X68375Y150608D01*
Y150134D01*
X67810D01*
Y150571D01*
X67682Y150553D01*
X67609Y150590D01*
X67555Y150626D01*
X67482Y150699D01*
X67391Y150808D01*
X67318Y150917D01*
X67245Y151045D01*
X67190Y151172D01*
X67136Y151264D01*
X66789D01*
Y152011D01*
X66935D01*
X66899Y152248D01*
X66862Y152484D01*
X66844Y152703D01*
Y152849D01*
X66607D01*
Y154598D01*
X66880D01*
X66899Y154816D01*
X66953Y155090D01*
X67008Y155345D01*
X67081Y155600D01*
X67172Y155837D01*
X67245Y156001D01*
X67336Y156128D01*
X67409Y156219D01*
X67354Y156256D01*
X67299Y156347D01*
X67263Y156456D01*
X67245Y156584D01*
X67263Y156711D01*
X67318Y156839D01*
X67391Y156930D01*
X67518Y157003D01*
X67591Y157039D01*
X67700Y157057D01*
X67791Y157039D01*
X67864Y157021D01*
X67955Y156985D01*
X68010Y156930D01*
X68065Y156875D01*
X68101Y156821D01*
X68138Y156784D01*
X68302D01*
X66152Y158861D01*
X66370Y159098D01*
X68648Y156875D01*
D02*
G37*
G36*
X82677Y148294D02*
X82622D01*
X82586D01*
X82513D01*
X82422D01*
X82294D01*
X82276D01*
X82222D01*
X82149D01*
X82039D01*
X81912D01*
X81766D01*
X81438D01*
X81420D01*
X81365D01*
X81274D01*
X81147D01*
X80873D01*
X80582D01*
X80564D01*
X80527D01*
X80454D01*
X80381D01*
X80309D01*
X80236D01*
X80199D01*
X80181D01*
Y158260D01*
X80199D01*
X80236D01*
X80272D01*
X80345D01*
X80454D01*
X80582D01*
X80600D01*
X80655D01*
X80728D01*
X80837D01*
X80964D01*
X81110D01*
X81438D01*
X81456D01*
X81511D01*
X81602D01*
X81730D01*
X82003D01*
X82294D01*
X82313D01*
X82349D01*
X82477D01*
X82622D01*
X82659D01*
X82677D01*
Y148294D01*
D02*
G37*
%LPC*%
G36*
X187358Y133784D02*
X187343D01*
X187329D01*
X187256D01*
X187169Y133755D01*
X187066Y133726D01*
X187037Y133712D01*
X186994Y133682D01*
X186921Y133624D01*
X186862Y133551D01*
X186848Y133537D01*
X186819Y133478D01*
X186804Y133391D01*
X186789Y133303D01*
Y133274D01*
X186804Y133187D01*
X186848Y133070D01*
X186921Y132968D01*
X186950Y132939D01*
X187037Y132895D01*
X187096Y132866D01*
X187169Y132851D01*
X187270Y132822D01*
X187373D01*
X187387D01*
X187416D01*
X187460Y132837D01*
X187518D01*
X187650Y132880D01*
X187781Y132953D01*
X187810Y132983D01*
X187854Y133055D01*
X187898Y133157D01*
X187927Y133303D01*
Y133332D01*
X187912Y133420D01*
X187868Y133537D01*
X187781Y133639D01*
X187766D01*
X187752Y133668D01*
X187664Y133712D01*
X187533Y133755D01*
X187358Y133784D01*
D02*
G37*
G36*
X188685Y131889D02*
X188495Y131816D01*
X188481D01*
X188437Y131787D01*
X188349Y131758D01*
X188364D01*
X188393D01*
X188481Y131729D01*
X188685Y131656D01*
Y131889D01*
D02*
G37*
G36*
X188510Y130737D02*
X188466D01*
X188452D01*
X188437D01*
X188393Y130708D01*
X188379Y130693D01*
X188364Y130679D01*
X188349Y130635D01*
Y130373D01*
X188583D01*
Y130606D01*
X188568Y130664D01*
Y130679D01*
X188554Y130693D01*
X188524Y130723D01*
X188510Y130737D01*
D02*
G37*
G36*
X188626Y127865D02*
X188612D01*
X188568D01*
X188481Y127836D01*
X188466D01*
X188452Y127821D01*
X188379Y127748D01*
Y127734D01*
X188364Y127705D01*
X188349Y127617D01*
Y127559D01*
X188379Y127515D01*
X188408Y127457D01*
X188422Y127442D01*
X188466Y127427D01*
X188539Y127398D01*
X188641Y127384D01*
X188656D01*
X188714Y127398D01*
X188787Y127413D01*
X188845Y127457D01*
Y127471D01*
X188860Y127500D01*
X188874Y127544D01*
X188889Y127617D01*
Y127632D01*
X188874Y127690D01*
X188860Y127734D01*
X188831Y127792D01*
X188816Y127807D01*
X188772Y127836D01*
X188714Y127850D01*
X188626Y127865D01*
D02*
G37*
G36*
X187475Y125430D02*
X187096Y125284D01*
X187081D01*
X187066Y125270D01*
X186994Y125241D01*
X186906Y125211D01*
X186804Y125182D01*
X186833D01*
X186891Y125168D01*
X186964Y125138D01*
X187066Y125109D01*
X187475Y124949D01*
Y125430D01*
D02*
G37*
G36*
X185200Y134718D02*
X185186D01*
X185142D01*
X185113D01*
X185054Y134703D01*
X184981Y134674D01*
X184894Y134630D01*
X184879D01*
X177648Y130460D01*
Y130446D01*
X177633Y130431D01*
X177575Y130402D01*
X177560D01*
X177546Y130373D01*
X177516Y130343D01*
X177502Y130329D01*
X177487Y130314D01*
X177429Y130227D01*
X177385Y130096D01*
X177356Y130023D01*
Y129935D01*
X177341D01*
Y129906D01*
X177356Y129833D01*
X177371Y129731D01*
X177429Y129614D01*
X177444Y129600D01*
X177458Y129585D01*
Y129571D01*
X177473Y129556D01*
X177516Y129512D01*
X177575Y129454D01*
X177662Y129396D01*
X184894Y125211D01*
X184908D01*
X184923D01*
X184938Y125197D01*
X184996Y125182D01*
X185011Y125168D01*
X185083Y125153D01*
X185098D01*
X185127D01*
X185171Y125138D01*
X185229D01*
X185361Y125153D01*
X185506Y125211D01*
Y125226D01*
X185536Y125241D01*
X185579Y125270D01*
X185594Y125284D01*
X185652Y125328D01*
Y125343D01*
X185681Y125357D01*
X185725Y125445D01*
X185783Y125576D01*
X185798Y125663D01*
X185812Y125751D01*
Y134120D01*
X185798D01*
Y134222D01*
X185783Y134251D01*
Y134309D01*
X185769Y134338D01*
X185725Y134426D01*
X185638Y134528D01*
X185506Y134645D01*
X185477Y134659D01*
X185419Y134688D01*
X185317Y134703D01*
X185200Y134718D01*
D02*
G37*
%LPD*%
G36*
X182955Y131058D02*
X182984D01*
X183042Y131043D01*
X183144Y131014D01*
X183261Y130985D01*
X183378Y130927D01*
X183494Y130854D01*
X183582Y130766D01*
X183640Y130650D01*
X183334Y130548D01*
X183319Y130577D01*
X183305Y130591D01*
X183261Y130621D01*
X183217Y130650D01*
X183130Y130693D01*
X183042Y130723D01*
X182911Y130752D01*
X182896D01*
X182867D01*
X182824D01*
X182794D01*
X182780D01*
X182751D01*
X182707D01*
X182678D01*
X182663D01*
X182634Y130737D01*
X182576D01*
X182503Y130708D01*
X182415Y130679D01*
X182313Y130635D01*
X182211Y130562D01*
X182095Y130489D01*
X182080D01*
X182065Y130460D01*
X181978Y130402D01*
X181861Y130329D01*
X181745Y130271D01*
X181730Y130256D01*
X181672Y130241D01*
X181584Y130198D01*
X181468Y130168D01*
X181336Y130139D01*
X181191Y130110D01*
X181030Y130096D01*
X180870Y130110D01*
X180855D01*
X180797Y130125D01*
X180710Y130139D01*
X180607Y130168D01*
X180491Y130212D01*
X180360Y130256D01*
X180214Y130329D01*
X180083Y130402D01*
X180053Y130416D01*
X179995Y130460D01*
X179922Y130518D01*
X179835Y130591D01*
X179820Y130606D01*
X179776Y130664D01*
X179703Y130737D01*
X179631Y130825D01*
X179747Y130897D01*
X179893Y131014D01*
X179908Y131000D01*
X179937Y130956D01*
X179981Y130897D01*
X180053Y130825D01*
X180068Y130810D01*
X180112Y130781D01*
X180185Y130723D01*
X180272Y130664D01*
X180301Y130650D01*
X180389Y130606D01*
X180520Y130548D01*
X180680Y130489D01*
X180885Y130446D01*
X181103Y130431D01*
X181351Y130475D01*
X181468Y130504D01*
X181599Y130562D01*
X181614Y130577D01*
X181672Y130606D01*
X181759Y130664D01*
X181890Y130752D01*
X181920Y130766D01*
X181993Y130825D01*
X182095Y130883D01*
X182211Y130956D01*
X182240Y130970D01*
X182328Y131014D01*
X182459Y131043D01*
X182649Y131072D01*
X182663D01*
X182692D01*
X182794D01*
X182809D01*
X182853D01*
X182911D01*
X182955Y131058D01*
D02*
G37*
G36*
X182911Y130256D02*
X182955D01*
X182984D01*
X183042Y130241D01*
X183144Y130212D01*
X183261Y130168D01*
X183378Y130110D01*
X183494Y130037D01*
X183582Y129950D01*
X183640Y129833D01*
X183334Y129731D01*
X183319Y129760D01*
X183305Y129775D01*
X183261Y129819D01*
X183217Y129848D01*
X183130Y129877D01*
X183042Y129906D01*
X182911Y129935D01*
X182896D01*
X182867D01*
X182794D01*
X182780D01*
X182751D01*
X182678D01*
X182663D01*
X182634D01*
X182576Y129921D01*
X182503Y129906D01*
X182415Y129862D01*
X182313Y129819D01*
X182211Y129760D01*
X182095Y129687D01*
X182080D01*
X182051Y129658D01*
X181963Y129600D01*
X181847Y129527D01*
X181745Y129469D01*
X181730Y129454D01*
X181672Y129439D01*
X181584Y129396D01*
X181468Y129367D01*
X181336Y129323D01*
X181191Y129294D01*
X181030Y129279D01*
X180870Y129294D01*
X180855D01*
X180797Y129308D01*
X180710Y129323D01*
X180607Y129352D01*
X180491Y129396D01*
X180360Y129454D01*
X180083Y129585D01*
X180053Y129600D01*
X179995Y129644D01*
X179922Y129702D01*
X179835Y129775D01*
X179820Y129789D01*
X179762Y129848D01*
X179703Y129921D01*
X179631Y130008D01*
X179747Y130096D01*
X179893Y130198D01*
X179908Y130183D01*
X179937Y130139D01*
X179995Y130081D01*
X180053Y130008D01*
X180068Y129994D01*
X180112Y129964D01*
X180185Y129921D01*
X180272Y129862D01*
X180301Y129848D01*
X180389Y129804D01*
X180520Y129746D01*
X180680Y129687D01*
X180885Y129644D01*
X181103Y129629D01*
X181351Y129673D01*
X181468Y129702D01*
X181599Y129760D01*
X181614Y129775D01*
X181672Y129804D01*
X181774Y129862D01*
X181890Y129950D01*
X181920Y129964D01*
X181993Y130008D01*
X182095Y130067D01*
X182211Y130139D01*
X182240Y130154D01*
X182328Y130198D01*
X182459Y130241D01*
X182649Y130271D01*
X182663D01*
X182678D01*
X182722D01*
X182794D01*
X182809D01*
X182853D01*
X182911Y130256D01*
D02*
G37*
G36*
X182955Y129439D02*
X182984D01*
X183042Y129425D01*
X183144Y129396D01*
X183261Y129352D01*
X183378Y129294D01*
X183494Y129221D01*
X183582Y129133D01*
X183640Y129017D01*
X183334Y128915D01*
X183319Y128944D01*
X183305Y128958D01*
X183261Y129002D01*
X183217Y129031D01*
X183130Y129060D01*
X183042Y129090D01*
X182911Y129119D01*
X182896D01*
X182867Y129133D01*
X182794D01*
X182780D01*
X182765D01*
X182678D01*
X182663D01*
X182634Y129119D01*
X182576D01*
X182503Y129090D01*
X182415Y129060D01*
X182313Y129017D01*
X182211Y128944D01*
X182095Y128871D01*
X182080D01*
X182065Y128842D01*
X181978Y128783D01*
X181861Y128710D01*
X181745Y128652D01*
X181730Y128638D01*
X181672Y128623D01*
X181584Y128579D01*
X181468Y128550D01*
X181336Y128521D01*
X181191Y128492D01*
X181030Y128477D01*
X180870Y128492D01*
X180855D01*
X180797Y128506D01*
X180710Y128521D01*
X180607Y128550D01*
X180491Y128579D01*
X180360Y128638D01*
X180214Y128696D01*
X180083Y128769D01*
X180053Y128783D01*
X179995Y128827D01*
X179922Y128885D01*
X179835Y128958D01*
X179806Y128988D01*
X179762Y129031D01*
X179689Y129119D01*
X179631Y129192D01*
X179747Y129279D01*
X179893Y129396D01*
Y129381D01*
X179908Y129367D01*
X179937Y129323D01*
X179995Y129265D01*
X180053Y129206D01*
X180068Y129192D01*
X180112Y129148D01*
X180185Y129104D01*
X180272Y129046D01*
X180301Y129031D01*
X180389Y128988D01*
X180520Y128929D01*
X180680Y128871D01*
X180885Y128827D01*
X181103Y128813D01*
X181351Y128856D01*
X181468Y128885D01*
X181599Y128944D01*
X181614Y128958D01*
X181672Y128988D01*
X181759Y129046D01*
X181890Y129133D01*
X181920Y129148D01*
X181993Y129192D01*
X182095Y129250D01*
X182211Y129323D01*
X182240Y129338D01*
X182328Y129381D01*
X182459Y129425D01*
X182649Y129454D01*
X182663D01*
X182707D01*
X182751D01*
X182794D01*
X182809D01*
X182853D01*
X182911D01*
X182955Y129439D01*
D02*
G37*
G36*
X184427Y127486D02*
X184019D01*
Y132370D01*
X184427D01*
Y127486D01*
D02*
G37*
%LPC*%
G36*
X20546Y174532D02*
X20495D01*
X20393D01*
X20367D01*
X20291D01*
X20240D01*
X20138Y174506D01*
X20010Y174455D01*
X19857Y174379D01*
X19832D01*
X14551Y171343D01*
Y171317D01*
X14602Y171292D01*
X14679Y171190D01*
X14704Y171164D01*
X14781Y171113D01*
X14883Y171011D01*
X15061Y170909D01*
X15087Y170884D01*
X15163Y170858D01*
X15316Y170782D01*
X15546Y170705D01*
X15572D01*
X15597Y170680D01*
X15750Y170629D01*
X15929Y170552D01*
X16082Y170450D01*
X16107D01*
X16158Y170399D01*
X16286Y170297D01*
X16311Y170272D01*
X16362Y170220D01*
X16515Y170093D01*
X16541Y170067D01*
X16617Y169991D01*
X16720Y169863D01*
X16847Y169736D01*
X17102Y169379D01*
X17230Y169175D01*
X17332Y168996D01*
X20546Y174532D01*
D02*
G37*
G36*
X18735Y167899D02*
X18684D01*
X18658D01*
X18633D01*
X18582D01*
X18531Y167848D01*
X18505D01*
Y167823D01*
X18480D01*
X18454D01*
X18429Y167771D01*
X18327Y167695D01*
X18225Y167567D01*
X18173Y167516D01*
Y167491D01*
X18199Y167465D01*
X18250Y167363D01*
X18327Y167261D01*
X18378Y167185D01*
X18403Y167159D01*
X18480Y167083D01*
X18607Y166981D01*
X18760Y166879D01*
X18786D01*
X18811Y166853D01*
X18837D01*
Y166879D01*
X18862Y166904D01*
X18939Y167032D01*
Y167083D01*
X18964Y167185D01*
X18990Y167338D01*
X19015Y167542D01*
Y167669D01*
X18990Y167771D01*
X18939Y167848D01*
X18913D01*
X18888D01*
X18811Y167874D01*
X18735Y167899D01*
D02*
G37*
G36*
X19628Y167159D02*
X19577D01*
X19551D01*
X19475D01*
X19373D01*
X19245Y167083D01*
Y167057D01*
X19219Y167032D01*
Y166981D01*
X19194Y166955D01*
Y166930D01*
X19168Y166879D01*
X19143Y166802D01*
X19117Y166751D01*
X19143D01*
X19245Y166726D01*
X19271D01*
X19373Y166674D01*
X19526Y166623D01*
X19704Y166522D01*
X19730Y166547D01*
X19755Y166598D01*
X19781Y166700D01*
X19806Y166828D01*
Y166930D01*
X19781Y167006D01*
X19730Y167083D01*
Y167108D01*
X19704Y167134D01*
X19653D01*
X19628Y167159D01*
D02*
G37*
G36*
X16847Y166445D02*
X16464Y165756D01*
X16490D01*
X16541D01*
X16592Y165731D01*
X16643D01*
X16669D01*
X16720D01*
X16872Y165782D01*
X16898D01*
X16949Y165807D01*
X16975Y165833D01*
X17051Y165858D01*
X17153Y165909D01*
X17230Y165960D01*
Y165986D01*
X17179Y166011D01*
X17102Y166139D01*
X16975Y166292D01*
X16847Y166445D01*
D02*
G37*
G36*
X17408Y165756D02*
X17383Y165731D01*
X17332Y165705D01*
X17204Y165629D01*
X17051Y165552D01*
X17000Y165527D01*
X16975D01*
X16898Y165501D01*
X16796Y165476D01*
X16669Y165450D01*
X16643D01*
X16566D01*
X16439Y165476D01*
X16311Y165501D01*
X16031Y165016D01*
X16056D01*
X16082Y164965D01*
X16235Y164889D01*
X16260D01*
X16311D01*
X16413Y164863D01*
X16515D01*
X16541D01*
X16592D01*
X16745D01*
X16898D01*
X16949D01*
X16975D01*
X17026D01*
X17128D01*
X17255Y164889D01*
X17383Y164914D01*
X17408D01*
X17485Y164940D01*
X17536Y164965D01*
X17587Y164991D01*
X17612D01*
X17689Y165042D01*
X17816Y165093D01*
X17969Y165195D01*
X17944D01*
X17918Y165220D01*
X17893Y165246D01*
X17867Y165271D01*
X17816Y165322D01*
X17714Y165425D01*
X17561Y165578D01*
X17408Y165756D01*
D02*
G37*
G36*
X19168Y166445D02*
X19143Y166419D01*
X19117Y166368D01*
X19092Y166241D01*
X19041Y166088D01*
Y166011D01*
X19066Y165858D01*
Y165756D01*
X19092Y165629D01*
X19117Y165527D01*
Y165425D01*
X19143Y165399D01*
Y165348D01*
X19168Y165322D01*
X19194Y165246D01*
X19271Y165144D01*
X19347Y165042D01*
X19398Y165016D01*
X19475Y164965D01*
X19602Y164914D01*
X19628Y164889D01*
X19755Y164863D01*
X19806D01*
X19908Y164914D01*
X20036Y164965D01*
X20138Y165042D01*
X20163Y165093D01*
X20189Y165144D01*
X20214Y165246D01*
Y165552D01*
X20163Y165654D01*
X20138Y165705D01*
X20112Y165756D01*
X20061Y165833D01*
X20036Y165858D01*
X19959Y165935D01*
X19857Y166037D01*
X19653Y166190D01*
X19628D01*
X19602Y166215D01*
X19475Y166317D01*
X19321Y166394D01*
X19168Y166445D01*
D02*
G37*
G36*
X17612Y167771D02*
X17000Y166726D01*
X17026Y166674D01*
X17128Y166547D01*
X17281Y166368D01*
X17459Y166113D01*
Y166088D01*
X17510Y166062D01*
X17638Y165909D01*
X17816Y165705D01*
X18046Y165501D01*
X18071Y165476D01*
X18173Y165399D01*
X18301Y165297D01*
X18480Y165195D01*
X18684Y165067D01*
X18913Y164965D01*
X19143Y164889D01*
X19344Y164866D01*
X19347Y164863D01*
X19373D01*
X19344Y164866D01*
X19321Y164889D01*
X19271Y164914D01*
X19245Y164940D01*
X19219Y164965D01*
X19168Y165042D01*
X19092Y165170D01*
X19015Y165322D01*
Y165348D01*
X18990Y165374D01*
Y165450D01*
X18964Y165476D01*
Y165501D01*
X18939Y165552D01*
Y165603D01*
X18913Y165756D01*
Y166113D01*
X18939Y166139D01*
X18964Y166241D01*
Y166317D01*
X19015Y166471D01*
X18990D01*
X18964Y166496D01*
X18888Y166522D01*
X18862D01*
X18837Y166547D01*
X18735Y166572D01*
X18633Y166623D01*
X18607D01*
X18582Y166649D01*
X18480Y166726D01*
X18327Y166853D01*
X18173Y167006D01*
Y167032D01*
X18123Y167083D01*
X18046Y167185D01*
X17944Y167338D01*
Y167363D01*
X17918Y167389D01*
X17816Y167516D01*
X17714Y167644D01*
X17612Y167771D01*
D02*
G37*
G36*
X18199Y164991D02*
X18148Y164965D01*
X18046Y164914D01*
X17893Y164812D01*
X17714Y164736D01*
X17689D01*
X17638Y164710D01*
X17587Y164685D01*
Y164659D01*
X17561D01*
X17536D01*
X17459Y164634D01*
X17434D01*
X17408D01*
X17332Y164608D01*
X17179Y164583D01*
X16975D01*
X16949D01*
X16898D01*
X16770D01*
X16745D01*
X16694D01*
X16515D01*
X16490D01*
X16388D01*
X16286D01*
X16158Y164608D01*
X16133D01*
X16056Y164659D01*
X15878Y164761D01*
X15648Y164328D01*
X15674D01*
X15776Y164302D01*
X15929Y164226D01*
X16133Y164098D01*
X16158Y164073D01*
X16260Y164022D01*
X16388Y163945D01*
X16490Y163919D01*
X16515D01*
X16617D01*
X16770Y163945D01*
X16898Y163970D01*
X17051Y164022D01*
X17077D01*
X17128Y164047D01*
X17204Y164073D01*
X17306Y164098D01*
X17536Y164149D01*
X17612D01*
X17689D01*
X17740D01*
X17842Y164123D01*
X18021Y164098D01*
X18225D01*
X18276D01*
X18301Y164123D01*
Y164149D01*
X18327Y164175D01*
X18352Y164226D01*
X18403Y164277D01*
Y164302D01*
X18429Y164328D01*
X18480Y164379D01*
X18505Y164404D01*
X18556Y164455D01*
X18607Y164557D01*
Y164583D01*
X18658Y164608D01*
X18709Y164710D01*
X18658Y164736D01*
X18556Y164787D01*
X18403Y164863D01*
X18199Y164991D01*
D02*
G37*
G36*
X21260Y174072D02*
X17765Y168027D01*
X17791Y168001D01*
X17842Y167950D01*
X17918Y167848D01*
X18021Y167746D01*
X18046Y167771D01*
X18071Y167823D01*
X18173Y167924D01*
X18301Y168052D01*
X18327Y168078D01*
X18352Y168103D01*
X18429Y168154D01*
X18556Y168180D01*
X18684Y168205D01*
X18709D01*
X18786Y168180D01*
X18888Y168154D01*
X19015Y168129D01*
X19041Y168103D01*
X19117Y168078D01*
X19143Y168052D01*
X19194Y167950D01*
X19271Y167797D01*
X19296Y167567D01*
Y167440D01*
X19321D01*
X19398Y167465D01*
X19526D01*
X19653Y167440D01*
X19679D01*
X19704D01*
X19781Y167414D01*
X19832Y167389D01*
X19883Y167338D01*
X19908Y167312D01*
X19934Y167287D01*
X19959Y167261D01*
X20036Y167159D01*
X20087Y167006D01*
X20112Y166802D01*
Y166751D01*
X20087Y166649D01*
X20036Y166496D01*
X19934Y166343D01*
X19959Y166317D01*
X20061Y166241D01*
X20189Y166139D01*
X20291Y166011D01*
Y165986D01*
X20342Y165960D01*
X20367Y165884D01*
X20418Y165782D01*
Y165756D01*
X20444Y165705D01*
X20495Y165527D01*
Y165195D01*
X20469Y165093D01*
X20418Y164965D01*
X20342Y164863D01*
X20316D01*
X20291Y164812D01*
X20214Y164761D01*
X20138Y164710D01*
X20010Y164659D01*
X19857Y164608D01*
X19704Y164583D01*
X19500Y164557D01*
X19475D01*
X19449D01*
X19423D01*
X19398D01*
X19296D01*
X19168Y164583D01*
X19015Y164608D01*
X18990Y164583D01*
X18939Y164532D01*
X18862Y164404D01*
X18837Y164379D01*
X18811Y164353D01*
X18760Y164251D01*
X18786D01*
X18862Y164277D01*
X18990Y164328D01*
X19143Y164353D01*
X19449Y164404D01*
X19602Y164430D01*
X19704D01*
X19730D01*
X19755D01*
X19934Y164379D01*
X20138Y164277D01*
X20240Y164200D01*
X20342Y164098D01*
X20367Y164073D01*
X20393Y164022D01*
X20495Y163843D01*
Y163817D01*
X20520Y163741D01*
X20546Y163639D01*
Y163486D01*
X20495Y163384D01*
X20418Y163205D01*
X20265Y163052D01*
X20214Y163027D01*
X20163Y162976D01*
X20087Y162950D01*
X19985Y162874D01*
X19857Y162822D01*
X19679Y162746D01*
X19475Y162670D01*
X19449D01*
X19423D01*
X19398Y162644D01*
X19373D01*
X19347D01*
X19296Y162619D01*
X19168Y162567D01*
X19092Y162516D01*
X18964Y162465D01*
X18939D01*
X18913Y162440D01*
X18760Y162389D01*
X18607Y162338D01*
X18454Y162287D01*
X18429D01*
X18301Y162236D01*
X18199Y162210D01*
X18097D01*
X17944Y162185D01*
X17765Y162159D01*
X17740D01*
X17689D01*
X17612Y162134D01*
X17510Y162108D01*
X17281Y162083D01*
X17077Y162032D01*
X17051D01*
X17026D01*
X17000Y162006D01*
X16898Y161981D01*
X16796Y161955D01*
X16770D01*
X16694Y161930D01*
X16566Y161904D01*
X16413Y161879D01*
X16107Y161828D01*
X15954D01*
X15827Y161853D01*
X15801D01*
X15699Y161904D01*
X15520Y161981D01*
X15291Y162083D01*
X15265D01*
X15214Y162108D01*
X15112Y162159D01*
X15010Y162210D01*
X14730Y162287D01*
X14475Y162338D01*
X13913Y161343D01*
X19857Y157899D01*
X19883D01*
X19908D01*
X19934Y157874D01*
X20036Y157848D01*
X20061Y157823D01*
X20189Y157797D01*
X20214D01*
X20265D01*
X20342Y157772D01*
X20444D01*
X20674Y157797D01*
X20929Y157899D01*
Y157925D01*
X20980Y157950D01*
X21056Y158001D01*
X21082Y158027D01*
X21184Y158103D01*
Y158129D01*
X21235Y158154D01*
X21311Y158307D01*
X21413Y158537D01*
X21439Y158690D01*
X21464Y158843D01*
Y173486D01*
X21439D01*
Y173664D01*
X21413Y173715D01*
Y173817D01*
X21362Y173894D01*
X21260Y174072D01*
D02*
G37*
G36*
X19679Y164149D02*
X19628D01*
X19577D01*
X19500Y164123D01*
X19373D01*
X19194Y164073D01*
X18990Y164022D01*
X18735Y163945D01*
X18709Y163919D01*
X18658D01*
X18556Y163894D01*
X18531Y163868D01*
X18480D01*
X18403Y163843D01*
X18378D01*
X18327Y163817D01*
X18301D01*
X18225D01*
X18199D01*
X18173D01*
X18021D01*
X17842D01*
X17612Y163868D01*
X17587D01*
X17536D01*
X17383Y163843D01*
X17281Y163817D01*
X17153Y163766D01*
X17128D01*
X17077Y163741D01*
X16975Y163715D01*
X16872Y163690D01*
X16643Y163639D01*
X16515Y163613D01*
X16439D01*
X16413D01*
X16311Y163664D01*
X16158Y163741D01*
X15980Y163868D01*
X15954D01*
X15929Y163894D01*
X15801Y163970D01*
X15622Y164047D01*
X15470Y164073D01*
X14628Y162619D01*
X14653D01*
X14679D01*
X14832Y162567D01*
X15087Y162491D01*
X15393Y162338D01*
X15418D01*
X15444Y162312D01*
X15597Y162236D01*
X15776Y162185D01*
X15903Y162134D01*
X15954D01*
X16005Y162108D01*
X16082D01*
X16209Y162134D01*
X16337D01*
X16515Y162185D01*
X16720Y162236D01*
X16745D01*
X16822Y162261D01*
X16898Y162287D01*
X16975Y162312D01*
X17000D01*
X17051D01*
X17179Y162338D01*
X17408Y162389D01*
X17740Y162440D01*
X17765D01*
X17791D01*
X17969Y162465D01*
X18148Y162491D01*
X18352Y162542D01*
X18403Y162567D01*
X18505Y162593D01*
X18658Y162670D01*
X18837Y162746D01*
X18862Y162771D01*
X18964Y162797D01*
X19066Y162822D01*
X19168Y162874D01*
Y162925D01*
X19143Y162950D01*
Y163103D01*
X19194Y163256D01*
X19245Y163358D01*
X19296Y163460D01*
X19398Y163537D01*
X19526Y163639D01*
X19577Y163664D01*
X19628Y163715D01*
X19653Y163741D01*
X19704Y163766D01*
X19883Y163843D01*
X19934D01*
X20036D01*
X20061D01*
X20087D01*
X20138D01*
X20163D01*
X20138Y163868D01*
X20112Y163919D01*
X20087Y163945D01*
X19985Y164022D01*
X19857Y164098D01*
X19679Y164149D01*
D02*
G37*
G36*
X14322Y171190D02*
X11771Y169710D01*
X12128Y168817D01*
Y168792D01*
X12153Y168741D01*
X12179Y168664D01*
X12230Y168562D01*
X12281Y168307D01*
X12332Y168001D01*
Y167720D01*
X12306Y167465D01*
X12281Y167134D01*
Y166343D01*
X12332Y165960D01*
X12408Y165578D01*
Y165552D01*
X12434Y165501D01*
X12485Y165399D01*
X12561Y165246D01*
X12638Y165093D01*
X12740Y164889D01*
X12893Y164685D01*
X13046Y164455D01*
X13071Y164430D01*
X13097Y164353D01*
X13174Y164251D01*
X13301Y164073D01*
X13327Y164022D01*
X13352Y163945D01*
X13429Y163843D01*
X13454Y163817D01*
X13505Y163715D01*
X13607Y163588D01*
X13709Y163435D01*
X13735Y163409D01*
X13786Y163333D01*
X13862Y163256D01*
X13964Y163154D01*
X17153Y168664D01*
Y168690D01*
X17128Y168766D01*
X17077Y168868D01*
X17000Y169021D01*
X16898Y169200D01*
X16745Y169404D01*
X16541Y169634D01*
X16311Y169889D01*
X16286Y169914D01*
X16260Y169940D01*
X16107Y170067D01*
X16082Y170093D01*
X16056Y170118D01*
X15929Y170220D01*
X15903Y170246D01*
X15827Y170272D01*
X15674Y170348D01*
X15444Y170450D01*
X15418D01*
X15393Y170475D01*
X15240Y170527D01*
X15087Y170578D01*
X14908Y170654D01*
X14857Y170680D01*
X14755Y170756D01*
X14628Y170858D01*
X14475Y170986D01*
X14449Y171011D01*
X14424Y171062D01*
X14322Y171190D01*
D02*
G37*
G36*
X20112Y163715D02*
X20036D01*
X20010D01*
X19985D01*
X19959D01*
X19934Y163690D01*
X19908D01*
X19857Y163664D01*
X19704Y163588D01*
X19679D01*
X19653Y163562D01*
X19628Y163537D01*
X19577Y163511D01*
X19551D01*
X19526Y163486D01*
X19423Y163384D01*
X19321Y163231D01*
X19271Y163154D01*
Y163027D01*
X19296Y162950D01*
Y162925D01*
X19398Y162950D01*
X19423D01*
X19475Y162976D01*
X19577Y163027D01*
X19679Y163052D01*
X19908Y163154D01*
X20010Y163205D01*
X20087Y163256D01*
X20112Y163282D01*
X20163Y163333D01*
X20214Y163435D01*
X20265Y163562D01*
Y163664D01*
X20240Y163690D01*
X20214D01*
X20163D01*
X20138D01*
X20112Y163715D01*
D02*
G37*
G36*
X11515Y169583D02*
X7179Y167083D01*
Y167057D01*
X7153Y167032D01*
X7051Y166981D01*
X7026D01*
X7000Y166930D01*
X6949Y166879D01*
X6924Y166853D01*
X6898Y166828D01*
X6796Y166674D01*
X6719Y166445D01*
X6668Y166317D01*
Y166164D01*
X6643D01*
Y166113D01*
X6668Y165986D01*
X6694Y165807D01*
X6796Y165603D01*
X6822Y165578D01*
X6847Y165552D01*
Y165527D01*
X6873Y165501D01*
X6949Y165425D01*
X7051Y165322D01*
X7204Y165220D01*
X13174Y161777D01*
X13811Y162899D01*
X13786Y162925D01*
X13709Y162976D01*
X13607Y163103D01*
X13480Y163256D01*
X13454Y163282D01*
X13403Y163384D01*
X13301Y163511D01*
X13199Y163690D01*
X13174Y163715D01*
X13123Y163792D01*
Y163817D01*
X13097Y163843D01*
X13046Y163919D01*
Y163945D01*
X13021Y163970D01*
X12944Y164073D01*
X12867Y164200D01*
X12816Y164277D01*
X12791Y164302D01*
X12740Y164379D01*
X12663Y164506D01*
X12561Y164685D01*
X12332Y165067D01*
X12230Y165271D01*
X12153Y165476D01*
Y165501D01*
X12128Y165578D01*
X12077Y165705D01*
X12051Y165858D01*
X12026Y166037D01*
X12000Y166266D01*
X11975Y166522D01*
Y166828D01*
X12000Y166955D01*
Y167414D01*
X12026Y167644D01*
Y168103D01*
X12000Y168205D01*
X11949Y168435D01*
X11873Y168715D01*
X11515Y169583D01*
D02*
G37*
G36*
X67718Y156730D02*
X67700D01*
X67627Y156711D01*
X67573Y156657D01*
X67555Y156566D01*
Y156547D01*
X67573Y156493D01*
X67627Y156438D01*
X67718Y156420D01*
X67737D01*
X67791Y156438D01*
X67846Y156474D01*
X67864Y156566D01*
Y156584D01*
X67846Y156657D01*
X67810Y156711D01*
X67718Y156730D01*
D02*
G37*
G36*
X69559Y156784D02*
X68958D01*
Y156183D01*
X69559D01*
Y156784D01*
D02*
G37*
G36*
X76027Y155873D02*
X76009D01*
X75936D01*
X75845Y155837D01*
X75754Y155800D01*
X75644Y155746D01*
X75571Y155636D01*
X75498Y155509D01*
X75480Y155327D01*
Y155236D01*
X75517Y155163D01*
X75553Y155053D01*
X75608Y154962D01*
X75717Y154871D01*
X75845Y154798D01*
X76027Y154780D01*
X76045D01*
X76118Y154798D01*
X76191Y154816D01*
X76300Y154853D01*
X76391Y154908D01*
X76482Y155017D01*
X76555Y155145D01*
X76573Y155327D01*
Y155345D01*
X76555Y155418D01*
X76537Y155509D01*
X76501Y155600D01*
X76446Y155709D01*
X76337Y155782D01*
X76209Y155855D01*
X76027Y155873D01*
D02*
G37*
G36*
X69868Y155910D02*
Y155873D01*
X69686D01*
X70470Y155108D01*
X70743D01*
Y154835D01*
X72055Y153559D01*
X74114Y155545D01*
X69868Y155910D01*
D02*
G37*
G36*
X67099Y154288D02*
X66917D01*
Y153177D01*
X67099D01*
Y154288D01*
D02*
G37*
G36*
X70433Y154762D02*
X70324D01*
Y153122D01*
X70433D01*
Y154762D01*
D02*
G37*
G36*
X67810Y156074D02*
X67737D01*
X67609Y155946D01*
X67518Y155782D01*
X67409Y155563D01*
X67336Y155290D01*
X67263Y154962D01*
X67208Y154598D01*
X67409D01*
Y152849D01*
X67172D01*
X67190Y152539D01*
X67227Y152266D01*
X67281Y152011D01*
X67810D01*
Y156074D01*
D02*
G37*
G36*
X76883Y151847D02*
X76446D01*
Y151774D01*
X76883D01*
Y151847D01*
D02*
G37*
G36*
X67518Y151701D02*
X67099D01*
Y151573D01*
X67518D01*
Y151701D01*
D02*
G37*
G36*
X74533Y155509D02*
X72292Y153341D01*
X74205Y151482D01*
X76118Y151664D01*
Y154233D01*
X75954Y154215D01*
X75717Y154270D01*
X75498Y154361D01*
X75316Y154489D01*
X75189Y154616D01*
X75079Y154762D01*
X74988Y154962D01*
X74934Y155163D01*
X74915Y155327D01*
X74934Y155472D01*
X74533Y155509D01*
D02*
G37*
G36*
X72055Y153122D02*
X69941Y151081D01*
X73786Y151446D01*
X72055Y153122D01*
D02*
G37*
G36*
X68375Y156037D02*
Y150936D01*
X69431Y151027D01*
X71836Y153341D01*
X70743Y154397D01*
Y152812D01*
X70014D01*
Y155108D01*
X69231Y155873D01*
X68648D01*
Y156001D01*
X68375Y156037D01*
D02*
G37*
G36*
X67810Y151264D02*
X67500D01*
X67591Y151081D01*
X67664Y150972D01*
X67755Y150881D01*
X67810D01*
Y151264D01*
D02*
G37*
%LPD*%
G36*
X76209Y155655D02*
X76282Y155600D01*
X76337Y155545D01*
X76373Y155454D01*
X76391Y155327D01*
Y155272D01*
X76337Y155145D01*
X76300Y155072D01*
X76245Y155017D01*
X76154Y154981D01*
X76027Y154962D01*
X76009D01*
X75972D01*
X75845Y155017D01*
X75772Y155053D01*
X75717Y155108D01*
X75681Y155199D01*
X75662Y155327D01*
Y155381D01*
X75699Y155509D01*
X75754Y155582D01*
X75808Y155636D01*
X75899Y155673D01*
X76027Y155691D01*
X76045D01*
X76082D01*
X76209Y155655D01*
D02*
G37*
%LPC*%
G36*
X76063Y155381D02*
X76027D01*
X76009D01*
X75990D01*
X75972Y155363D01*
Y155308D01*
X75990Y155290D01*
X76027Y155272D01*
X76045D01*
X76063Y155290D01*
X76082Y155327D01*
Y155363D01*
X76063Y155381D01*
D02*
G37*
%LPD*%
D10*
X155707Y43602D02*
G03*
X155707Y43602I-394J0D01*
G01*
X87037Y97147D02*
G03*
X87037Y97147I-394J0D01*
G01*
X17848Y24544D02*
Y26643D01*
Y25593D01*
X20997D01*
Y27692D02*
X17848D01*
Y29266D01*
X18373Y29791D01*
X19423D01*
X19947Y29266D01*
Y27692D01*
X21522Y30841D02*
Y32940D01*
X18373Y33989D02*
X17848Y34514D01*
Y35564D01*
X18373Y36088D01*
X18898D01*
X19423Y35564D01*
Y35039D01*
Y35564D01*
X19947Y36088D01*
X20472D01*
X20997Y35564D01*
Y34514D01*
X20472Y33989D01*
X17848Y37138D02*
X19947D01*
X20997Y38188D01*
X19947Y39237D01*
X17848D01*
X18373Y40286D02*
X17848Y40811D01*
Y41861D01*
X18373Y42386D01*
X18898D01*
X19423Y41861D01*
Y41336D01*
Y41861D01*
X19947Y42386D01*
X20472D01*
X20997Y41861D01*
Y40811D01*
X20472Y40286D01*
X64039Y31628D02*
X61940D01*
X62990D01*
Y34776D01*
X60891D02*
Y31628D01*
X59316D01*
X58792Y32153D01*
Y33202D01*
X59316Y33727D01*
X60891D01*
X57742Y35301D02*
X55643D01*
X52494Y32153D02*
X53019Y31628D01*
X54069D01*
X54593Y32153D01*
Y34252D01*
X54069Y34776D01*
X53019D01*
X52494Y34252D01*
Y33202D01*
X53544D01*
X51445Y34776D02*
Y31628D01*
X49346Y34776D01*
Y31628D01*
X48296D02*
Y34776D01*
X46722D01*
X46197Y34252D01*
Y32153D01*
X46722Y31628D01*
X48296D01*
X86220Y20211D02*
X83071D01*
X86220Y22310D01*
X83071D01*
X86220Y23360D02*
X83071D01*
Y24934D01*
X83596Y25459D01*
X84646D01*
X85170Y24934D01*
Y23360D01*
Y24409D02*
X86220Y25459D01*
X83596Y28608D02*
X83071Y28083D01*
Y27033D01*
X83596Y26509D01*
X84121D01*
X84646Y27033D01*
Y28083D01*
X85170Y28608D01*
X85695D01*
X86220Y28083D01*
Y27033D01*
X85695Y26509D01*
X83071Y29657D02*
Y31756D01*
Y30707D01*
X86220D01*
X166141Y179136D02*
X162993D01*
Y180710D01*
X163517Y181235D01*
X164567D01*
X165092Y180710D01*
Y179136D01*
X162993Y182284D02*
X166141D01*
Y183859D01*
X165616Y184383D01*
X165092D01*
X164567Y183859D01*
Y182284D01*
Y183859D01*
X164042Y184383D01*
X163517D01*
X162993Y183859D01*
Y182284D01*
Y187532D02*
Y185433D01*
X164567D01*
X164042Y186482D01*
Y187007D01*
X164567Y187532D01*
X165616D01*
X166141Y187007D01*
Y185958D01*
X165616Y185433D01*
X196456Y179136D02*
X193308D01*
Y180710D01*
X193832Y181235D01*
X194882D01*
X195407Y180710D01*
Y179136D01*
X196456Y182284D02*
X194357D01*
X193308Y183334D01*
X194357Y184383D01*
X196456D01*
X194882D01*
Y182284D01*
X196456Y187532D02*
Y185433D01*
X194357Y187532D01*
X193832D01*
X193308Y187007D01*
Y185958D01*
X193832Y185433D01*
X176377Y179136D02*
X173229D01*
Y180710D01*
X173754Y181235D01*
X174803D01*
X175328Y180710D01*
Y179136D01*
X173229Y182284D02*
X176377D01*
Y183859D01*
X175853Y184383D01*
X175328D01*
X174803Y183859D01*
Y182284D01*
Y183859D01*
X174278Y184383D01*
X173754D01*
X173229Y183859D01*
Y182284D01*
X173754Y185433D02*
X173229Y185958D01*
Y187007D01*
X173754Y187532D01*
X174278D01*
X174803Y187007D01*
Y186482D01*
Y187007D01*
X175328Y187532D01*
X175853D01*
X176377Y187007D01*
Y185958D01*
X175853Y185433D01*
X186220Y179136D02*
X183071D01*
Y180710D01*
X183596Y181235D01*
X184646D01*
X185170Y180710D01*
Y179136D01*
X186220Y182284D02*
X184121D01*
X183071Y183334D01*
X184121Y184383D01*
X186220D01*
X184646D01*
Y182284D01*
X186220Y185433D02*
Y186482D01*
Y185958D01*
X183071D01*
X183596Y185433D01*
Y188057D02*
X183071Y188581D01*
Y189631D01*
X183596Y190156D01*
X185695D01*
X186220Y189631D01*
Y188581D01*
X185695Y188057D01*
X183596D01*
X136220Y179136D02*
X133071D01*
Y180710D01*
X133596Y181235D01*
X134646D01*
X135170Y180710D01*
Y179136D01*
X136220Y182284D02*
X134121D01*
X133071Y183334D01*
X134121Y184383D01*
X136220D01*
X134646D01*
Y182284D01*
X133596Y185433D02*
X133071Y185958D01*
Y187007D01*
X133596Y187532D01*
X134121D01*
X134646Y187007D01*
X135170Y187532D01*
X135695D01*
X136220Y187007D01*
Y185958D01*
X135695Y185433D01*
X135170D01*
X134646Y185958D01*
X134121Y185433D01*
X133596D01*
X134646Y185958D02*
Y187007D01*
X156299Y179136D02*
X153150D01*
Y180710D01*
X153675Y181235D01*
X154724D01*
X155249Y180710D01*
Y179136D01*
X153150Y182284D02*
X156299D01*
Y183859D01*
X155774Y184383D01*
X155249D01*
X154724Y183859D01*
Y182284D01*
Y183859D01*
X154200Y184383D01*
X153675D01*
X153150Y183859D01*
Y182284D01*
X156299Y187007D02*
X153150D01*
X154724Y185433D01*
Y187532D01*
X146456Y179136D02*
X143308D01*
Y180710D01*
X143832Y181235D01*
X144882D01*
X145407Y180710D01*
Y179136D01*
X143308Y182284D02*
X146456D01*
Y183859D01*
X145931Y184383D01*
X145407D01*
X144882Y183859D01*
Y182284D01*
Y183859D01*
X144357Y184383D01*
X143832D01*
X143308Y183859D01*
Y182284D01*
X146456Y185433D02*
Y186482D01*
Y185958D01*
X143308D01*
X143832Y185433D01*
Y188057D02*
X143308Y188581D01*
Y189631D01*
X143832Y190156D01*
X145931D01*
X146456Y189631D01*
Y188581D01*
X145931Y188057D01*
X143832D01*
X80314Y179136D02*
X77166D01*
Y180710D01*
X77691Y181235D01*
X78740D01*
X79265Y180710D01*
Y179136D01*
X80314Y182284D02*
X78215D01*
X77166Y183334D01*
X78215Y184383D01*
X80314D01*
X78740D01*
Y182284D01*
X77166Y187532D02*
X77691Y186482D01*
X78740Y185433D01*
X79790D01*
X80314Y185958D01*
Y187007D01*
X79790Y187532D01*
X79265D01*
X78740Y187007D01*
Y185433D01*
X30314Y179136D02*
X27166D01*
Y180710D01*
X27691Y181235D01*
X28740D01*
X29265Y180710D01*
Y179136D01*
X27166Y182284D02*
X30314D01*
Y183859D01*
X29790Y184383D01*
X29265D01*
X28740Y183859D01*
Y182284D01*
Y183859D01*
X28215Y184383D01*
X27691D01*
X27166Y183859D01*
Y182284D01*
X27691Y185433D02*
X27166Y185958D01*
Y187007D01*
X27691Y187532D01*
X28215D01*
X28740Y187007D01*
X29265Y187532D01*
X29790D01*
X30314Y187007D01*
Y185958D01*
X29790Y185433D01*
X29265D01*
X28740Y185958D01*
X28215Y185433D01*
X27691D01*
X28740Y185958D02*
Y187007D01*
X100393Y179136D02*
X97245D01*
Y180710D01*
X97769Y181235D01*
X98819D01*
X99344Y180710D01*
Y179136D01*
X97245Y182284D02*
X100393D01*
Y183859D01*
X99868Y184383D01*
X99344D01*
X98819Y183859D01*
Y182284D01*
Y183859D01*
X98294Y184383D01*
X97769D01*
X97245Y183859D01*
Y182284D01*
Y187532D02*
X97769Y186482D01*
X98819Y185433D01*
X99868D01*
X100393Y185958D01*
Y187007D01*
X99868Y187532D01*
X99344D01*
X98819Y187007D01*
Y185433D01*
X57612Y181235D02*
X57087Y180710D01*
Y179660D01*
X57612Y179136D01*
X59711D01*
X60236Y179660D01*
Y180710D01*
X59711Y181235D01*
X58661D01*
Y180185D01*
X60236Y182284D02*
X57087D01*
X60236Y184383D01*
X57087D01*
Y185433D02*
X60236D01*
Y187007D01*
X59711Y187532D01*
X57612D01*
X57087Y187007D01*
Y185433D01*
X40157Y179136D02*
X37008D01*
Y180710D01*
X37533Y181235D01*
X38583D01*
X39107Y180710D01*
Y179136D01*
X37008Y182284D02*
X40157D01*
Y183859D01*
X39632Y184383D01*
X39107D01*
X38583Y183859D01*
Y182284D01*
Y183859D01*
X38058Y184383D01*
X37533D01*
X37008Y183859D01*
Y182284D01*
X39632Y185433D02*
X40157Y185958D01*
Y187007D01*
X39632Y187532D01*
X37533D01*
X37008Y187007D01*
Y185958D01*
X37533Y185433D01*
X38058D01*
X38583Y185958D01*
Y187532D01*
X120472Y179136D02*
X117323D01*
Y180710D01*
X117848Y181235D01*
X118898D01*
X119422Y180710D01*
Y179136D01*
X120472Y182284D02*
X118373D01*
X117323Y183334D01*
X118373Y184383D01*
X120472D01*
X118898D01*
Y182284D01*
X119947Y185433D02*
X120472Y185958D01*
Y187007D01*
X119947Y187532D01*
X117848D01*
X117323Y187007D01*
Y185958D01*
X117848Y185433D01*
X118373D01*
X118898Y185958D01*
Y187532D01*
X70472Y179136D02*
X67323D01*
Y180710D01*
X67848Y181235D01*
X68898D01*
X69422Y180710D01*
Y179136D01*
X70472Y182284D02*
X68373D01*
X67323Y183334D01*
X68373Y184383D01*
X70472D01*
X68898D01*
Y182284D01*
X67323Y187532D02*
Y185433D01*
X68898D01*
X68373Y186482D01*
Y187007D01*
X68898Y187532D01*
X69947D01*
X70472Y187007D01*
Y185958D01*
X69947Y185433D01*
X110236Y179136D02*
X107087D01*
Y180710D01*
X107612Y181235D01*
X108661D01*
X109186Y180710D01*
Y179136D01*
X107612Y184383D02*
X107087Y183859D01*
Y182809D01*
X107612Y182284D01*
X109711D01*
X110236Y182809D01*
Y183859D01*
X109711Y184383D01*
X107087Y185433D02*
Y187532D01*
X107612D01*
X109711Y185433D01*
X110236D01*
X90157Y179136D02*
X87008D01*
Y180710D01*
X87533Y181235D01*
X88583D01*
X89107Y180710D01*
Y179136D01*
X90157Y182284D02*
X88058D01*
X87008Y183334D01*
X88058Y184383D01*
X90157D01*
X88583D01*
Y182284D01*
X87008Y185433D02*
Y187532D01*
X87533D01*
X89632Y185433D01*
X90157D01*
X50393Y179136D02*
X48294D01*
X47245Y180185D01*
X48294Y181235D01*
X50393D01*
X48819D01*
Y179136D01*
X47245Y182284D02*
X49344D01*
X50393Y183334D01*
X49344Y184383D01*
X47245D01*
Y185433D02*
X50393D01*
Y187007D01*
X49868Y187532D01*
X47769D01*
X47245Y187007D01*
Y185433D01*
Y188581D02*
X50393D01*
Y190156D01*
X49868Y190681D01*
X47769D01*
X47245Y190156D01*
Y188581D01*
X206299Y179136D02*
X203150D01*
Y180710D01*
X203675Y181235D01*
X204724D01*
X205249Y180710D01*
Y179136D01*
X206299Y182284D02*
X204200D01*
X203150Y183334D01*
X204200Y184383D01*
X206299D01*
X204724D01*
Y182284D01*
X203675Y185433D02*
X203150Y185958D01*
Y187007D01*
X203675Y187532D01*
X204200D01*
X204724Y187007D01*
Y186482D01*
Y187007D01*
X205249Y187532D01*
X205774D01*
X206299Y187007D01*
Y185958D01*
X205774Y185433D01*
X206299Y20211D02*
X203150D01*
Y21786D01*
X203675Y22310D01*
X204724D01*
X205249Y21786D01*
Y20211D01*
X203675Y25459D02*
X203150Y24934D01*
Y23885D01*
X203675Y23360D01*
X205774D01*
X206299Y23885D01*
Y24934D01*
X205774Y25459D01*
X203675Y26509D02*
X203150Y27033D01*
Y28083D01*
X203675Y28608D01*
X205774D01*
X206299Y28083D01*
Y27033D01*
X205774Y26509D01*
X203675D01*
X196456Y20211D02*
X193308D01*
Y21786D01*
X193832Y22310D01*
X194882D01*
X195407Y21786D01*
Y20211D01*
X193832Y25459D02*
X193308Y24934D01*
Y23885D01*
X193832Y23360D01*
X195931D01*
X196456Y23885D01*
Y24934D01*
X195931Y25459D01*
X196456Y26509D02*
Y27558D01*
Y27033D01*
X193308D01*
X193832Y26509D01*
X186220Y20211D02*
X183071D01*
Y21786D01*
X183596Y22310D01*
X184646D01*
X185170Y21786D01*
Y20211D01*
X183071Y23360D02*
X186220D01*
Y24934D01*
X185695Y25459D01*
X185170D01*
X184646Y24934D01*
Y23360D01*
Y24934D01*
X184121Y25459D01*
X183596D01*
X183071Y24934D01*
Y23360D01*
X183596Y26509D02*
X183071Y27033D01*
Y28083D01*
X183596Y28608D01*
X185695D01*
X186220Y28083D01*
Y27033D01*
X185695Y26509D01*
X183596D01*
X176377Y20211D02*
X173229D01*
Y21786D01*
X173754Y22310D01*
X174803D01*
X175328Y21786D01*
Y20211D01*
X176377Y23360D02*
X174278D01*
X173229Y24409D01*
X174278Y25459D01*
X176377D01*
X174803D01*
Y23360D01*
X176377Y28083D02*
X173229D01*
X174803Y26509D01*
Y28608D01*
X166141Y20211D02*
X162993D01*
Y21786D01*
X163517Y22310D01*
X164567D01*
X165092Y21786D01*
Y20211D01*
X166141Y23360D02*
X164042D01*
X162993Y24409D01*
X164042Y25459D01*
X166141D01*
X164567D01*
Y23360D01*
X166141Y28608D02*
Y26509D01*
X164042Y28608D01*
X163517D01*
X162993Y28083D01*
Y27033D01*
X163517Y26509D01*
X156299Y20211D02*
X153150D01*
Y21786D01*
X153675Y22310D01*
X154724D01*
X155249Y21786D01*
Y20211D01*
X156299Y23360D02*
X154200D01*
X153150Y24409D01*
X154200Y25459D01*
X156299D01*
X154724D01*
Y23360D01*
X156299Y26509D02*
Y27558D01*
Y27033D01*
X153150D01*
X153675Y26509D01*
X133071Y20211D02*
X135170D01*
X136220Y21261D01*
X135170Y22310D01*
X133071D01*
Y23360D02*
Y24409D01*
Y23885D01*
X136220D01*
Y23360D01*
Y24409D01*
Y25984D02*
X133071D01*
X136220Y28083D01*
X133071D01*
X123754Y22310D02*
X123229Y21786D01*
Y20736D01*
X123754Y20211D01*
X125853D01*
X126377Y20736D01*
Y21786D01*
X125853Y22310D01*
X124803D01*
Y21261D01*
X126377Y23360D02*
X123229D01*
X126377Y25459D01*
X123229D01*
Y26509D02*
X126377D01*
Y28083D01*
X125853Y28608D01*
X123754D01*
X123229Y28083D01*
Y26509D01*
X113517Y22310D02*
X112993Y21786D01*
Y20736D01*
X113517Y20211D01*
X115617D01*
X116141Y20736D01*
Y21786D01*
X115617Y22310D01*
X114567D01*
Y21261D01*
X116141Y23360D02*
X112993D01*
X116141Y25459D01*
X112993D01*
Y26509D02*
X116141D01*
Y28083D01*
X115617Y28608D01*
X113517D01*
X112993Y28083D01*
Y26509D01*
X103150Y22310D02*
Y20211D01*
X104724D01*
X104200Y21261D01*
Y21786D01*
X104724Y22310D01*
X105774D01*
X106299Y21786D01*
Y20736D01*
X105774Y20211D01*
X103150Y23360D02*
X105249D01*
X106299Y24409D01*
X105249Y25459D01*
X103150D01*
X94423Y20211D02*
X93898Y20736D01*
Y21786D01*
X94423Y22310D01*
X94948D01*
X95472Y21786D01*
Y21261D01*
Y21786D01*
X95997Y22310D01*
X96522D01*
X97047Y21786D01*
Y20736D01*
X96522Y20211D01*
X93898Y23360D02*
X95997D01*
X97047Y24409D01*
X95997Y25459D01*
X93898D01*
X94423Y26509D02*
X93898Y27033D01*
Y28083D01*
X94423Y28608D01*
X94948D01*
X95472Y28083D01*
Y27558D01*
Y28083D01*
X95997Y28608D01*
X96522D01*
X97047Y28083D01*
Y27033D01*
X96522Y26509D01*
X73754Y20211D02*
X73229Y20736D01*
Y21786D01*
X73754Y22310D01*
X74278D01*
X74803Y21786D01*
Y21261D01*
Y21786D01*
X75328Y22310D01*
X75853D01*
X76377Y21786D01*
Y20736D01*
X75853Y20211D01*
X73229Y23360D02*
X75328D01*
X76377Y24409D01*
X75328Y25459D01*
X73229D01*
X73754Y26509D02*
X73229Y27033D01*
Y28083D01*
X73754Y28608D01*
X74278D01*
X74803Y28083D01*
Y27558D01*
Y28083D01*
X75328Y28608D01*
X75853D01*
X76377Y28083D01*
Y27033D01*
X75853Y26509D01*
X110761Y87664D02*
X110237Y87139D01*
Y86090D01*
X110761Y85565D01*
X112861D01*
X113385Y86090D01*
Y87139D01*
X112861Y87664D01*
X110237Y90813D02*
X110761Y89763D01*
X111811Y88714D01*
X112861D01*
X113385Y89239D01*
Y90288D01*
X112861Y90813D01*
X112336D01*
X111811Y90288D01*
Y88714D01*
X152229Y39764D02*
Y42388D01*
X151704Y42913D01*
X150655D01*
X150130Y42388D01*
Y39764D01*
X146981Y42913D02*
X149080D01*
X146981Y40814D01*
Y40289D01*
X147506Y39764D01*
X148556D01*
X149080Y40289D01*
X98554Y92914D02*
Y95538D01*
X98030Y96062D01*
X96980D01*
X96456Y95538D01*
Y92914D01*
X95406Y96062D02*
X94356D01*
X94881D01*
Y92914D01*
X95406Y93439D01*
X46982Y74279D02*
X46457Y73754D01*
Y72705D01*
X46982Y72180D01*
X47507D01*
X48031Y72705D01*
Y73754D01*
X48556Y74279D01*
X49081D01*
X49606Y73754D01*
Y72705D01*
X49081Y72180D01*
X46457Y75328D02*
X49606D01*
X48556Y76378D01*
X49606Y77428D01*
X46457D01*
X49606Y80576D02*
Y78477D01*
X47507Y80576D01*
X46982D01*
X46457Y80051D01*
Y79002D01*
X46982Y78477D01*
X46588Y142127D02*
X46064Y141602D01*
Y140552D01*
X46588Y140027D01*
X47113D01*
X47638Y140552D01*
Y141602D01*
X48163Y142127D01*
X48687D01*
X49212Y141602D01*
Y140552D01*
X48687Y140027D01*
X46064Y143176D02*
X49212D01*
X48163Y144226D01*
X49212Y145275D01*
X46064D01*
X49212Y146325D02*
Y147374D01*
Y146849D01*
X46064D01*
X46588Y146325D01*
X188582Y79922D02*
X185434D01*
Y81497D01*
X185958Y82022D01*
X187008D01*
X187533Y81497D01*
Y79922D01*
Y80972D02*
X188582Y82022D01*
Y83071D02*
Y84121D01*
Y83596D01*
X185434D01*
X185958Y83071D01*
Y85695D02*
X185434Y86220D01*
Y87269D01*
X185958Y87794D01*
X186483D01*
X187008Y87269D01*
Y86744D01*
Y87269D01*
X187533Y87794D01*
X188057D01*
X188582Y87269D01*
Y86220D01*
X188057Y85695D01*
X181889Y56694D02*
X178741D01*
Y58268D01*
X179265Y58793D01*
X180315D01*
X180840Y58268D01*
Y56694D01*
Y57744D02*
X181889Y58793D01*
Y59843D02*
Y60892D01*
Y60368D01*
X178741D01*
X179265Y59843D01*
X181889Y64566D02*
Y62467D01*
X179790Y64566D01*
X179265D01*
X178741Y64041D01*
Y62991D01*
X179265Y62467D01*
X143307Y92652D02*
X140158D01*
Y94226D01*
X140683Y94751D01*
X141732D01*
X142257Y94226D01*
Y92652D01*
Y93701D02*
X143307Y94751D01*
X140683Y95800D02*
X140158Y96325D01*
Y97375D01*
X140683Y97899D01*
X141208D01*
X141732Y97375D01*
X142257Y97899D01*
X142782D01*
X143307Y97375D01*
Y96325D01*
X142782Y95800D01*
X142257D01*
X141732Y96325D01*
X141208Y95800D01*
X140683D01*
X141732Y96325D02*
Y97375D01*
X169553Y93700D02*
Y90552D01*
X167979D01*
X167454Y91076D01*
Y92126D01*
X167979Y92651D01*
X169553D01*
X168503D02*
X167454Y93700D01*
X166404Y90552D02*
X164305D01*
Y91076D01*
X166404Y93176D01*
Y93700D01*
X147112Y121653D02*
Y118504D01*
X145538D01*
X145013Y119029D01*
Y120079D01*
X145538Y120604D01*
X147112D01*
X146063D02*
X145013Y121653D01*
X141864Y118504D02*
X142914Y119029D01*
X143963Y120079D01*
Y121128D01*
X143439Y121653D01*
X142389D01*
X141864Y121128D01*
Y120604D01*
X142389Y120079D01*
X143963D01*
X171259Y114305D02*
X168111D01*
Y115880D01*
X168635Y116404D01*
X169685D01*
X170210Y115880D01*
Y114305D01*
Y115355D02*
X171259Y116404D01*
X168111Y119553D02*
Y117454D01*
X169685D01*
X169160Y118503D01*
Y119028D01*
X169685Y119553D01*
X170735D01*
X171259Y119028D01*
Y117979D01*
X170735Y117454D01*
X38449Y9055D02*
Y5906D01*
X36875D01*
X36350Y6431D01*
Y7480D01*
X36875Y8005D01*
X38449D01*
X37400D02*
X36350Y9055D01*
X33727D02*
Y5906D01*
X35301Y7480D01*
X33202D01*
X21259Y54463D02*
X18111D01*
Y56037D01*
X18635Y56562D01*
X19685D01*
X20210Y56037D01*
Y54463D01*
Y55512D02*
X21259Y56562D01*
X18635Y57611D02*
X18111Y58136D01*
Y59186D01*
X18635Y59710D01*
X19160D01*
X19685Y59186D01*
Y58661D01*
Y59186D01*
X20210Y59710D01*
X20735D01*
X21259Y59186D01*
Y58136D01*
X20735Y57611D01*
X28346Y113518D02*
X25197D01*
Y115092D01*
X25722Y115617D01*
X26772D01*
X27296Y115092D01*
Y113518D01*
Y114567D02*
X28346Y115617D01*
Y118766D02*
Y116666D01*
X26247Y118766D01*
X25722D01*
X25197Y118241D01*
Y117191D01*
X25722Y116666D01*
X43700Y115224D02*
X40552D01*
Y116798D01*
X41076Y117323D01*
X42126D01*
X42651Y116798D01*
Y115224D01*
Y116273D02*
X43700Y117323D01*
Y118372D02*
Y119422D01*
Y118897D01*
X40552D01*
X41076Y118372D01*
X186615Y111286D02*
Y110237D01*
Y110761D01*
X189239D01*
X189763Y110237D01*
Y109712D01*
X189239Y109187D01*
X186615Y112336D02*
Y114435D01*
X187139D01*
X189239Y112336D01*
X189763D01*
X187008Y42389D02*
Y41339D01*
Y41864D01*
X189632D01*
X190157Y41339D01*
Y40814D01*
X189632Y40290D01*
X187008Y45537D02*
X187533Y44488D01*
X188583Y43438D01*
X189632D01*
X190157Y43963D01*
Y45013D01*
X189632Y45537D01*
X189107D01*
X188583Y45013D01*
Y43438D01*
X78741Y125460D02*
Y124410D01*
Y124935D01*
X81365D01*
X81889Y124410D01*
Y123885D01*
X81365Y123360D01*
X78741Y128608D02*
Y126509D01*
X80315D01*
X79790Y127559D01*
Y128083D01*
X80315Y128608D01*
X81365D01*
X81889Y128083D01*
Y127034D01*
X81365Y126509D01*
X125985Y187664D02*
Y186615D01*
Y187139D01*
X128609D01*
X129133Y186615D01*
Y186090D01*
X128609Y185565D01*
X129133Y190288D02*
X125985D01*
X127559Y188714D01*
Y190813D01*
X214174Y10893D02*
Y9843D01*
Y10368D01*
X216798D01*
X217322Y9843D01*
Y9318D01*
X216798Y8794D01*
X214699Y11942D02*
X214174Y12467D01*
Y13516D01*
X214699Y14041D01*
X215223D01*
X215748Y13516D01*
Y12992D01*
Y13516D01*
X216273Y14041D01*
X216798D01*
X217322Y13516D01*
Y12467D01*
X216798Y11942D01*
X15748Y188058D02*
Y187008D01*
Y187533D01*
X18372D01*
X18897Y187008D01*
Y186484D01*
X18372Y185959D01*
X18897Y191207D02*
Y189107D01*
X16798Y191207D01*
X16273D01*
X15748Y190682D01*
Y189632D01*
X16273Y189107D01*
X51182Y11417D02*
Y10368D01*
Y10893D01*
X53805D01*
X54330Y10368D01*
Y9843D01*
X53805Y9318D01*
X54330Y12467D02*
Y13516D01*
Y12992D01*
X51182D01*
X51706Y12467D01*
X133465Y92652D02*
X136614D01*
Y94226D01*
X136089Y94751D01*
X133990D01*
X133465Y94226D01*
Y92652D01*
Y97899D02*
Y95800D01*
X135039D01*
X134515Y96850D01*
Y97375D01*
X135039Y97899D01*
X136089D01*
X136614Y97375D01*
Y96325D01*
X136089Y95800D01*
X169553Y83071D02*
Y86220D01*
X167979D01*
X167454Y85695D01*
Y83596D01*
X167979Y83071D01*
X169553D01*
X164830Y86220D02*
Y83071D01*
X166404Y84646D01*
X164305D01*
X147506Y124804D02*
Y127952D01*
X145931D01*
X145407Y127427D01*
Y125328D01*
X145931Y124804D01*
X147506D01*
X144357Y125328D02*
X143832Y124804D01*
X142783D01*
X142258Y125328D01*
Y125853D01*
X142783Y126378D01*
X143308D01*
X142783D01*
X142258Y126903D01*
Y127427D01*
X142783Y127952D01*
X143832D01*
X144357Y127427D01*
X174804Y113912D02*
X177952D01*
Y115486D01*
X177427Y116011D01*
X175328D01*
X174804Y115486D01*
Y113912D01*
X177952Y119159D02*
Y117060D01*
X175853Y119159D01*
X175328D01*
X174804Y118634D01*
Y117585D01*
X175328Y117060D01*
X37531Y12205D02*
Y15354D01*
X35957D01*
X35432Y14829D01*
Y12730D01*
X35957Y12205D01*
X37531D01*
X34382Y15354D02*
X33333D01*
X33858D01*
Y12205D01*
X34382Y12730D01*
X116665Y46194D02*
X117190Y45670D01*
X118240D01*
X118764Y46194D01*
Y48294D01*
X118240Y48818D01*
X117190D01*
X116665Y48294D01*
X113517Y45670D02*
X115616D01*
Y47244D01*
X114566Y46719D01*
X114041D01*
X113517Y47244D01*
Y48294D01*
X114041Y48818D01*
X115091D01*
X115616Y48294D01*
X82809Y87270D02*
X82284Y86746D01*
Y85696D01*
X82809Y85172D01*
X84908D01*
X85433Y85696D01*
Y86746D01*
X84908Y87270D01*
X85433Y89894D02*
X82284D01*
X83858Y88320D01*
Y90419D01*
X117848Y81365D02*
X117323Y80840D01*
Y79791D01*
X117848Y79266D01*
X119947D01*
X120472Y79791D01*
Y80840D01*
X119947Y81365D01*
X117848Y82415D02*
X117323Y82939D01*
Y83989D01*
X117848Y84514D01*
X118373D01*
X118898Y83989D01*
Y83464D01*
Y83989D01*
X119422Y84514D01*
X119947D01*
X120472Y83989D01*
Y82939D01*
X119947Y82415D01*
X38320Y58530D02*
X37796Y58006D01*
Y56956D01*
X38320Y56431D01*
X40420D01*
X40944Y56956D01*
Y58006D01*
X40420Y58530D01*
X40944Y61679D02*
Y59580D01*
X38845Y61679D01*
X38320D01*
X37796Y61154D01*
Y60105D01*
X38320Y59580D01*
X39764Y150525D02*
X40288Y150001D01*
X41338D01*
X41863Y150525D01*
Y152624D01*
X41338Y153149D01*
X40288D01*
X39764Y152624D01*
X38714Y153149D02*
X37665D01*
X38190D01*
Y150001D01*
X38714Y150525D01*
D11*
X63494Y129234D02*
X75305D01*
X63494Y83880D02*
Y129234D01*
Y83880D02*
X75305D01*
Y129234D01*
X20495Y194095D02*
Y205906D01*
Y194095D02*
X126873D01*
Y205906D01*
X20495D02*
X126873D01*
X126495D02*
X211219D01*
Y194095D02*
Y205906D01*
X126495Y194095D02*
X211219D01*
X126495D02*
Y205906D01*
X146495Y4095D02*
Y15905D01*
Y4095D02*
X211534D01*
Y15905D01*
X146495D02*
X211534D01*
X56495Y4095D02*
Y15905D01*
Y4095D02*
X141219D01*
Y15905D01*
X56495D02*
X141219D01*
X63494Y129234D02*
X75305D01*
X63494Y83880D02*
Y129234D01*
Y83880D02*
X75305D01*
Y129234D01*
X20495Y194095D02*
Y205906D01*
Y194095D02*
X126873D01*
Y205906D01*
X20495D02*
X126873D01*
X126495D02*
X211219D01*
Y194095D02*
Y205906D01*
X126495Y194095D02*
X211219D01*
X126495D02*
Y205906D01*
X146495Y4095D02*
Y15905D01*
Y4095D02*
X211534D01*
Y15905D01*
X146495D02*
X211534D01*
X56495Y4095D02*
Y15905D01*
Y4095D02*
X141219D01*
Y15905D01*
X56495D02*
X141219D01*
X75305Y83880D02*
Y129234D01*
X63494Y83880D02*
X75305D01*
X63494D02*
Y129234D01*
X75305D01*
X20495Y205906D02*
X126873D01*
Y194095D02*
Y205906D01*
X20495Y194095D02*
X126873D01*
X20495D02*
Y205906D01*
X126495Y194095D02*
Y205906D01*
Y194095D02*
X211219D01*
Y205906D01*
X126495D02*
X211219D01*
X146495Y15905D02*
X211534D01*
Y4095D02*
Y15905D01*
X146495Y4095D02*
X211534D01*
X146495D02*
Y15905D01*
X56495D02*
X141219D01*
Y4095D02*
Y15905D01*
X56495Y4095D02*
X141219D01*
X56495D02*
Y15905D01*
D12*
X193648Y140135D02*
Y143941D01*
Y145342D02*
Y146634D01*
Y147748D02*
Y148286D01*
Y149363D02*
Y161320D01*
X193541Y140135D02*
Y144157D01*
Y145342D02*
Y146670D01*
Y147784D02*
Y148286D01*
Y149399D02*
Y161320D01*
X193577Y140135D02*
Y144085D01*
Y145342D02*
Y146670D01*
Y147784D02*
Y148286D01*
Y149399D02*
Y161320D01*
X193613Y140135D02*
Y144013D01*
Y145342D02*
Y146634D01*
Y147748D02*
Y148286D01*
Y149399D02*
Y161320D01*
X191674Y142039D02*
Y161320D01*
X192104Y140997D02*
Y161320D01*
X192140Y140961D02*
Y161320D01*
X192176Y140925D02*
Y161320D01*
X191709Y141823D02*
Y161320D01*
X192248Y140818D02*
Y161320D01*
X192284Y140782D02*
Y161320D01*
X192320Y140746D02*
Y161320D01*
X191745Y141715D02*
Y161320D01*
X192392Y140674D02*
Y161320D01*
X192428Y140674D02*
Y161320D01*
X192464Y140638D02*
Y161320D01*
X191781Y141608D02*
Y161320D01*
X192535Y140566D02*
Y161320D01*
X192571Y140530D02*
Y161320D01*
X192607Y140530D02*
Y161320D01*
X191817Y141500D02*
Y161320D01*
X192679Y140459D02*
Y161320D01*
X192715Y140423D02*
Y161320D01*
X192751Y140423D02*
Y161320D01*
X191853Y141428D02*
Y161320D01*
X192823Y140387D02*
Y161320D01*
X192858Y140351D02*
Y161320D01*
X192894Y140315D02*
Y161320D01*
X191889Y141356D02*
Y161320D01*
X192966Y140315D02*
Y161320D01*
X193002Y140279D02*
Y161320D01*
X193038Y140279D02*
Y161320D01*
X191925Y141284D02*
Y161320D01*
X193110Y140243D02*
Y161320D01*
X193146Y140207D02*
Y161320D01*
X193182Y140207D02*
Y161320D01*
X191961Y141213D02*
Y161320D01*
X193253Y140171D02*
Y161320D01*
X193289Y140171D02*
Y161320D01*
X193325Y140171D02*
Y161320D01*
X194402Y159238D02*
Y161320D01*
X194295Y158914D02*
Y161320D01*
X193469Y149435D02*
Y161320D01*
X193433Y147819D02*
Y161320D01*
X193361Y140171D02*
Y161320D01*
X193218Y140207D02*
Y161320D01*
X193074Y140243D02*
Y161320D01*
X192930Y140315D02*
Y161320D01*
X192787Y140387D02*
Y161320D01*
X192643Y140495D02*
Y161320D01*
X192499Y140602D02*
Y161320D01*
X192356Y140710D02*
Y161320D01*
X192212Y140854D02*
Y161320D01*
X193433Y140135D02*
Y144588D01*
X192069Y141033D02*
Y161320D01*
X193397Y140135D02*
Y161320D01*
X193433Y145342D02*
Y146706D01*
X193469Y140135D02*
Y144372D01*
X192033Y141105D02*
Y161320D01*
X193469Y145342D02*
Y146670D01*
Y147784D02*
Y148322D01*
X193505Y140135D02*
Y144265D01*
Y145342D02*
Y146670D01*
Y147784D02*
Y148322D01*
Y149399D02*
Y161320D01*
X193792Y140135D02*
Y143762D01*
Y145378D02*
Y146599D01*
Y147712D02*
Y148250D01*
Y149328D02*
Y161320D01*
X193684Y140135D02*
Y143906D01*
Y145378D02*
Y146634D01*
Y147748D02*
Y148250D01*
Y149363D02*
Y161320D01*
X193720Y140135D02*
Y143834D01*
Y145378D02*
Y146634D01*
Y147748D02*
Y148250D01*
Y149363D02*
Y161320D01*
X193756Y140135D02*
Y143798D01*
Y145378D02*
Y146599D01*
Y147712D02*
Y148250D01*
Y149363D02*
Y161320D01*
X193936Y140135D02*
Y143618D01*
Y145378D02*
Y146563D01*
Y147676D02*
Y148214D01*
Y149292D02*
Y161320D01*
X193828Y140135D02*
Y143726D01*
Y145378D02*
Y146599D01*
Y147712D02*
Y148214D01*
Y149328D02*
Y161320D01*
X193864Y140135D02*
Y143690D01*
Y145378D02*
Y146599D01*
Y147712D02*
Y148214D01*
Y149328D02*
Y161320D01*
X193900Y140135D02*
Y143654D01*
Y145378D02*
Y146563D01*
Y147676D02*
Y148214D01*
Y149328D02*
Y161320D01*
X194079Y140135D02*
Y143511D01*
Y145378D02*
Y146527D01*
Y147640D02*
Y148179D01*
Y149256D02*
Y161320D01*
X193972Y140135D02*
Y143582D01*
Y145378D02*
Y146563D01*
Y147676D02*
Y148179D01*
Y149292D02*
Y161320D01*
X194007Y140135D02*
Y143546D01*
Y145378D02*
Y146563D01*
Y147676D02*
Y148179D01*
Y149292D02*
Y161320D01*
X194043Y140135D02*
Y143511D01*
Y145378D02*
Y146527D01*
Y147640D02*
Y148179D01*
Y149256D02*
Y161320D01*
X194223Y140135D02*
Y143403D01*
Y145378D02*
Y146491D01*
Y147604D02*
Y148143D01*
Y149220D02*
Y161320D01*
X194115Y140135D02*
Y143475D01*
Y145378D02*
Y146527D01*
Y147640D02*
Y148143D01*
Y149256D02*
Y161320D01*
X194151Y140135D02*
Y143439D01*
Y145378D02*
Y146527D01*
Y147640D02*
Y148143D01*
Y149256D02*
Y161320D01*
X194187Y140135D02*
Y143439D01*
Y145378D02*
Y146527D01*
Y147604D02*
Y148143D01*
Y149220D02*
Y161320D01*
X194367Y140135D02*
Y143331D01*
Y145378D02*
Y146455D01*
Y147568D02*
Y148107D01*
Y149651D02*
Y156509D01*
Y157478D02*
Y158232D01*
Y159166D02*
Y161320D01*
X194259Y140135D02*
Y143403D01*
Y145378D02*
Y146491D01*
Y147604D02*
Y148107D01*
Y149220D02*
Y161320D01*
X194295Y140135D02*
Y143367D01*
Y145378D02*
Y146491D01*
Y147604D02*
Y148107D01*
Y149220D02*
Y156832D01*
X194331Y140135D02*
Y143367D01*
X191997Y141141D02*
Y161320D01*
X194295Y157227D02*
Y158555D01*
X194331Y145378D02*
Y146491D01*
Y147568D02*
Y148107D01*
Y149184D02*
Y156616D01*
Y157370D02*
Y158340D01*
Y159094D02*
Y161320D01*
X194905Y159453D02*
Y161320D01*
Y151015D02*
Y151518D01*
Y152631D02*
Y153241D01*
Y154354D02*
Y154893D01*
X194869Y159453D02*
Y161320D01*
Y140135D02*
Y143080D01*
Y152631D02*
Y153241D01*
Y154354D02*
Y154893D01*
X194941Y159417D02*
Y161320D01*
Y140135D02*
Y143044D01*
X194977Y144085D02*
Y144372D01*
Y145414D02*
Y146311D01*
Y147424D02*
Y147927D01*
Y149507D02*
Y149902D01*
Y151015D02*
Y151482D01*
Y152595D02*
Y153205D01*
Y154318D02*
Y154857D01*
Y159417D02*
Y161320D01*
X195013Y147389D02*
Y147927D01*
Y140135D02*
Y143008D01*
Y144049D02*
Y144336D01*
Y145414D02*
Y146311D01*
Y154318D02*
Y154857D01*
Y149471D02*
Y149902D01*
Y150979D02*
Y151482D01*
Y152595D02*
Y153205D01*
Y159417D02*
Y161320D01*
X194905Y144121D02*
Y144372D01*
X195049Y144049D02*
Y144336D01*
Y145414D02*
Y146311D01*
Y147389D02*
Y147927D01*
Y149004D02*
Y149866D01*
Y150979D02*
Y151482D01*
Y152595D02*
Y153205D01*
Y154318D02*
Y154857D01*
Y156114D02*
Y156437D01*
Y157837D02*
Y158160D01*
Y159417D02*
Y161320D01*
X195085Y159417D02*
Y161320D01*
Y156042D02*
Y156473D01*
Y157765D02*
Y158196D01*
X195121Y140135D02*
Y142936D01*
Y144013D02*
Y144336D01*
Y145414D02*
Y146275D01*
Y147389D02*
Y147891D01*
Y149004D02*
Y149866D01*
Y150979D02*
Y151446D01*
Y152559D02*
Y153170D01*
Y154283D02*
Y154821D01*
Y156006D02*
Y156509D01*
Y157730D02*
Y158232D01*
Y159381D02*
Y161320D01*
X195156Y159381D02*
Y161320D01*
Y155970D02*
Y156509D01*
Y157694D02*
Y158232D01*
X195192Y140135D02*
Y142900D01*
Y143977D02*
Y144336D01*
Y145414D02*
Y146275D01*
Y147353D02*
Y147891D01*
Y148968D02*
Y149830D01*
Y150943D02*
Y151446D01*
Y152559D02*
Y153170D01*
Y154283D02*
Y154821D01*
Y155934D02*
Y156509D01*
Y157658D02*
Y158232D01*
Y159381D02*
Y161320D01*
X194402Y140135D02*
Y143331D01*
Y144336D02*
Y144372D01*
Y145378D02*
Y146455D01*
Y147568D02*
Y148071D01*
X194438Y159309D02*
Y161320D01*
X194474Y140135D02*
Y143295D01*
Y144301D02*
Y144372D01*
Y145378D02*
Y146455D01*
Y147532D02*
Y148071D01*
Y149615D02*
Y150010D01*
Y151123D02*
Y151626D01*
Y152739D02*
Y153349D01*
Y154462D02*
Y155001D01*
Y156114D02*
Y156329D01*
Y157622D02*
Y158017D01*
Y159345D02*
Y161320D01*
X194438Y157586D02*
Y158089D01*
X194510Y144301D02*
Y144372D01*
Y145378D02*
Y146419D01*
Y147532D02*
Y148071D01*
Y149615D02*
Y150010D01*
Y151123D02*
Y151626D01*
Y152703D02*
Y153349D01*
Y154426D02*
Y154965D01*
Y156078D02*
Y156257D01*
Y157622D02*
Y157945D01*
Y159381D02*
Y161320D01*
X194546Y140135D02*
Y143259D01*
Y144265D02*
Y144372D01*
Y145378D02*
Y146419D01*
Y147532D02*
Y148035D01*
Y149615D02*
Y150010D01*
Y151123D02*
Y151590D01*
Y152703D02*
Y153313D01*
Y154426D02*
Y154965D01*
Y156078D02*
Y156221D01*
Y157658D02*
Y157909D01*
Y159381D02*
Y161320D01*
X194402Y157514D02*
Y158160D01*
X194582Y144265D02*
Y144372D01*
Y145378D02*
Y146419D01*
Y147496D02*
Y148035D01*
Y149579D02*
Y150010D01*
Y151087D02*
Y151590D01*
Y152703D02*
Y153313D01*
Y154426D02*
Y154965D01*
Y156078D02*
Y156186D01*
Y157694D02*
Y157873D01*
Y159417D02*
Y161320D01*
X194438Y156114D02*
Y156365D01*
X194618Y144229D02*
Y144372D01*
Y145414D02*
Y146419D01*
Y147496D02*
Y148035D01*
Y149579D02*
Y149974D01*
Y151087D02*
Y151590D01*
Y152703D02*
Y153313D01*
Y154426D02*
Y154965D01*
Y156078D02*
Y156150D01*
Y157694D02*
Y157837D01*
Y159417D02*
Y161320D01*
X194402Y156114D02*
Y156437D01*
X194654Y144229D02*
Y144372D01*
Y145414D02*
Y146383D01*
Y147496D02*
Y148035D01*
Y149579D02*
Y149974D01*
Y151087D02*
Y151590D01*
Y152667D02*
Y153313D01*
Y154390D02*
Y154929D01*
Y156042D02*
Y156114D01*
Y159417D02*
Y161320D01*
Y140135D02*
Y143187D01*
Y157694D02*
Y157801D01*
X194690Y144193D02*
Y144372D01*
Y145414D02*
Y146383D01*
Y147496D02*
Y147999D01*
Y149579D02*
Y149974D01*
Y151087D02*
Y151554D01*
Y152667D02*
Y153277D01*
Y154390D02*
Y154929D01*
Y156042D02*
Y156078D01*
Y157730D02*
Y157765D01*
Y159417D02*
Y161320D01*
X194438Y154462D02*
Y155001D01*
X194726Y144193D02*
Y144372D01*
Y145414D02*
Y146383D01*
Y147460D02*
Y147999D01*
Y149543D02*
Y149974D01*
Y151051D02*
Y151554D01*
Y152667D02*
Y153277D01*
Y154390D02*
Y154929D01*
Y159453D02*
Y161320D01*
Y140135D02*
Y143152D01*
X194762Y144157D02*
Y144372D01*
Y145414D02*
Y146383D01*
Y147460D02*
Y147999D01*
Y149543D02*
Y149938D01*
Y151051D02*
Y151554D01*
Y152667D02*
Y153277D01*
Y154390D02*
Y154929D01*
Y159453D02*
Y161320D01*
X194438Y152739D02*
Y153349D01*
X194797Y144157D02*
Y144372D01*
Y145414D02*
Y146347D01*
Y147460D02*
Y147999D01*
Y149543D02*
Y149938D01*
Y151051D02*
Y151554D01*
Y152631D02*
Y153277D01*
Y159453D02*
Y161320D01*
Y140135D02*
Y143116D01*
Y154354D02*
Y154893D01*
X194833Y144157D02*
Y144372D01*
Y145414D02*
Y146347D01*
Y147460D02*
Y147963D01*
Y149543D02*
Y149938D01*
Y151051D02*
Y151518D01*
Y152631D02*
Y153241D01*
Y154354D02*
Y154893D01*
Y159453D02*
Y161320D01*
X194438Y151123D02*
Y151626D01*
X194869Y144121D02*
Y144372D01*
Y145414D02*
Y146347D01*
Y147424D02*
Y147963D01*
Y149507D02*
Y149938D01*
Y151015D02*
Y151518D01*
X195228Y159381D02*
Y161320D01*
X195264Y154247D02*
Y154785D01*
Y155898D02*
Y156509D01*
Y157622D02*
Y158232D01*
Y159345D02*
Y161320D01*
X195228Y157658D02*
Y158268D01*
Y147353D02*
Y147891D01*
Y148968D02*
Y149830D01*
Y150943D02*
Y151446D01*
Y152523D02*
Y153170D01*
Y154247D02*
Y154785D01*
Y155934D02*
Y156509D01*
X195300Y159345D02*
Y161320D01*
Y154247D02*
Y154785D01*
Y155898D02*
Y156509D01*
Y157622D02*
Y158232D01*
X195264Y152523D02*
Y153134D01*
X195336Y143906D02*
Y144336D01*
Y145414D02*
Y146239D01*
Y147317D02*
Y147855D01*
Y148933D02*
Y149794D01*
Y150907D02*
Y151410D01*
Y152523D02*
Y153134D01*
Y159345D02*
Y161320D01*
Y154247D02*
Y154785D01*
Y155862D02*
Y156509D01*
Y157622D02*
Y158232D01*
X195372Y159345D02*
Y161320D01*
X195300Y152523D02*
Y153134D01*
X195372Y143906D02*
Y144336D01*
Y145414D02*
Y146204D01*
Y147317D02*
Y147855D01*
Y148933D02*
Y149794D01*
Y150907D02*
Y151410D01*
Y152487D02*
Y153134D01*
Y154211D02*
Y154749D01*
Y155862D02*
Y156509D01*
Y157586D02*
Y158232D01*
X195408Y157586D02*
Y158232D01*
Y152487D02*
Y153098D01*
Y154211D02*
Y154749D01*
Y155862D02*
Y156473D01*
X195300Y150907D02*
Y151410D01*
X195408Y143870D02*
Y144336D01*
Y145414D02*
Y146204D01*
Y147317D02*
Y147819D01*
Y148933D02*
Y149794D01*
Y150907D02*
Y151374D01*
Y159309D02*
Y161320D01*
Y140135D02*
Y142792D01*
X195444Y143870D02*
Y144336D01*
Y145414D02*
Y146204D01*
Y147281D02*
Y147819D01*
Y148933D02*
Y149794D01*
Y150872D02*
Y151374D01*
Y152487D02*
Y153098D01*
Y154211D02*
Y154749D01*
Y155862D02*
Y156473D01*
Y157586D02*
Y158196D01*
Y159309D02*
Y161320D01*
X195300Y148968D02*
Y149830D01*
X195480Y143834D02*
Y144336D01*
Y145414D02*
Y146204D01*
Y147281D02*
Y147819D01*
Y148897D02*
Y149758D01*
Y155826D02*
Y156473D01*
Y150872D02*
Y151374D01*
Y152487D02*
Y153098D01*
Y154211D02*
Y154749D01*
Y159309D02*
Y161320D01*
Y140135D02*
Y142757D01*
Y157550D02*
Y158196D01*
X195516Y143834D02*
Y144336D01*
Y145414D02*
Y146168D01*
Y147281D02*
Y147784D01*
Y148897D02*
Y149758D01*
Y150872D02*
Y151374D01*
Y152451D02*
Y153098D01*
Y154175D02*
Y154713D01*
Y155826D02*
Y156473D01*
Y157550D02*
Y158196D01*
Y159309D02*
Y161320D01*
X194402Y149651D02*
Y150046D01*
Y151159D02*
Y151626D01*
Y152739D02*
Y153349D01*
Y154462D02*
Y155001D01*
X194941Y154318D02*
Y154857D01*
Y149507D02*
Y149902D01*
Y151015D02*
Y151518D01*
Y152595D02*
Y153241D01*
X195085Y154283D02*
Y154821D01*
Y149004D02*
Y149866D01*
Y150979D02*
Y151482D01*
Y152559D02*
Y153205D01*
X195156Y154283D02*
Y154821D01*
Y149004D02*
Y149866D01*
Y150943D02*
Y151446D01*
Y152559D02*
Y153170D01*
X195695Y154139D02*
Y154677D01*
Y148861D02*
Y149723D01*
Y150836D02*
Y151302D01*
Y152415D02*
Y153026D01*
X195228Y140135D02*
Y142864D01*
X195156Y140135D02*
Y142900D01*
X195085Y140135D02*
Y142936D01*
X195049Y140135D02*
Y142972D01*
X194977Y140135D02*
Y143008D01*
X194905Y140135D02*
Y143044D01*
X194833Y140135D02*
Y143080D01*
X194762Y140135D02*
Y143116D01*
X194690Y140135D02*
Y143152D01*
X194618Y140135D02*
Y143187D01*
X194582Y140135D02*
Y143223D01*
X194510Y140135D02*
Y143259D01*
X194438Y140135D02*
Y143295D01*
X195156Y147353D02*
Y147891D01*
X194438Y144336D02*
Y144372D01*
X195156Y143977D02*
Y144336D01*
Y145414D02*
Y146275D01*
X194438Y149615D02*
Y150046D01*
X194905Y145414D02*
Y146347D01*
Y147424D02*
Y147963D01*
Y149507D02*
Y149902D01*
X194438Y147568D02*
Y148071D01*
X194941Y144085D02*
Y144372D01*
Y145414D02*
Y146311D01*
Y147424D02*
Y147963D01*
X195085Y147389D02*
Y147927D01*
X194438Y145378D02*
Y146455D01*
X195085Y144013D02*
Y144336D01*
Y145414D02*
Y146275D01*
X195264Y140135D02*
Y142864D01*
Y147353D02*
Y147855D01*
Y148968D02*
Y149830D01*
Y150943D02*
Y151410D01*
X195300Y147317D02*
Y147855D01*
X195228Y143977D02*
Y144336D01*
Y145414D02*
Y146239D01*
X195264Y145414D02*
Y146239D01*
X195300Y145414D02*
Y146239D01*
X198316Y159776D02*
Y159812D01*
Y159345D02*
Y159489D01*
Y159561D02*
Y159597D01*
Y159669D02*
Y159704D01*
X197311Y159345D02*
Y159489D01*
Y153744D02*
Y154283D01*
Y155396D02*
Y156006D01*
Y157119D02*
Y157730D01*
Y158376D02*
Y159274D01*
X198496Y155396D02*
Y155934D01*
Y153708D02*
Y153923D01*
Y154067D02*
Y154247D01*
Y154749D02*
Y154929D01*
Y157837D02*
Y158053D01*
Y156114D02*
Y156581D01*
Y156976D02*
Y157155D01*
Y157514D02*
Y157694D01*
Y158950D02*
Y161320D01*
Y158448D02*
Y158663D01*
X198532Y157837D02*
Y158017D01*
Y158160D02*
Y158340D01*
Y158448D02*
Y158663D01*
Y158950D02*
Y161320D01*
X195911Y155719D02*
Y156365D01*
Y150764D02*
Y151266D01*
Y152380D02*
Y152990D01*
Y154103D02*
Y154642D01*
X195767Y154139D02*
Y154677D01*
Y148825D02*
Y149687D01*
Y150800D02*
Y151302D01*
Y152415D02*
Y153026D01*
X195695Y159238D02*
Y161320D01*
Y155791D02*
Y156401D01*
Y157514D02*
Y158160D01*
X195731Y140135D02*
Y142613D01*
Y143726D02*
Y144301D01*
Y145450D02*
Y146132D01*
Y147209D02*
Y147748D01*
Y148861D02*
Y149723D01*
Y150800D02*
Y151302D01*
Y152415D02*
Y153026D01*
Y154139D02*
Y154677D01*
Y155791D02*
Y156401D01*
Y157514D02*
Y158125D01*
Y159238D02*
Y161320D01*
X195767Y159238D02*
Y161320D01*
Y155755D02*
Y156401D01*
Y157478D02*
Y158125D01*
X195803Y140135D02*
Y142577D01*
Y143690D02*
Y144301D01*
Y145450D02*
Y146096D01*
Y147209D02*
Y147712D01*
Y148825D02*
Y149687D01*
Y150800D02*
Y151302D01*
Y152380D02*
Y153026D01*
Y154103D02*
Y154642D01*
Y155755D02*
Y156401D01*
Y157478D02*
Y158125D01*
Y159238D02*
Y161320D01*
X195839Y154103D02*
Y154642D01*
Y148825D02*
Y149687D01*
Y150800D02*
Y151266D01*
Y152380D02*
Y152990D01*
Y159202D02*
Y161320D01*
Y155755D02*
Y156365D01*
Y157478D02*
Y158125D01*
X195875Y140135D02*
Y142541D01*
Y143654D02*
Y144301D01*
Y145450D02*
Y146096D01*
Y147173D02*
Y147712D01*
Y148825D02*
Y149687D01*
Y150764D02*
Y151266D01*
Y152380D02*
Y152990D01*
Y154103D02*
Y154642D01*
Y155755D02*
Y156365D01*
Y157478D02*
Y158089D01*
Y159202D02*
Y161320D01*
X195911Y159202D02*
Y161320D01*
Y157442D02*
Y158089D01*
X195946Y140135D02*
Y142505D01*
Y145450D02*
Y146060D01*
Y147173D02*
Y147676D01*
Y148789D02*
Y149651D01*
Y150764D02*
Y151266D01*
Y152344D02*
Y152990D01*
Y154067D02*
Y154606D01*
Y155719D02*
Y156365D01*
Y157442D02*
Y158089D01*
Y159202D02*
Y161320D01*
X195982Y155719D02*
Y156329D01*
Y150764D02*
Y151231D01*
Y152344D02*
Y152954D01*
Y154067D02*
Y154606D01*
Y159166D02*
Y161320D01*
Y157442D02*
Y158089D01*
X196018Y140135D02*
Y142469D01*
Y145450D02*
Y146060D01*
Y147137D02*
Y147676D01*
Y148789D02*
Y149651D01*
Y150728D02*
Y151231D01*
Y152344D02*
Y152954D01*
Y154067D02*
Y154606D01*
Y155719D02*
Y156329D01*
Y157442D02*
Y158053D01*
Y159166D02*
Y161320D01*
X196054Y155683D02*
Y156329D01*
Y150728D02*
Y151231D01*
Y152344D02*
Y152954D01*
Y154067D02*
Y154606D01*
Y159166D02*
Y161320D01*
X196126Y147137D02*
Y147640D01*
Y148753D02*
Y149615D01*
Y150728D02*
Y151195D01*
Y152308D02*
Y152918D01*
Y154031D02*
Y154570D01*
Y155683D02*
Y156293D01*
Y157406D02*
Y158053D01*
Y159130D02*
Y161320D01*
X196090Y159166D02*
Y161320D01*
X196162Y145450D02*
Y146024D01*
Y147101D02*
Y147640D01*
Y148753D02*
Y149615D01*
Y150692D02*
Y151195D01*
Y152308D02*
Y152918D01*
Y154031D02*
Y154570D01*
Y155683D02*
Y156293D01*
Y157406D02*
Y158017D01*
Y159130D02*
Y161320D01*
X196054Y157406D02*
Y158053D01*
X196198Y145450D02*
Y146024D01*
Y147101D02*
Y147640D01*
Y148717D02*
Y149579D01*
Y150692D02*
Y151195D01*
Y152308D02*
Y152918D01*
Y154031D02*
Y154570D01*
Y155647D02*
Y156293D01*
Y157370D02*
Y158017D01*
X195551Y155826D02*
Y156437D01*
Y150872D02*
Y151338D01*
Y152451D02*
Y153062D01*
Y154175D02*
Y154713D01*
Y159274D02*
Y161320D01*
Y148897D02*
Y149758D01*
Y157550D02*
Y158196D01*
X195587Y143798D02*
Y144336D01*
Y145450D02*
Y146168D01*
Y147245D02*
Y147784D01*
Y148897D02*
Y149758D01*
Y150836D02*
Y151338D01*
Y152451D02*
Y153062D01*
Y154175D02*
Y154713D01*
Y155826D02*
Y156437D01*
Y157550D02*
Y158160D01*
Y159274D02*
Y161320D01*
X195551Y147281D02*
Y147784D01*
X195623Y143762D02*
Y144336D01*
Y145450D02*
Y146168D01*
Y147245D02*
Y147784D01*
Y154175D02*
Y154713D01*
Y148861D02*
Y149723D01*
Y150836D02*
Y151338D01*
Y152451D02*
Y153062D01*
Y159274D02*
Y161320D01*
Y155791D02*
Y156437D01*
Y157514D02*
Y158160D01*
X195659Y140135D02*
Y142649D01*
Y143762D02*
Y144301D01*
Y145450D02*
Y146132D01*
Y147245D02*
Y147748D01*
Y148861D02*
Y149723D01*
Y150836D02*
Y151338D01*
Y152415D02*
Y153062D01*
Y154139D02*
Y154677D01*
Y155791D02*
Y156437D01*
Y157514D02*
Y158160D01*
Y159274D02*
Y161320D01*
X195839Y147209D02*
Y147712D01*
X195551Y140135D02*
Y142721D01*
X195839Y143690D02*
Y144301D01*
Y145450D02*
Y146096D01*
X195695Y147245D02*
Y147748D01*
X195551Y145414D02*
Y146168D01*
X195695Y143762D02*
Y144301D01*
Y145450D02*
Y146132D01*
X195767Y147209D02*
Y147748D01*
X195551Y143798D02*
Y144336D01*
X195767Y143726D02*
Y144301D01*
Y145450D02*
Y146132D01*
X195911Y148789D02*
Y149651D01*
X195336Y140135D02*
Y142828D01*
X195911Y145450D02*
Y146096D01*
Y147173D02*
Y147712D01*
X195982Y148789D02*
Y149651D01*
X195300Y143941D02*
Y144336D01*
X195982Y145450D02*
Y146060D01*
Y147173D02*
Y147676D01*
X196054Y148753D02*
Y149615D01*
X195264Y143941D02*
Y144336D01*
X196054Y145450D02*
Y146060D01*
Y147137D02*
Y147676D01*
X196449Y159058D02*
Y161320D01*
Y153959D02*
Y154498D01*
Y155611D02*
Y156221D01*
Y157335D02*
Y157945D01*
X196198Y159130D02*
Y161320D01*
Y140135D02*
Y142362D01*
X196234Y145450D02*
Y145988D01*
Y147101D02*
Y147604D01*
Y148717D02*
Y149579D01*
Y150692D02*
Y151195D01*
Y152272D02*
Y152918D01*
Y153995D02*
Y154534D01*
Y155647D02*
Y156293D01*
Y157370D02*
Y158017D01*
Y159130D02*
Y161320D01*
X196090Y157406D02*
Y158053D01*
X196270Y145450D02*
Y145988D01*
Y147101D02*
Y147604D01*
Y148717D02*
Y149579D01*
Y150692D02*
Y151159D01*
Y152272D02*
Y152882D01*
Y153995D02*
Y154534D01*
Y155647D02*
Y156257D01*
Y157370D02*
Y158017D01*
Y159094D02*
Y161320D01*
Y140135D02*
Y142326D01*
X196305Y145450D02*
Y145988D01*
Y147065D02*
Y147604D01*
Y148717D02*
Y149579D01*
Y150656D02*
Y151159D01*
Y152272D02*
Y152882D01*
Y153995D02*
Y154534D01*
Y155647D02*
Y156257D01*
Y157370D02*
Y157981D01*
Y159094D02*
Y161320D01*
X196090Y155683D02*
Y156329D01*
X196341Y145450D02*
Y145988D01*
Y147065D02*
Y147604D01*
Y148681D02*
Y149543D01*
Y150656D02*
Y151159D01*
Y152272D02*
Y152882D01*
Y153995D02*
Y154534D01*
Y155611D02*
Y156257D01*
Y159094D02*
Y161320D01*
Y140135D02*
Y142290D01*
Y157335D02*
Y157981D01*
X196377Y145450D02*
Y145952D01*
Y147065D02*
Y147568D01*
Y148681D02*
Y149543D01*
Y150656D02*
Y151159D01*
Y152236D02*
Y152882D01*
Y153959D02*
Y154498D01*
Y155611D02*
Y156257D01*
Y157335D02*
Y157981D01*
Y159094D02*
Y161320D01*
X196090Y154031D02*
Y154570D01*
X196413Y145450D02*
Y145952D01*
Y147065D02*
Y147568D01*
Y148681D02*
Y149543D01*
Y150656D02*
Y151123D01*
Y152236D02*
Y152846D01*
Y153959D02*
Y154498D01*
Y159058D02*
Y161320D01*
Y140135D02*
Y142254D01*
Y155611D02*
Y156221D01*
Y157335D02*
Y157981D01*
X196090Y152308D02*
Y152954D01*
X196449Y147029D02*
Y147568D01*
Y148681D02*
Y149543D01*
Y150620D02*
Y151123D01*
Y152236D02*
Y152846D01*
X196090Y150728D02*
Y151231D01*
X196485Y145450D02*
Y145952D01*
Y147029D02*
Y147568D01*
Y148681D02*
Y149507D01*
Y150620D02*
Y151123D01*
Y157299D02*
Y157945D01*
Y152236D02*
Y152810D01*
Y153959D02*
Y154498D01*
Y155575D02*
Y156221D01*
Y159058D02*
Y161320D01*
Y140135D02*
Y142218D01*
X196521Y145485D02*
Y145916D01*
Y147029D02*
Y147532D01*
Y148645D02*
Y149507D01*
Y150620D02*
Y151123D01*
Y152236D02*
Y152810D01*
Y153923D02*
Y154462D01*
Y155575D02*
Y156221D01*
Y157299D02*
Y157945D01*
Y159058D02*
Y161320D01*
X196090Y148753D02*
Y149615D01*
X196557Y145485D02*
Y145916D01*
Y147029D02*
Y147532D01*
Y148681D02*
Y149507D01*
Y155575D02*
Y156186D01*
Y150620D02*
Y151087D01*
Y152272D02*
Y152775D01*
Y153923D02*
Y154462D01*
Y159022D02*
Y161320D01*
Y140135D02*
Y142182D01*
Y157299D02*
Y157945D01*
X196593Y145485D02*
Y145916D01*
Y146994D02*
Y147532D01*
Y148681D02*
Y149507D01*
Y150584D02*
Y151087D01*
Y152272D02*
Y152739D01*
Y153923D02*
Y154462D01*
Y155575D02*
Y156186D01*
Y157299D02*
Y157909D01*
Y159022D02*
Y161320D01*
X196629Y148717D02*
Y149471D01*
X196449Y145450D02*
Y145952D01*
X196629Y145485D02*
Y145916D01*
Y146994D02*
Y147532D01*
Y155539D02*
Y156186D01*
Y150584D02*
Y151087D01*
Y152308D02*
Y152667D01*
Y153923D02*
Y154462D01*
Y159022D02*
Y161320D01*
Y157263D02*
Y157909D01*
X196665Y140135D02*
Y142110D01*
Y143331D02*
Y144265D01*
Y145485D02*
Y145880D01*
Y146994D02*
Y147496D01*
Y149076D02*
Y149471D01*
Y150584D02*
Y151087D01*
Y153888D02*
Y154426D01*
Y155539D02*
Y156186D01*
Y157263D02*
Y157909D01*
Y159022D02*
Y161320D01*
X196700Y155539D02*
Y156150D01*
Y149076D02*
Y149471D01*
Y150584D02*
Y151051D01*
Y153888D02*
Y154426D01*
Y158986D02*
Y161320D01*
Y157263D02*
Y157909D01*
X196736Y140135D02*
Y142074D01*
Y143295D02*
Y144265D01*
Y145485D02*
Y145880D01*
Y146958D02*
Y147496D01*
Y149040D02*
Y149471D01*
Y150548D02*
Y151051D01*
Y153888D02*
Y154426D01*
Y155539D02*
Y156150D01*
Y157263D02*
Y157873D01*
Y158986D02*
Y161320D01*
X196772Y155503D02*
Y156150D01*
Y149040D02*
Y149435D01*
Y150548D02*
Y151051D01*
Y153888D02*
Y154426D01*
Y158986D02*
Y161320D01*
Y157227D02*
Y157873D01*
X196808Y140135D02*
Y142039D01*
Y143259D02*
Y144265D01*
Y145485D02*
Y145845D01*
Y146958D02*
Y147496D01*
Y149040D02*
Y149435D01*
Y150548D02*
Y151051D01*
Y153852D02*
Y154390D01*
Y155503D02*
Y156150D01*
Y157227D02*
Y157873D01*
Y158986D02*
Y161320D01*
X196844Y155503D02*
Y156114D01*
Y149040D02*
Y149435D01*
Y150548D02*
Y151051D01*
Y153852D02*
Y154390D01*
Y158950D02*
Y161320D01*
Y157227D02*
Y157873D01*
X196880Y140135D02*
Y142002D01*
Y143223D02*
Y144265D01*
Y145485D02*
Y145845D01*
Y146922D02*
Y147496D01*
Y149004D02*
Y149435D01*
Y150512D02*
Y151051D01*
Y153852D02*
Y154390D01*
Y155503D02*
Y156114D01*
Y157227D02*
Y157837D01*
Y158950D02*
Y161320D01*
X197060Y159848D02*
Y161320D01*
Y158843D02*
Y159274D01*
Y159345D02*
Y159489D01*
Y159597D02*
Y159740D01*
X196916Y158914D02*
Y161320D01*
X197024Y150477D02*
Y151087D01*
Y152667D02*
Y152703D01*
Y153816D02*
Y154354D01*
Y155467D02*
Y156078D01*
Y157191D02*
Y157801D01*
Y158843D02*
Y159202D01*
Y159453D02*
Y159489D01*
Y159597D02*
Y159776D01*
Y159848D02*
Y161320D01*
X196952Y140135D02*
Y141967D01*
Y149004D02*
Y149399D01*
Y150512D02*
Y151051D01*
Y153816D02*
Y154354D01*
X196988Y140135D02*
Y141931D01*
X196952Y155467D02*
Y156114D01*
Y157191D02*
Y157837D01*
Y158914D02*
Y161320D01*
X196988Y143187D02*
Y144229D01*
Y145485D02*
Y145809D01*
Y146922D02*
Y147496D01*
Y149004D02*
Y149399D01*
Y150512D02*
Y151051D01*
Y153816D02*
Y154354D01*
Y155467D02*
Y156078D01*
Y157191D02*
Y157837D01*
Y158879D02*
Y161320D01*
X197024Y140135D02*
Y141931D01*
Y143152D02*
Y144229D01*
Y145485D02*
Y145809D01*
Y146886D02*
Y147496D01*
X196916Y157191D02*
Y157837D01*
X197060Y150477D02*
Y151087D01*
Y152631D02*
Y152703D01*
Y153816D02*
Y154354D01*
Y155432D02*
Y156078D01*
Y157155D02*
Y157801D01*
Y140135D02*
Y141895D01*
Y143152D02*
Y144229D01*
Y145485D02*
Y145809D01*
Y146886D02*
Y147496D01*
X196916Y155467D02*
Y156114D01*
X197095Y150477D02*
Y151087D01*
Y152595D02*
Y152703D01*
Y153780D02*
Y154318D01*
Y155432D02*
Y156078D01*
Y140135D02*
Y141859D01*
Y143116D02*
Y144229D01*
Y145485D02*
Y145773D01*
Y146886D02*
Y147496D01*
Y159633D02*
Y159740D01*
Y157155D02*
Y157801D01*
Y158807D02*
Y159274D01*
Y159345D02*
Y159489D01*
Y159848D02*
Y161320D01*
Y148968D02*
Y149363D01*
X197131Y143116D02*
Y144229D01*
Y145485D02*
Y145773D01*
Y146886D02*
Y147532D01*
Y148968D02*
Y149363D01*
Y150477D02*
Y151123D01*
Y152559D02*
Y152703D01*
Y153780D02*
Y154318D01*
Y155432D02*
Y156042D01*
Y157155D02*
Y157801D01*
Y158771D02*
Y159274D01*
Y159345D02*
Y159489D01*
Y159633D02*
Y159740D01*
Y159776D02*
Y159812D01*
Y159848D02*
Y161320D01*
X197167Y159848D02*
Y161320D01*
Y159561D02*
Y159597D01*
Y159633D02*
Y159704D01*
Y159776D02*
Y159812D01*
X196916Y153852D02*
Y154390D01*
Y146922D02*
Y147496D01*
Y149004D02*
Y149399D01*
Y150512D02*
Y151051D01*
X197167Y159345D02*
Y159489D01*
Y155432D02*
Y156042D01*
Y157155D02*
Y157765D01*
Y158699D02*
Y159274D01*
Y153780D02*
Y154318D01*
X197203Y143080D02*
Y144229D01*
Y145485D02*
Y145773D01*
Y146850D02*
Y147568D01*
Y148933D02*
Y149328D01*
Y150441D02*
Y151159D01*
Y152451D02*
Y152667D01*
Y153780D02*
Y154318D01*
Y159345D02*
Y159489D01*
Y155396D02*
Y156042D01*
Y157119D02*
Y157765D01*
Y158663D02*
Y159274D01*
Y159848D02*
Y161320D01*
Y159561D02*
Y159597D01*
Y159669D02*
Y159704D01*
Y159740D02*
Y159812D01*
X197167Y152523D02*
Y152667D01*
X197239Y143080D02*
Y144229D01*
Y145485D02*
Y145737D01*
Y146850D02*
Y147640D01*
Y148933D02*
Y149328D01*
Y150441D02*
Y151195D01*
Y152415D02*
Y152667D01*
Y158591D02*
Y159274D01*
Y153744D02*
Y154283D01*
Y155396D02*
Y156042D01*
Y157119D02*
Y157765D01*
X197275Y153744D02*
Y154283D01*
Y155396D02*
Y156006D01*
Y157119D02*
Y157765D01*
Y158519D02*
Y159274D01*
Y159345D02*
Y159489D01*
Y159561D02*
Y159633D01*
Y159740D02*
Y159812D01*
X197239Y159848D02*
Y161320D01*
Y159345D02*
Y159489D01*
Y159561D02*
Y159633D01*
Y159740D02*
Y159812D01*
X197275Y159848D02*
Y161320D01*
X197167Y150441D02*
Y151123D01*
Y143080D02*
Y144229D01*
Y148933D02*
Y149363D01*
X197275Y146850D02*
Y147712D01*
Y148933D02*
Y149328D01*
Y150441D02*
Y151266D01*
Y152344D02*
Y152667D01*
X197311Y140135D02*
Y141751D01*
X197239Y140135D02*
Y141787D01*
X197203Y140135D02*
Y141823D01*
X197275Y140135D02*
Y141787D01*
X196916Y140135D02*
Y141967D01*
X196844Y140135D02*
Y142002D01*
X196772Y140135D02*
Y142039D01*
X196700Y140135D02*
Y142074D01*
X196629Y140135D02*
Y142110D01*
X196593Y140135D02*
Y142146D01*
X196521Y140135D02*
Y142182D01*
X196449Y140135D02*
Y142218D01*
X196377Y140135D02*
Y142254D01*
X196305Y140135D02*
Y142290D01*
X196234Y140135D02*
Y142326D01*
X196162Y140135D02*
Y142362D01*
X196126Y140135D02*
Y142397D01*
X196090Y140135D02*
Y142397D01*
X196054Y140135D02*
Y142433D01*
X195982Y140135D02*
Y142469D01*
X195911Y140135D02*
Y142505D01*
X195839Y140135D02*
Y142541D01*
X195767Y140135D02*
Y142577D01*
X195695Y140135D02*
Y142613D01*
X195623Y140135D02*
Y142649D01*
X195587Y140135D02*
Y142685D01*
X195516Y140135D02*
Y142721D01*
X195444Y140135D02*
Y142757D01*
X195372Y140135D02*
Y142792D01*
X195300Y140135D02*
Y142828D01*
X196090Y147137D02*
Y147640D01*
X196700Y143295D02*
Y144265D01*
Y145485D02*
Y145880D01*
Y146994D02*
Y147496D01*
X196772Y146958D02*
Y147496D01*
X196126Y145450D02*
Y146024D01*
X196772Y143259D02*
Y144265D01*
Y145485D02*
Y145880D01*
X196844Y146958D02*
Y147496D01*
X196090Y145450D02*
Y146024D01*
X196844Y143223D02*
Y144265D01*
Y145485D02*
Y145845D01*
X197167Y140135D02*
Y141823D01*
X197131Y140135D02*
Y141859D01*
X197167Y145485D02*
Y145773D01*
Y146850D02*
Y147532D01*
X198244Y140135D02*
Y141715D01*
X198280Y141967D02*
Y142254D01*
Y142505D02*
Y143331D01*
Y143475D02*
Y143941D01*
X198208Y159345D02*
Y159489D01*
Y150441D02*
Y153923D01*
Y154067D02*
Y157694D01*
Y157837D02*
Y159309D01*
Y140135D02*
Y143331D01*
Y143475D02*
Y143941D01*
Y144085D02*
Y146599D01*
Y146742D02*
Y150297D01*
X198280Y156365D02*
Y157694D01*
Y150441D02*
Y152021D01*
Y152487D02*
Y153923D01*
Y154067D02*
Y155934D01*
Y157837D02*
Y159309D01*
Y159345D02*
Y159489D01*
Y140135D02*
Y141715D01*
Y146419D02*
Y146599D01*
Y146742D02*
Y148179D01*
Y148250D02*
Y150297D01*
X198316Y140135D02*
Y141715D01*
Y142505D02*
Y143331D01*
Y143475D02*
Y145988D01*
Y146419D02*
Y146599D01*
X197275Y143044D02*
Y144229D01*
X196916Y143187D02*
Y144265D01*
X196952Y143187D02*
Y144265D01*
X197311Y152272D02*
Y152631D01*
Y159848D02*
Y161320D01*
Y159704D02*
Y159812D01*
X197347Y140135D02*
Y148143D01*
Y148573D02*
Y151410D01*
Y152164D02*
Y161320D01*
X197311Y159561D02*
Y159633D01*
X197383Y151985D02*
Y161320D01*
X197419Y140135D02*
Y161320D01*
X197455Y140135D02*
Y161320D01*
X197311Y150405D02*
Y151338D01*
X197957Y140135D02*
Y161320D01*
X197993Y140135D02*
Y161320D01*
X198029Y140135D02*
Y161320D01*
X197311Y143044D02*
Y144229D01*
X197526Y140135D02*
Y161320D01*
X197562Y140135D02*
Y161320D01*
X197598Y140135D02*
Y161320D01*
X197275Y145485D02*
Y145737D01*
X197670Y140135D02*
Y161320D01*
X197706Y140135D02*
Y161320D01*
X197742Y140135D02*
Y161320D01*
X197311Y145485D02*
Y145737D01*
X197813Y140135D02*
Y161320D01*
X197849Y140135D02*
Y161320D01*
X197885Y140135D02*
Y161320D01*
X198173Y140135D02*
Y143331D01*
X198065Y140135D02*
Y161320D01*
X198101Y140135D02*
Y161320D01*
X198137Y140135D02*
Y161320D01*
X198173Y143475D02*
Y146599D01*
Y146742D02*
Y159202D01*
Y159453D02*
Y159489D01*
Y159597D02*
Y159776D01*
Y159848D02*
Y161320D01*
X198208Y159848D02*
Y161320D01*
X197921Y140135D02*
Y161320D01*
X198208Y159597D02*
Y159740D01*
X198244Y159848D02*
Y161320D01*
Y141931D02*
Y142254D01*
Y142505D02*
Y143331D01*
Y143475D02*
Y143941D01*
Y144085D02*
Y145988D01*
Y146419D02*
Y146599D01*
Y146742D02*
Y150297D01*
Y150441D02*
Y152021D01*
Y152380D02*
Y153923D01*
Y154067D02*
Y155934D01*
Y156365D02*
Y157694D01*
Y157837D02*
Y159309D01*
Y159345D02*
Y159489D01*
Y159633D02*
Y159740D01*
X198280Y159848D02*
Y161320D01*
Y144085D02*
Y145988D01*
Y159633D02*
Y159704D01*
Y159776D02*
Y159812D01*
X198316Y156365D02*
Y159309D01*
Y146742D02*
Y148107D01*
Y148250D02*
Y152021D01*
Y152523D02*
Y155934D01*
X198424Y140135D02*
Y141715D01*
X198388Y142002D02*
Y142218D01*
X198460Y142326D02*
Y142362D01*
Y142505D02*
Y142721D01*
X198316Y159848D02*
Y161320D01*
X197778Y140135D02*
Y161320D01*
X198352Y141967D02*
Y142218D01*
Y142505D02*
Y143331D01*
Y143475D02*
Y145988D01*
Y146132D02*
Y146599D01*
Y146742D02*
Y148107D01*
Y148250D02*
Y152021D01*
Y152164D02*
Y152308D01*
Y152559D02*
Y155934D01*
Y156114D02*
Y159309D01*
Y159345D02*
Y159489D01*
Y159561D02*
Y159597D01*
Y159740D02*
Y159812D01*
Y159848D02*
Y161320D01*
X198388Y159561D02*
Y159633D01*
Y152164D02*
Y152380D01*
Y152559D02*
Y155934D01*
Y156114D02*
Y159309D01*
Y159345D02*
Y159489D01*
X198352Y140135D02*
Y141715D01*
X198316Y141967D02*
Y142254D01*
X198388Y142505D02*
Y143331D01*
Y143475D02*
Y145988D01*
Y140135D02*
Y141715D01*
Y146132D02*
Y146599D01*
Y146742D02*
Y148107D01*
Y148250D02*
Y152021D01*
Y159848D02*
Y161320D01*
Y159740D02*
Y159812D01*
X198424Y159345D02*
Y159489D01*
Y159561D02*
Y159633D01*
Y159704D02*
Y159812D01*
Y159848D02*
Y161320D01*
X198460Y158950D02*
Y161320D01*
Y157837D02*
Y158089D01*
Y158412D02*
Y158663D01*
Y158771D02*
Y158807D01*
X198424Y142002D02*
Y142218D01*
Y142505D02*
Y142757D01*
Y143080D02*
Y143331D01*
Y143475D02*
Y143618D01*
Y143798D02*
Y143941D01*
Y144085D02*
Y144301D01*
Y144408D02*
Y144480D01*
Y144695D02*
Y145055D01*
Y145270D02*
Y145306D01*
Y145450D02*
Y145988D01*
Y146132D02*
Y146599D01*
Y146742D02*
Y147029D01*
Y147281D02*
Y147676D01*
Y147927D02*
Y147999D01*
Y148358D02*
Y148538D01*
Y148645D02*
Y148717D01*
Y148825D02*
Y149076D01*
Y149328D02*
Y149615D01*
Y149758D02*
Y149830D01*
Y150046D02*
Y150297D01*
Y150441D02*
Y150728D01*
Y151015D02*
Y151195D01*
Y151482D02*
Y152021D01*
Y152164D02*
Y152415D01*
Y152595D02*
Y152882D01*
Y153134D02*
Y153457D01*
Y153744D02*
Y153923D01*
Y154067D02*
Y154318D01*
Y154534D02*
Y154606D01*
Y154749D02*
Y154929D01*
Y155072D02*
Y155108D01*
Y155324D02*
Y155934D01*
Y156114D02*
Y156616D01*
Y156904D02*
Y157227D01*
Y157514D02*
Y157694D01*
Y157837D02*
Y158125D01*
Y158376D02*
Y158663D01*
Y158771D02*
Y158843D01*
Y158950D02*
Y159309D01*
X198460Y140135D02*
Y141715D01*
Y143475D02*
Y143582D01*
Y143762D02*
Y143941D01*
Y144085D02*
Y144301D01*
Y142002D02*
Y142182D01*
Y145450D02*
Y145988D01*
Y146132D02*
Y146599D01*
Y146742D02*
Y146994D01*
Y143116D02*
Y143331D01*
Y147927D02*
Y147999D01*
Y148358D02*
Y148538D01*
Y148645D02*
Y148681D01*
Y150441D02*
Y150692D01*
Y152595D02*
Y152810D01*
Y150979D02*
Y151159D01*
Y151482D02*
Y152021D01*
Y152164D02*
Y152415D01*
Y153170D02*
Y153421D01*
Y153744D02*
Y153923D01*
Y154067D02*
Y154283D01*
Y154749D02*
Y154929D01*
Y155360D02*
Y155934D01*
Y156114D02*
Y156581D01*
Y156940D02*
Y157191D01*
Y157514D02*
Y157694D01*
X198532Y152631D02*
Y152775D01*
Y152918D02*
Y153098D01*
Y153205D02*
Y153385D01*
Y153528D02*
Y153923D01*
Y154067D02*
Y154247D01*
Y154426D02*
Y154534D01*
Y154749D02*
Y154929D01*
Y155108D02*
Y155252D01*
Y155396D02*
Y155934D01*
Y156365D02*
Y156581D01*
Y156652D02*
Y156832D01*
Y156976D02*
Y157155D01*
Y157299D02*
Y157694D01*
X198496Y150979D02*
Y151123D01*
Y149399D02*
Y149615D01*
Y150082D02*
Y150297D01*
Y150441D02*
Y150656D01*
Y153205D02*
Y153385D01*
Y151482D02*
Y152021D01*
Y152164D02*
Y152451D01*
Y152595D02*
Y152810D01*
X198568Y155396D02*
Y155934D01*
Y154390D02*
Y154570D01*
Y154749D02*
Y154929D01*
Y155108D02*
Y155252D01*
Y156365D02*
Y156868D01*
Y157011D02*
Y157155D01*
Y157299D02*
Y157694D01*
Y145450D02*
Y145988D01*
Y149076D02*
Y149292D01*
Y149471D02*
Y149615D01*
Y149794D02*
Y149974D01*
Y150441D02*
Y150620D01*
Y150800D02*
Y151123D01*
Y151266D02*
Y152021D01*
Y152164D02*
Y152451D01*
Y152631D02*
Y152775D01*
Y152882D02*
Y153098D01*
Y153241D02*
Y153385D01*
Y153528D02*
Y153923D01*
Y154067D02*
Y154211D01*
X198532Y140135D02*
Y141715D01*
X198568Y141859D02*
Y141931D01*
Y142039D02*
Y142182D01*
Y142290D02*
Y142362D01*
X198496Y140135D02*
Y141715D01*
Y142039D02*
Y142182D01*
Y142326D02*
Y142362D01*
Y142505D02*
Y142721D01*
Y141859D02*
Y141895D01*
Y143475D02*
Y143582D01*
Y143726D02*
Y143941D01*
Y144085D02*
Y144301D01*
Y143116D02*
Y143331D01*
Y145450D02*
Y145988D01*
Y146132D02*
Y146599D01*
Y146742D02*
Y146958D01*
X198568Y140135D02*
Y141715D01*
Y143152D02*
Y143331D01*
Y143475D02*
Y143511D01*
Y143690D02*
Y143941D01*
Y142505D02*
Y143008D01*
Y144444D02*
Y144624D01*
Y144767D02*
Y144947D01*
Y145090D02*
Y145306D01*
Y158843D02*
Y161320D01*
X198603Y157837D02*
Y157981D01*
Y158125D02*
Y158340D01*
Y158484D02*
Y158663D01*
Y158807D02*
Y161320D01*
X196952Y146922D02*
Y147496D01*
X197024Y148968D02*
Y149399D01*
X198568Y158125D02*
Y158340D01*
Y158484D02*
Y158663D01*
X198460Y144731D02*
Y145019D01*
X196952Y145485D02*
Y145809D01*
X198460Y149399D02*
Y149615D01*
Y150082D02*
Y150297D01*
X198496Y144767D02*
Y144983D01*
Y147927D02*
Y147999D01*
Y148358D02*
Y148538D01*
Y148825D02*
Y148968D01*
X198532Y145450D02*
Y145988D01*
Y146383D02*
Y146599D01*
Y147748D02*
Y148107D01*
Y148250D02*
Y148538D01*
Y148825D02*
Y148933D01*
Y149112D02*
Y149256D01*
Y149435D02*
Y149615D01*
Y149830D02*
Y149938D01*
Y150117D02*
Y150297D01*
Y150441D02*
Y150620D01*
Y150800D02*
Y151123D01*
Y151266D02*
Y152021D01*
Y152164D02*
Y152451D01*
X196916Y145485D02*
Y145845D01*
X198568Y147712D02*
Y148107D01*
Y148250D02*
Y148538D01*
Y148681D02*
Y148933D01*
Y157837D02*
Y158017D01*
X198639Y153241D02*
Y153385D01*
Y153672D02*
Y153923D01*
Y154067D02*
Y154211D01*
Y154354D02*
Y154606D01*
Y154749D02*
Y154929D01*
Y155072D02*
Y155288D01*
Y155396D02*
Y155934D01*
Y156114D02*
Y156616D01*
Y157011D02*
Y157155D01*
Y157442D02*
Y157694D01*
Y157837D02*
Y157981D01*
X198603Y146742D02*
Y146922D01*
Y147029D02*
Y147281D01*
Y147389D02*
Y147532D01*
Y147676D02*
Y148107D01*
Y148250D02*
Y148538D01*
Y148681D02*
Y148933D01*
Y149076D02*
Y149328D01*
Y149471D02*
Y149615D01*
Y149794D02*
Y149974D01*
Y150117D02*
Y150297D01*
Y150441D02*
Y150620D01*
Y150764D02*
Y151123D01*
Y151302D02*
Y152021D01*
Y152164D02*
Y152451D01*
Y152631D02*
Y152739D01*
Y152882D02*
Y153098D01*
Y153241D02*
Y153385D01*
Y153564D02*
Y153923D01*
Y154067D02*
Y154211D01*
Y154354D02*
Y154570D01*
Y154749D02*
Y154929D01*
Y155072D02*
Y155252D01*
Y155396D02*
Y155934D01*
Y156365D02*
Y156868D01*
Y157011D02*
Y157155D01*
Y157335D02*
Y157694D01*
X198639Y158807D02*
Y161320D01*
Y158484D02*
Y158663D01*
X198675Y152595D02*
Y152739D01*
Y153241D02*
Y153421D01*
Y153708D02*
Y153923D01*
Y154067D02*
Y154211D01*
Y154354D02*
Y154606D01*
Y154749D02*
Y154929D01*
Y155072D02*
Y155288D01*
Y155396D02*
Y155934D01*
Y156114D02*
Y156581D01*
Y157011D02*
Y157191D01*
Y157514D02*
Y157694D01*
Y157837D02*
Y157981D01*
Y158484D02*
Y158663D01*
Y158807D02*
Y161320D01*
X198639Y147676D02*
Y148107D01*
X198568Y150117D02*
Y150297D01*
X198639Y148250D02*
Y148538D01*
Y148681D02*
Y148933D01*
Y149076D02*
Y149328D01*
Y149471D02*
Y149615D01*
Y149758D02*
Y149974D01*
Y150117D02*
Y150297D01*
Y150441D02*
Y150620D01*
Y150764D02*
Y151123D01*
Y151410D02*
Y152021D01*
Y152164D02*
Y152451D01*
Y152631D02*
Y152739D01*
X197060Y148968D02*
Y149363D01*
X198711Y146742D02*
Y146922D01*
Y147389D02*
Y147532D01*
Y147676D02*
Y148107D01*
Y148250D02*
Y148538D01*
Y148645D02*
Y148933D01*
Y149076D02*
Y149328D01*
Y156724D02*
Y156868D01*
Y155072D02*
Y155288D01*
Y155396D02*
Y155934D01*
Y156114D02*
Y156545D01*
Y157011D02*
Y157299D01*
Y157514D02*
Y157694D01*
Y157837D02*
Y157981D01*
Y158484D02*
Y158663D01*
Y158807D02*
Y161320D01*
X198675Y146742D02*
Y146922D01*
Y147389D02*
Y147532D01*
Y147676D02*
Y148107D01*
Y148250D02*
Y148538D01*
Y148681D02*
Y148933D01*
Y149076D02*
Y149328D01*
Y149471D02*
Y149615D01*
Y149758D02*
Y149974D01*
Y150117D02*
Y150297D01*
Y150441D02*
Y150620D01*
Y150764D02*
Y151159D01*
X198711Y149471D02*
Y149615D01*
Y149758D02*
Y149974D01*
Y150117D02*
Y150297D01*
X198675Y152164D02*
Y152451D01*
Y151482D02*
Y152021D01*
X198711Y150441D02*
Y150620D01*
Y150764D02*
Y151231D01*
Y151482D02*
Y152021D01*
Y152164D02*
Y152415D01*
Y152595D02*
Y152739D01*
Y153241D02*
Y153493D01*
Y153744D02*
Y153923D01*
Y154067D02*
Y154211D01*
Y154354D02*
Y154606D01*
Y154749D02*
Y154929D01*
X198603Y140135D02*
Y141715D01*
Y141859D02*
Y141931D01*
Y142074D02*
Y142146D01*
Y142290D02*
Y142362D01*
X198532Y141859D02*
Y141895D01*
X198496Y147353D02*
Y147568D01*
X198532Y142039D02*
Y142182D01*
Y142326D02*
Y142362D01*
Y142505D02*
Y142721D01*
Y142792D02*
Y143008D01*
Y143152D02*
Y143331D01*
Y143475D02*
Y143546D01*
Y143690D02*
Y143941D01*
Y144085D02*
Y144301D01*
Y144480D02*
Y144624D01*
Y144767D02*
Y144947D01*
Y145126D02*
Y145270D01*
Y146742D02*
Y146922D01*
Y147065D02*
Y147245D01*
Y147389D02*
Y147568D01*
X198568Y144085D02*
Y144301D01*
Y146383D02*
Y146599D01*
Y146742D02*
Y146922D01*
Y147065D02*
Y147245D01*
X198603Y142505D02*
Y143008D01*
Y143152D02*
Y143331D01*
Y143654D02*
Y143941D01*
Y144085D02*
Y144301D01*
Y144444D02*
Y144624D01*
Y144767D02*
Y144947D01*
Y145090D02*
Y145306D01*
Y145450D02*
Y145988D01*
X198747Y158807D02*
Y161320D01*
Y158125D02*
Y158663D01*
X198783Y157837D02*
Y158017D01*
Y158160D02*
Y158663D01*
Y158807D02*
Y161320D01*
X198747Y150441D02*
Y150620D01*
Y149471D02*
Y149615D01*
Y149758D02*
Y149974D01*
Y150117D02*
Y150297D01*
Y152595D02*
Y152739D01*
Y150764D02*
Y151338D01*
Y151482D02*
Y152021D01*
Y152164D02*
Y152415D01*
Y154390D02*
Y154570D01*
Y152882D02*
Y153600D01*
Y153744D02*
Y153923D01*
Y154067D02*
Y154211D01*
Y156114D02*
Y156545D01*
Y154749D02*
Y154929D01*
Y155072D02*
Y155288D01*
Y155396D02*
Y155934D01*
Y157837D02*
Y157981D01*
Y156688D02*
Y156868D01*
Y157011D02*
Y157370D01*
Y157514D02*
Y157694D01*
X198783Y146132D02*
Y146599D01*
Y146742D02*
Y146922D01*
Y147065D02*
Y147532D01*
Y147712D02*
Y148107D01*
Y148250D02*
Y148538D01*
Y148645D02*
Y148933D01*
Y149076D02*
Y149292D01*
Y149471D02*
Y149615D01*
Y149758D02*
Y149974D01*
Y150117D02*
Y150297D01*
Y150441D02*
Y150620D01*
Y150800D02*
Y151338D01*
Y151482D02*
Y152021D01*
Y152164D02*
Y152344D01*
Y152559D02*
Y152775D01*
Y152918D02*
Y153600D01*
Y153744D02*
Y153923D01*
Y154067D02*
Y154211D01*
Y154390D02*
Y154570D01*
Y154749D02*
Y154929D01*
Y155072D02*
Y155288D01*
Y155396D02*
Y155934D01*
Y156114D02*
Y156545D01*
Y156652D02*
Y156868D01*
Y157011D02*
Y157370D01*
Y157550D02*
Y157694D01*
X198819Y158448D02*
Y158663D01*
Y157514D02*
Y157694D01*
Y157837D02*
Y158017D01*
Y158196D02*
Y158412D01*
Y150117D02*
Y150297D01*
Y149112D02*
Y149256D01*
Y149435D02*
Y149615D01*
Y149758D02*
Y149974D01*
Y152164D02*
Y152272D01*
Y150441D02*
Y150620D01*
Y150836D02*
Y151338D01*
Y151482D02*
Y152021D01*
Y153744D02*
Y153923D01*
Y152559D02*
Y152775D01*
Y152954D02*
Y153170D01*
Y153205D02*
Y153600D01*
Y155072D02*
Y155288D01*
Y154067D02*
Y154247D01*
Y154426D02*
Y154534D01*
Y154749D02*
Y154929D01*
Y157011D02*
Y157370D01*
Y155396D02*
Y155934D01*
Y156114D02*
Y156545D01*
Y156688D02*
Y156832D01*
Y158807D02*
Y161320D01*
X198855Y154067D02*
Y154247D01*
Y154749D02*
Y154929D01*
Y155072D02*
Y155288D01*
Y155396D02*
Y155934D01*
Y156365D02*
Y156545D01*
Y157011D02*
Y157155D01*
Y157514D02*
Y157694D01*
Y157837D02*
Y158053D01*
Y158448D02*
Y158663D01*
Y158807D02*
Y161320D01*
Y147353D02*
Y147568D01*
Y147927D02*
Y148107D01*
Y148394D02*
Y148538D01*
Y148645D02*
Y148968D01*
Y149399D02*
Y149615D01*
Y149758D02*
Y149974D01*
Y150117D02*
Y150297D01*
Y150441D02*
Y150656D01*
Y151015D02*
Y151123D01*
Y151482D02*
Y152021D01*
Y152523D02*
Y152810D01*
Y153205D02*
Y153385D01*
Y153744D02*
Y153923D01*
X198927Y158412D02*
Y158663D01*
Y157011D02*
Y157155D01*
Y157442D02*
Y157694D01*
Y157837D02*
Y158125D01*
X198891Y155072D02*
Y155288D01*
Y154067D02*
Y154283D01*
Y154570D02*
Y154606D01*
Y154749D02*
Y154929D01*
Y152451D02*
Y152846D01*
Y150117D02*
Y150297D01*
Y148394D02*
Y148538D01*
Y150441D02*
Y150692D01*
Y151015D02*
Y151123D01*
Y151446D02*
Y152021D01*
Y140135D02*
Y141715D01*
Y148645D02*
Y149004D01*
Y149399D02*
Y149615D01*
Y149758D02*
Y149974D01*
Y157478D02*
Y157694D01*
Y155396D02*
Y155934D01*
Y156365D02*
Y156545D01*
Y157011D02*
Y157155D01*
Y158807D02*
Y161320D01*
Y153708D02*
Y153923D01*
Y157837D02*
Y158089D01*
Y158448D02*
Y158663D01*
Y153205D02*
Y153385D01*
X198927Y151015D02*
Y151123D01*
Y151410D02*
Y152021D01*
Y152380D02*
Y152882D01*
Y153170D02*
Y153385D01*
Y141859D02*
Y142039D01*
Y143475D02*
Y143654D01*
Y143834D02*
Y143941D01*
Y144085D02*
Y144301D01*
Y154749D02*
Y154929D01*
Y153672D02*
Y153923D01*
Y154067D02*
Y154354D01*
Y154498D02*
Y154606D01*
Y144767D02*
Y145055D01*
Y145234D02*
Y145306D01*
Y145450D02*
Y145988D01*
Y146419D02*
Y146599D01*
Y146742D02*
Y147065D01*
Y147353D02*
Y147676D01*
Y147927D02*
Y148179D01*
Y148394D02*
Y148538D01*
Y148645D02*
Y149076D01*
Y149328D02*
Y149615D01*
Y149758D02*
Y149974D01*
Y150117D02*
Y150297D01*
Y150441D02*
Y150764D01*
Y156832D02*
Y156868D01*
Y155072D02*
Y155288D01*
Y155396D02*
Y155934D01*
Y156365D02*
Y156616D01*
Y158807D02*
Y161320D01*
X198962Y140135D02*
Y145306D01*
Y145450D02*
Y154570D01*
Y154713D02*
Y161320D01*
X198998Y154713D02*
Y161320D01*
Y140135D02*
Y145270D01*
Y145450D02*
Y154570D01*
X199034Y140135D02*
Y144983D01*
Y145055D02*
Y145234D01*
Y145414D02*
Y154283D01*
Y154354D02*
Y154534D01*
Y154713D02*
Y161320D01*
X198639Y140135D02*
Y141715D01*
X198891Y141859D02*
Y142002D01*
Y142182D02*
Y142362D01*
Y142505D02*
Y142721D01*
X198783Y140135D02*
Y141715D01*
Y141859D02*
Y141967D01*
Y142218D02*
Y142362D01*
Y142505D02*
Y142685D01*
Y142828D02*
Y143008D01*
Y143152D02*
Y143331D01*
Y143475D02*
Y143546D01*
Y143726D02*
Y143941D01*
Y144085D02*
Y144301D01*
Y144444D02*
Y144624D01*
Y144767D02*
Y144947D01*
Y145126D02*
Y145270D01*
Y145450D02*
Y145988D01*
X198675Y140135D02*
Y141715D01*
Y141859D02*
Y141931D01*
Y142074D02*
Y142146D01*
Y142254D02*
Y142362D01*
Y142505D02*
Y142721D01*
Y143152D02*
Y143331D01*
Y143618D02*
Y143941D01*
Y144085D02*
Y144301D01*
Y144444D02*
Y144624D01*
Y144767D02*
Y144947D01*
Y145090D02*
Y145306D01*
Y145450D02*
Y145988D01*
Y146132D02*
Y146599D01*
X198639Y142074D02*
Y142146D01*
Y142290D02*
Y142362D01*
Y142505D02*
Y142757D01*
Y143152D02*
Y143331D01*
Y143618D02*
Y143941D01*
Y144085D02*
Y144301D01*
Y144444D02*
Y144624D01*
Y144767D02*
Y144947D01*
Y145090D02*
Y145306D01*
Y145450D02*
Y145988D01*
Y146132D02*
Y146599D01*
Y146742D02*
Y146922D01*
Y147389D02*
Y147532D01*
X197311Y148897D02*
Y149328D01*
X198747Y146742D02*
Y146922D01*
Y147029D02*
Y147532D01*
Y147676D02*
Y148107D01*
Y148250D02*
Y148538D01*
Y148645D02*
Y148933D01*
Y149076D02*
Y149328D01*
X198711Y141859D02*
Y141967D01*
Y142074D02*
Y142110D01*
Y142254D02*
Y142362D01*
Y142505D02*
Y142685D01*
Y142864D02*
Y143008D01*
Y143152D02*
Y143331D01*
Y143654D02*
Y143941D01*
Y144085D02*
Y144301D01*
Y144444D02*
Y144624D01*
Y144767D02*
Y144947D01*
Y145090D02*
Y145306D01*
Y145450D02*
Y145988D01*
Y146132D02*
Y146599D01*
X198747Y141859D02*
Y141967D01*
Y142254D02*
Y142362D01*
Y142505D02*
Y142685D01*
Y142828D02*
Y143008D01*
Y143152D02*
Y143331D01*
Y143475D02*
Y143511D01*
Y143690D02*
Y143941D01*
Y144085D02*
Y144301D01*
Y144444D02*
Y144624D01*
Y144767D02*
Y144947D01*
Y145090D02*
Y145306D01*
Y145450D02*
Y145988D01*
Y146132D02*
Y146599D01*
X198460Y148825D02*
Y149004D01*
X198819Y146742D02*
Y146922D01*
Y147101D02*
Y147317D01*
Y147353D02*
Y147568D01*
Y147748D02*
Y148107D01*
Y148286D02*
Y148538D01*
Y148645D02*
Y148933D01*
Y141859D02*
Y142002D01*
Y142218D02*
Y142362D01*
Y142505D02*
Y142685D01*
Y142828D02*
Y142972D01*
Y143152D02*
Y143331D01*
Y143475D02*
Y143582D01*
Y143726D02*
Y143941D01*
Y144085D02*
Y144301D01*
Y144444D02*
Y144624D01*
Y144767D02*
Y144947D01*
Y145162D02*
Y145234D01*
Y145450D02*
Y145988D01*
Y146132D02*
Y146599D01*
X198855Y140135D02*
Y141715D01*
Y141859D02*
Y142002D01*
Y142218D02*
Y142362D01*
Y142505D02*
Y142685D01*
Y143152D02*
Y143331D01*
Y143475D02*
Y143582D01*
Y143762D02*
Y143941D01*
Y144085D02*
Y144301D01*
Y144444D02*
Y144624D01*
Y144767D02*
Y144983D01*
Y145450D02*
Y145988D01*
Y146419D02*
Y146599D01*
Y146742D02*
Y146958D01*
X198711Y140135D02*
Y141715D01*
X198891Y143475D02*
Y143618D01*
Y143798D02*
Y143941D01*
Y144085D02*
Y144301D01*
X198747Y140135D02*
Y141715D01*
X198891Y144767D02*
Y145019D01*
Y145450D02*
Y145988D01*
Y146419D02*
Y146599D01*
X198819Y140135D02*
Y141715D01*
X198891Y146742D02*
Y146994D01*
Y147353D02*
Y147604D01*
Y147927D02*
Y148143D01*
X198927Y140135D02*
Y141715D01*
X198639Y141859D02*
Y141931D01*
X198927Y142505D02*
Y142757D01*
Y142972D02*
Y143044D01*
X199070Y154677D02*
Y161320D01*
Y140135D02*
Y144983D01*
Y145414D02*
Y154283D01*
X199106Y140135D02*
Y144983D01*
Y145378D02*
Y154283D01*
Y154642D02*
Y161320D01*
X199142Y154606D02*
Y161320D01*
Y140135D02*
Y145019D01*
Y145342D02*
Y154318D01*
X199178Y140135D02*
Y161320D01*
X197311Y146814D02*
Y147819D01*
X198568Y147389D02*
Y147532D01*
X198603Y146383D02*
Y146599D01*
X197383Y140135D02*
Y151590D01*
X197490Y140135D02*
Y161320D01*
X197634Y140135D02*
Y161320D01*
X198460Y147317D02*
Y147604D01*
X198891Y144444D02*
Y144624D01*
X198927Y144444D02*
Y144624D01*
X199214Y140135D02*
Y161320D01*
X199357Y140135D02*
Y161320D01*
X199501Y140135D02*
Y161320D01*
X200650Y140135D02*
Y160423D01*
X198927Y142182D02*
Y142362D01*
X199250Y140135D02*
Y161320D01*
X199286Y140135D02*
Y161320D01*
X199322Y140135D02*
Y161320D01*
X198891Y143152D02*
Y143331D01*
X199393Y140135D02*
Y161320D01*
X199429Y140135D02*
Y161320D01*
X199465Y140135D02*
Y161320D01*
X198927Y143152D02*
Y143331D01*
X199537Y140135D02*
Y161320D01*
X199573Y140135D02*
Y161320D01*
X199609Y140135D02*
Y161320D01*
X199752Y140135D02*
Y161284D01*
X199645Y140135D02*
Y161320D01*
X199681Y140135D02*
Y161284D01*
X199717Y140135D02*
Y161284D01*
X199896Y140135D02*
Y161213D01*
X199788Y140135D02*
Y161248D01*
X199824Y140135D02*
Y161248D01*
X199860Y140135D02*
Y161248D01*
X200040Y140135D02*
Y161141D01*
X199932Y140135D02*
Y161213D01*
X199968Y140135D02*
Y161177D01*
X200004Y140135D02*
Y161177D01*
X200183Y140135D02*
Y161033D01*
X200076Y140135D02*
Y161105D01*
X200112Y140135D02*
Y161105D01*
X200148Y140135D02*
Y161069D01*
X200327Y140135D02*
Y160889D01*
X200219Y140135D02*
Y160997D01*
X200255Y140135D02*
Y160961D01*
X200291Y140135D02*
Y160925D01*
X200471Y140135D02*
Y160746D01*
X200363Y140135D02*
Y160854D01*
X200399Y140135D02*
Y160818D01*
X200435Y140135D02*
Y160782D01*
X200614Y140135D02*
Y160494D01*
X200506Y140135D02*
Y160674D01*
X200542Y140135D02*
Y160638D01*
X200578Y140135D02*
Y160566D01*
D13*
X132676Y57087D02*
X154723D01*
X132676Y44193D02*
Y57087D01*
Y44193D02*
X153640D01*
X154723Y45276D01*
Y57087D01*
X81889Y99410D02*
X86613D01*
X81889Y97441D02*
X86613D01*
X23900Y70079D02*
X24800D01*
X44373D02*
Y83465D01*
X23900D02*
X44373D01*
X23900Y70079D02*
Y83465D01*
X24800Y70079D02*
X44373D01*
X23900Y133993D02*
X24800D01*
X44373D02*
Y147379D01*
X23900D02*
X44373D01*
X23900Y133993D02*
Y147379D01*
X24800Y133993D02*
X44373D01*
X184644Y93307D02*
X189369D01*
X184644Y95276D02*
X189369D01*
X191633Y39665D02*
Y82185D01*
X224704Y39665D02*
Y82185D01*
X191633Y39665D02*
X224704D01*
X191633Y82185D02*
X224704D01*
X191633Y86221D02*
Y128740D01*
X224704Y86221D02*
Y128740D01*
X191633Y86221D02*
X224704D01*
X191633Y128740D02*
X224704D01*
X23424Y120866D02*
X29723D01*
Y133465D01*
X23424D02*
X29723D01*
X23424Y120866D02*
Y133465D01*
X174310Y104776D02*
X178247D01*
X166888Y112256D02*
X173187D01*
X166888Y99658D02*
Y112256D01*
Y99658D02*
X173187D01*
Y112256D01*
X149605Y116811D02*
Y123110D01*
Y116811D02*
X162204D01*
Y123110D01*
X149605D02*
X162204D01*
X157085Y124166D02*
Y128103D01*
X138648Y112256D02*
X144947D01*
X138648Y99658D02*
Y112256D01*
Y99658D02*
X144947D01*
Y112256D01*
X133857Y104776D02*
X137794D01*
X31692Y149213D02*
Y153937D01*
X29723Y149213D02*
Y153937D01*
X45471Y121653D02*
Y134252D01*
X39172Y121653D02*
X45471D01*
X39172D02*
Y134252D01*
X45471D01*
X29723Y56693D02*
Y69291D01*
X23424Y56693D02*
X29723D01*
X23424D02*
Y69291D01*
X29723D01*
X31101Y63976D02*
X35826D01*
X31101Y62008D02*
X35826D01*
X87628Y101675D02*
Y113190D01*
Y101675D02*
X90472Y98830D01*
X109281D01*
Y113190D01*
X87628D02*
X109281D01*
X109841Y97148D02*
X114566D01*
X109841Y99116D02*
X114566D01*
X116239Y94587D02*
X122538D01*
X116239Y96949D02*
X122538D01*
X123719Y103839D02*
Y105020D01*
X123129Y104429D02*
X124310D01*
X149605Y88583D02*
X162204D01*
X149605D02*
Y94882D01*
X162204D01*
Y88583D02*
Y94882D01*
X154723Y83221D02*
Y87158D01*
X126180Y44587D02*
Y49311D01*
X128148Y44587D02*
Y49311D01*
X184251Y57284D02*
Y63189D01*
X190550Y57284D02*
Y63189D01*
X23818Y11614D02*
Y15551D01*
X18700Y3937D02*
X31298D01*
X18700D02*
Y10236D01*
X31298D01*
Y3937D02*
Y10236D01*
X75196Y120079D02*
X79133D01*
X75196Y127953D02*
X79133D01*
X75196Y120079D02*
Y127953D01*
X79133Y120079D02*
Y127953D01*
X75589Y111417D02*
X79526D01*
X75589Y103543D02*
X79526D01*
Y111417D01*
X75589Y103543D02*
Y111417D01*
X67431Y106005D02*
X71368D01*
X69399Y104037D02*
Y107974D01*
X132676Y44193D02*
Y57087D01*
X154723D01*
Y45276D02*
Y57087D01*
X153640Y44193D02*
X154723Y45276D01*
X132676Y44193D02*
X153640D01*
X143700Y48720D02*
Y52658D01*
X141731Y50689D02*
X145668D01*
X73723Y198031D02*
Y201969D01*
X71755Y200000D02*
X75692D01*
X167755D02*
X171692D01*
X169723Y198031D02*
Y201969D01*
X81495Y92913D02*
X87007D01*
Y103937D01*
X81495D02*
X87007D01*
X81495Y92913D02*
Y103937D01*
X84251Y97244D02*
Y99606D01*
X83070Y98425D02*
X85432D01*
X23900Y70079D02*
X24800D01*
X44373D01*
X23900D02*
Y83465D01*
X44373D01*
Y70079D02*
Y83465D01*
X32168Y76772D02*
X36105D01*
X34137Y74803D02*
Y78740D01*
X23900Y133993D02*
X24800D01*
X44373D01*
X23900D02*
Y147379D01*
X44373D01*
Y133993D02*
Y147379D01*
X32168Y140686D02*
X36105D01*
X34137Y138717D02*
Y142654D01*
X184251Y99803D02*
X189763D01*
X184251Y88779D02*
Y99803D01*
Y88779D02*
X189763D01*
Y99803D01*
X187007Y93110D02*
Y95472D01*
X185826Y94291D02*
X188188D01*
X191633Y82185D02*
X224704D01*
X191633Y39665D02*
Y82185D01*
Y39665D02*
X224704D01*
Y82185D01*
X208168Y60138D02*
Y64075D01*
X206200Y62106D02*
X210137D01*
X191633Y128740D02*
X224704D01*
X191633Y86221D02*
Y128740D01*
Y86221D02*
X224704D01*
Y128740D01*
X208168Y106693D02*
Y110630D01*
X206200Y108661D02*
X210137D01*
X26574Y125984D02*
Y128347D01*
X25392Y127165D02*
X27755D01*
X24605Y121653D02*
X28542D01*
Y132677D01*
X24605D02*
X28542D01*
X24605Y121653D02*
Y132677D01*
X173522Y100445D02*
X179034D01*
Y111469D01*
X173522D02*
X179034D01*
X173522Y100445D02*
Y111469D01*
X176278Y104776D02*
Y107138D01*
X175097Y105957D02*
X177459D01*
X170037Y104776D02*
Y107138D01*
X168856Y105957D02*
X171219D01*
X168069Y111469D02*
X172006D01*
X168069Y100445D02*
Y111469D01*
Y100445D02*
X172006D01*
Y111469D01*
X154723Y119960D02*
X157085D01*
X155904Y118779D02*
Y121142D01*
X150392Y117992D02*
Y121929D01*
Y117992D02*
X161416D01*
Y121929D01*
X150392D02*
X161416D01*
Y123378D02*
Y128890D01*
X150392D02*
X161416D01*
X150392Y123378D02*
Y128890D01*
Y123378D02*
X161416D01*
X154723Y126134D02*
X157085D01*
X155904Y124953D02*
Y127315D01*
X141797Y104776D02*
Y107138D01*
X140616Y105957D02*
X142979D01*
X139829Y111469D02*
X143766D01*
X139829Y100445D02*
Y111469D01*
Y100445D02*
X143766D01*
Y111469D01*
X134644Y105957D02*
X137007D01*
X135826Y104776D02*
Y107138D01*
X133070Y100445D02*
Y111469D01*
X138582D01*
Y100445D02*
Y111469D01*
X133070Y100445D02*
X138582D01*
X30707Y150394D02*
Y152756D01*
X29526Y151575D02*
X31889D01*
X25196Y148819D02*
X36219D01*
X25196D02*
Y154331D01*
X36219D01*
Y148819D02*
Y154331D01*
X44290Y122441D02*
Y133465D01*
X40353Y122441D02*
X44290D01*
X40353D02*
Y133465D01*
X44290D01*
X41140Y127953D02*
X43503D01*
X42322Y126772D02*
Y129134D01*
X28542Y57480D02*
Y68504D01*
X24605Y57480D02*
X28542D01*
X24605D02*
Y68504D01*
X28542D01*
X25392Y62992D02*
X27755D01*
X26574Y61811D02*
Y64173D01*
X32282Y62992D02*
X34644D01*
X33463Y61811D02*
Y64173D01*
X36219Y57480D02*
Y68504D01*
X30707Y57480D02*
X36219D01*
X30707D02*
Y68504D01*
X36219D01*
X87628Y98830D02*
Y113190D01*
X109281D01*
Y98830D02*
Y113190D01*
X87628Y98830D02*
X109281D01*
X98454Y104037D02*
Y107974D01*
X96486Y106005D02*
X100423D01*
X111022Y98132D02*
X113385D01*
X112204Y96951D02*
Y99313D01*
X109448Y92620D02*
Y103644D01*
X114959D01*
Y92620D02*
Y103644D01*
X109448Y92620D02*
X114959D01*
X115845Y103642D02*
X122932D01*
X115845Y87894D02*
Y103642D01*
Y87894D02*
X122932D01*
Y103642D01*
X119389Y94587D02*
Y96949D01*
X118207Y95768D02*
X120570D01*
X150392Y89764D02*
X161416D01*
X150392D02*
Y93701D01*
X161416D01*
Y89764D02*
Y93701D01*
X155904Y90551D02*
Y92913D01*
X154723Y91732D02*
X157085D01*
X150392Y82433D02*
Y87945D01*
Y82433D02*
X161416D01*
Y87945D01*
X150392D02*
X161416D01*
X154723Y85189D02*
X157085D01*
X155904Y84008D02*
Y86370D01*
X127164Y45768D02*
Y48130D01*
X125983Y46949D02*
X128345D01*
X121652Y49705D02*
X132676D01*
Y44193D02*
Y49705D01*
X121652Y44193D02*
X132676D01*
X121652D02*
Y49705D01*
X183857Y68110D02*
X190944D01*
X183857Y52362D02*
Y68110D01*
Y52362D02*
X190944D01*
Y68110D01*
X187400Y58268D02*
Y62205D01*
X185432Y60236D02*
X189369D01*
X179723Y8032D02*
Y11969D01*
X177755Y10000D02*
X181692D01*
X99723Y8032D02*
Y11969D01*
X97755Y10000D02*
X101692D01*
X19487Y10827D02*
Y16339D01*
Y10827D02*
X30511D01*
Y16339D01*
X19487D02*
X30511D01*
X23818Y13583D02*
X26180D01*
X24999Y12402D02*
Y14764D01*
X19487Y5118D02*
X30511D01*
X19487D02*
Y9055D01*
X30511D01*
Y5118D02*
Y9055D01*
X24999Y5906D02*
Y8268D01*
X23818Y7087D02*
X26180D01*
X93700Y124409D02*
Y126772D01*
X92519Y125591D02*
X94881D01*
X91731Y131102D02*
X95668D01*
Y120079D02*
Y131102D01*
X91731Y120079D02*
X95668D01*
X91731D02*
Y131102D01*
X77164Y122835D02*
Y125197D01*
X75983Y124016D02*
X78345D01*
X75196Y118504D02*
X79133D01*
X75196D02*
Y129528D01*
X79133D01*
Y118504D02*
Y129528D01*
X77558Y106299D02*
Y108661D01*
X76377Y107480D02*
X78739D01*
X75589Y112992D02*
X79526D01*
Y101969D02*
Y112992D01*
X75589Y101969D02*
X79526D01*
X75589D02*
Y112992D01*
X154723Y45276D02*
Y57087D01*
X153640Y44193D02*
X154723Y45276D01*
X132676Y44193D02*
X153640D01*
X132676D02*
Y57087D01*
X154723D01*
X81495Y92913D02*
X87007D01*
X81495D02*
Y103937D01*
X87007D01*
Y92913D02*
Y103937D01*
X23900Y70079D02*
X24800D01*
X44373D01*
Y83465D01*
X23900Y70079D02*
Y83465D01*
X44373D01*
X23900Y133993D02*
X24800D01*
X44373D01*
Y147379D01*
X23900Y133993D02*
Y147379D01*
X44373D01*
X184251Y99803D02*
X189763D01*
Y88779D02*
Y99803D01*
X184251Y88779D02*
X189763D01*
X184251D02*
Y99803D01*
X191633Y82185D02*
X224704D01*
Y39665D02*
Y82185D01*
X191633Y39665D02*
X224704D01*
X191633D02*
Y82185D01*
Y128740D02*
X224704D01*
Y86221D02*
Y128740D01*
X191633Y86221D02*
X224704D01*
X191633D02*
Y128740D01*
X24605Y121653D02*
X28542D01*
Y132677D01*
X24605D02*
X28542D01*
X24605Y121653D02*
Y132677D01*
X173522Y100445D02*
X179034D01*
X173522D02*
Y111469D01*
X179034D01*
Y100445D02*
Y111469D01*
X168069D02*
X172006D01*
X168069Y100445D02*
Y111469D01*
Y100445D02*
X172006D01*
Y111469D01*
X150392Y117992D02*
Y121929D01*
Y117992D02*
X161416D01*
Y121929D01*
X150392D02*
X161416D01*
Y123378D02*
Y128890D01*
X150392Y123378D02*
X161416D01*
X150392D02*
Y128890D01*
X161416D01*
X139829Y111469D02*
X143766D01*
X139829Y100445D02*
Y111469D01*
Y100445D02*
X143766D01*
Y111469D01*
X138582Y100445D02*
Y111469D01*
X133070D02*
X138582D01*
X133070Y100445D02*
Y111469D01*
Y100445D02*
X138582D01*
X25196Y154331D02*
X36219D01*
X25196Y148819D02*
Y154331D01*
Y148819D02*
X36219D01*
Y154331D01*
X44290Y122441D02*
Y133465D01*
X40353Y122441D02*
X44290D01*
X40353D02*
Y133465D01*
X44290D01*
X28542Y57480D02*
Y68504D01*
X24605Y57480D02*
X28542D01*
X24605D02*
Y68504D01*
X28542D01*
X30707Y57480D02*
Y68504D01*
Y57480D02*
X36219D01*
Y68504D01*
X30707D02*
X36219D01*
X109281Y98830D02*
Y113190D01*
X87628D02*
X109281D01*
X87628Y98830D02*
X109281D01*
X87628D02*
Y113190D01*
X114959Y92620D02*
Y103644D01*
X109448D02*
X114959D01*
X109448Y92620D02*
Y103644D01*
Y92620D02*
X114959D01*
X115845Y103642D02*
X122932D01*
Y87894D02*
Y103642D01*
X115845Y87894D02*
X122932D01*
X115845D02*
Y103642D01*
X150392Y89764D02*
X161416D01*
X150392D02*
Y93701D01*
X161416D01*
Y89764D02*
Y93701D01*
X150392Y82433D02*
Y87945D01*
X161416D01*
Y82433D02*
Y87945D01*
X150392Y82433D02*
X161416D01*
X121652Y44193D02*
X132676D01*
Y49705D01*
X121652D02*
X132676D01*
X121652Y44193D02*
Y49705D01*
X190944Y52362D02*
Y68110D01*
X183857Y52362D02*
X190944D01*
X183857Y68110D02*
X190944D01*
X183857Y52362D02*
Y68110D01*
X19487Y10827D02*
Y16339D01*
X30511D01*
Y10827D02*
Y16339D01*
X19487Y10827D02*
X30511D01*
X19487Y5118D02*
X30511D01*
X19487D02*
Y9055D01*
X30511D01*
Y5118D02*
Y9055D01*
X28148Y123228D02*
X26180D01*
Y124212D01*
X26509Y124540D01*
X27165D01*
X27492Y124212D01*
Y123228D01*
Y123884D02*
X28148Y124540D01*
Y126508D02*
Y125196D01*
X26836Y126508D01*
X26509D01*
X26180Y126180D01*
Y125524D01*
X26509Y125196D01*
X168463Y109894D02*
X170431D01*
Y108910D01*
X170103Y108582D01*
X169447D01*
X169119Y108910D01*
Y109894D01*
Y109238D02*
X168463Y108582D01*
X170431Y106614D02*
Y107926D01*
X169447D01*
X169774Y107270D01*
Y106942D01*
X169447Y106614D01*
X168791D01*
X168463Y106942D01*
Y107598D01*
X168791Y107926D01*
X151967Y118386D02*
Y120353D01*
X152951D01*
X153279Y120026D01*
Y119370D01*
X152951Y119042D01*
X151967D01*
X152623D02*
X153279Y118386D01*
X155247Y120353D02*
X154591Y120026D01*
X153935Y119370D01*
Y118714D01*
X154263Y118386D01*
X154919D01*
X155247Y118714D01*
Y119042D01*
X154919Y119370D01*
X153935D01*
X140223Y109894D02*
X142191D01*
Y108910D01*
X141863Y108582D01*
X141207D01*
X140879Y108910D01*
Y109894D01*
Y109238D02*
X140223Y108582D01*
X141863Y107926D02*
X142191Y107598D01*
Y106942D01*
X141863Y106614D01*
X141535D01*
X141207Y106942D01*
X140879Y106614D01*
X140551D01*
X140223Y106942D01*
Y107598D01*
X140551Y107926D01*
X140879D01*
X141207Y107598D01*
X141535Y107926D01*
X141863D01*
X141207Y107598D02*
Y106942D01*
X40747Y131890D02*
X42715D01*
Y130906D01*
X42387Y130578D01*
X41731D01*
X41403Y130906D01*
Y131890D01*
Y131234D02*
X40747Y130578D01*
Y129922D02*
Y129266D01*
Y129594D01*
X42715D01*
X42387Y129922D01*
X24999Y66929D02*
X26967D01*
Y65945D01*
X26639Y65617D01*
X25983D01*
X25655Y65945D01*
Y66929D01*
Y66273D02*
X24999Y65617D01*
X26639Y64961D02*
X26967Y64633D01*
Y63977D01*
X26639Y63649D01*
X26311D01*
X25983Y63977D01*
Y64305D01*
Y63977D01*
X25655Y63649D01*
X25327D01*
X24999Y63977D01*
Y64633D01*
X25327Y64961D01*
X159841Y93307D02*
Y91339D01*
X158857D01*
X158529Y91667D01*
Y92323D01*
X158857Y92651D01*
X159841D01*
X159185D02*
X158529Y93307D01*
X157873Y91339D02*
X156562D01*
Y91667D01*
X157873Y92979D01*
Y93307D01*
X28936Y8661D02*
Y6694D01*
X27952D01*
X27624Y7022D01*
Y7677D01*
X27952Y8005D01*
X28936D01*
X28280D02*
X27624Y8661D01*
X25984D02*
Y6694D01*
X26968Y7677D01*
X25656D01*
X91731Y131102D02*
X95668D01*
Y120079D02*
Y131102D01*
X91731Y120079D02*
X95668D01*
X91731D02*
Y131102D01*
X75196Y118504D02*
X79133D01*
X75196D02*
Y129528D01*
X79133D01*
Y118504D02*
Y129528D01*
X75589Y112992D02*
X79526D01*
Y101969D02*
Y112992D01*
X75589Y101969D02*
X79526D01*
X75589D02*
Y112992D01*
X95274Y129528D02*
X93306D01*
Y128544D01*
X93634Y128216D01*
X94290D01*
X94618Y128544D01*
Y129528D01*
Y128872D02*
X95274Y128216D01*
Y127560D02*
Y126904D01*
Y127232D01*
X93306D01*
X93634Y127560D01*
X95274Y125920D02*
Y125264D01*
Y125592D01*
X93306D01*
X93634Y125920D01*
X75589Y120079D02*
X77557D01*
Y121063D01*
X77229Y121391D01*
X76573D01*
X76245Y121063D01*
Y120079D01*
Y120735D02*
X75589Y121391D01*
X75917Y122047D02*
X75589Y122375D01*
Y123030D01*
X75917Y123359D01*
X77229D01*
X77557Y123030D01*
Y122375D01*
X77229Y122047D01*
X76901D01*
X76573Y122375D01*
Y123359D01*
X79133Y111417D02*
X77165D01*
Y110433D01*
X77493Y110105D01*
X78149D01*
X78477Y110433D01*
Y111417D01*
Y110761D02*
X79133Y110105D01*
Y109450D02*
Y108793D01*
Y109122D01*
X77165D01*
X77493Y109450D01*
Y107810D02*
X77165Y107482D01*
Y106826D01*
X77493Y106498D01*
X78805D01*
X79133Y106826D01*
Y107482D01*
X78805Y107810D01*
X77493D01*
D14*
X16733Y127627D02*
X20013D01*
X20669Y128283D01*
Y129595D01*
X20013Y130251D01*
X16733D01*
X17389Y134187D02*
X16733Y133531D01*
Y132219D01*
X17389Y131563D01*
X18045D01*
X18701Y132219D01*
Y133531D01*
X19357Y134187D01*
X20013D01*
X20669Y133531D01*
Y132219D01*
X20013Y131563D01*
X16733Y138122D02*
Y135498D01*
X20669D01*
Y138122D01*
X18701Y135498D02*
Y136810D01*
X20669Y139434D02*
X16733D01*
Y141402D01*
X17389Y142058D01*
X18701D01*
X19357Y141402D01*
Y139434D01*
Y140746D02*
X20669Y142058D01*
X19684Y67588D02*
X15749D01*
Y69556D01*
X16405Y70212D01*
X17717D01*
X18372Y69556D01*
Y67588D01*
Y68900D02*
X19684Y70212D01*
X15749Y74148D02*
Y71524D01*
X19684D01*
Y74148D01*
X17717Y71524D02*
Y72836D01*
X16405Y78084D02*
X15749Y77428D01*
Y76116D01*
X16405Y75460D01*
X17061D01*
X17717Y76116D01*
Y77428D01*
X18372Y78084D01*
X19028D01*
X19684Y77428D01*
Y76116D01*
X19028Y75460D01*
X15749Y82019D02*
Y79396D01*
X19684D01*
Y82019D01*
X17717Y79396D02*
Y80707D01*
X15749Y83331D02*
Y85955D01*
Y84643D01*
X19684D01*
X70137Y115655D02*
Y117654D01*
Y116654D01*
X65138D01*
X64139Y117654D01*
Y118654D01*
X65138Y119653D01*
X70137Y109657D02*
Y113655D01*
X67138D01*
X68137Y111656D01*
Y110656D01*
X67138Y109657D01*
X65138D01*
X64139Y110656D01*
Y112656D01*
X65138Y113655D01*
X52147Y202077D02*
X50148D01*
X51147D01*
Y197078D01*
X50148Y196079D01*
X49148D01*
X48148Y197078D01*
X58145Y196079D02*
X54146D01*
X58145Y200077D01*
Y201077D01*
X57146Y202077D01*
X55146D01*
X54146Y201077D01*
X158147Y202077D02*
X156148D01*
X157147D01*
Y197078D01*
X156148Y196079D01*
X155148D01*
X154148Y197078D01*
X163145Y196079D02*
Y202077D01*
X160146Y199078D01*
X164145D01*
X37012Y76679D02*
X38012Y75679D01*
X40011D01*
X41011Y76679D01*
Y77678D01*
X40011Y78678D01*
X38012D01*
X37012Y79678D01*
Y80677D01*
X38012Y81677D01*
X40011D01*
X41011Y80677D01*
X35013Y75679D02*
Y81677D01*
X33013Y79678D01*
X31014Y81677D01*
Y75679D01*
X25016Y81677D02*
X29015D01*
X25016Y77678D01*
Y76679D01*
X26015Y75679D01*
X28015D01*
X29015Y76679D01*
X37012Y140593D02*
X38012Y139593D01*
X40011D01*
X41011Y140593D01*
Y141593D01*
X40011Y142592D01*
X38012D01*
X37012Y143592D01*
Y144592D01*
X38012Y145591D01*
X40011D01*
X41011Y144592D01*
X35013Y139593D02*
Y145591D01*
X33013Y143592D01*
X31014Y145591D01*
Y139593D01*
X29015Y145591D02*
X27015D01*
X28015D01*
Y139593D01*
X29015Y140593D01*
X211239Y67222D02*
Y69222D01*
Y68222D01*
X206240D01*
X205241Y69222D01*
Y70221D01*
X206240Y71221D01*
X211239Y61224D02*
X210239Y63224D01*
X208240Y65223D01*
X206240D01*
X205241Y64223D01*
Y62224D01*
X206240Y61224D01*
X207240D01*
X208240Y62224D01*
Y65223D01*
X211239Y113777D02*
Y115777D01*
Y114777D01*
X206240D01*
X205241Y115777D01*
Y116776D01*
X206240Y117776D01*
X211239Y111778D02*
Y107779D01*
X210239D01*
X206240Y111778D01*
X205241D01*
X175940Y11673D02*
X173941D01*
X174940D01*
Y6674D01*
X173941Y5675D01*
X172941D01*
X171941Y6674D01*
X177939Y10673D02*
X178939Y11673D01*
X180938D01*
X181938Y10673D01*
Y9673D01*
X180938Y8674D01*
X179938D01*
X180938D01*
X181938Y7674D01*
Y6674D01*
X180938Y5675D01*
X178939D01*
X177939Y6674D01*
X88147Y12077D02*
X86148D01*
X87147D01*
Y7078D01*
X86148Y6079D01*
X85148D01*
X84148Y7078D01*
X90146Y6079D02*
X92146D01*
X91146D01*
Y12077D01*
X90146Y11077D01*
D15*
X140867Y44075D02*
X145458D01*
X146377Y44993D01*
Y46830D01*
X145458Y47748D01*
X140867D01*
X146377Y53258D02*
Y49585D01*
X142703Y53258D01*
X141785D01*
X140867Y52340D01*
Y50503D01*
X141785Y49585D01*
X96775Y99696D02*
X101367D01*
X102285Y100615D01*
Y102451D01*
X101367Y103370D01*
X96775D01*
X102285Y105206D02*
Y107043D01*
Y106125D01*
X96775D01*
X97693Y105206D01*
D16*
X84120Y95341D02*
X83661Y94881D01*
Y93963D01*
X84120Y93504D01*
X85957D01*
X86416Y93963D01*
Y94881D01*
X85957Y95341D01*
X86416Y97636D02*
X83661D01*
X85039Y96259D01*
Y98096D01*
X184841Y99213D02*
X187596D01*
Y97835D01*
X187137Y97376D01*
X186219D01*
X185760Y97835D01*
Y99213D01*
Y98294D02*
X184841Y97376D01*
Y96458D02*
Y95539D01*
Y95998D01*
X187596D01*
X187137Y96458D01*
Y94162D02*
X187596Y93703D01*
Y92784D01*
X187137Y92325D01*
X186678D01*
X186219Y92784D01*
Y93243D01*
Y92784D01*
X185760Y92325D01*
X185301D01*
X184841Y92784D01*
Y93703D01*
X185301Y94162D01*
X175689Y101036D02*
X178444D01*
Y102413D01*
X177984Y102872D01*
X176148D01*
X175689Y102413D01*
Y101036D01*
X178444Y105627D02*
Y103791D01*
X176607Y105627D01*
X176148D01*
X175689Y105168D01*
Y104250D01*
X176148Y103791D01*
X160826Y125545D02*
Y128299D01*
X159448D01*
X158989Y127840D01*
Y126004D01*
X159448Y125545D01*
X160826D01*
X158071Y126004D02*
X157611Y125545D01*
X156693D01*
X156234Y126004D01*
Y126463D01*
X156693Y126922D01*
X157152D01*
X156693D01*
X156234Y127381D01*
Y127840D01*
X156693Y128299D01*
X157611D01*
X158071Y127840D01*
X135236Y101036D02*
X137991D01*
Y102413D01*
X137532Y102872D01*
X135695D01*
X135236Y102413D01*
Y101036D01*
Y105627D02*
Y103791D01*
X136613D01*
X136154Y104709D01*
Y105168D01*
X136613Y105627D01*
X137532D01*
X137991Y105168D01*
Y104250D01*
X137532Y103791D01*
X33792Y151444D02*
X34251Y150985D01*
X35170D01*
X35629Y151444D01*
Y153281D01*
X35170Y153740D01*
X34251D01*
X33792Y153281D01*
X32874Y153740D02*
X31955D01*
X32414D01*
Y150985D01*
X32874Y151444D01*
X33594Y66077D02*
X34053Y66536D01*
Y67454D01*
X33594Y67913D01*
X31757D01*
X31298Y67454D01*
Y66536D01*
X31757Y66077D01*
X31298Y63322D02*
Y65158D01*
X33135Y63322D01*
X33594D01*
X34053Y63781D01*
Y64699D01*
X33594Y65158D01*
X112073Y95047D02*
X111614Y94588D01*
Y93670D01*
X112073Y93211D01*
X113910D01*
X114369Y93670D01*
Y94588D01*
X113910Y95047D01*
X111614Y97802D02*
X112073Y96884D01*
X112991Y95966D01*
X113910D01*
X114369Y96425D01*
Y97343D01*
X113910Y97802D01*
X113451D01*
X112991Y97343D01*
Y95966D01*
X119519Y98852D02*
X119978Y99312D01*
Y100230D01*
X119519Y100689D01*
X117682D01*
X117223Y100230D01*
Y99312D01*
X117682Y98852D01*
X119519Y97934D02*
X119978Y97475D01*
Y96556D01*
X119519Y96097D01*
X119060D01*
X118601Y96556D01*
Y97016D01*
Y96556D01*
X118141Y96097D01*
X117682D01*
X117223Y96556D01*
Y97475D01*
X117682Y97934D01*
X150983Y85779D02*
Y83024D01*
X152360D01*
X152820Y83483D01*
Y85320D01*
X152360Y85779D01*
X150983D01*
X155116Y83024D02*
Y85779D01*
X153738Y84401D01*
X155575D01*
X124080Y47079D02*
X123620Y47539D01*
X122702D01*
X122243Y47079D01*
Y45243D01*
X122702Y44783D01*
X123620D01*
X124080Y45243D01*
X126835Y47539D02*
X124998D01*
Y46161D01*
X125916Y46620D01*
X126375D01*
X126835Y46161D01*
Y45243D01*
X126375Y44783D01*
X125457D01*
X124998Y45243D01*
X184841Y65551D02*
X187990D01*
Y63977D01*
X187465Y63452D01*
X186416D01*
X185891Y63977D01*
Y65551D01*
Y64502D02*
X184841Y63452D01*
Y62403D02*
Y61353D01*
Y61878D01*
X187990D01*
X187465Y62403D01*
X184841Y57680D02*
Y59779D01*
X186940Y57680D01*
X187465D01*
X187990Y58205D01*
Y59254D01*
X187465Y59779D01*
X20077Y14172D02*
Y11417D01*
X21455D01*
X21914Y11876D01*
Y13713D01*
X21455Y14172D01*
X20077D01*
X22832Y11417D02*
X23751D01*
X23292D01*
Y14172D01*
X22832Y13713D01*
M02*
