G04*
G04 #@! TF.GenerationSoftware,Altium Limited,Altium Designer,22.7.1 (60)*
G04*
G04 Layer_Color=2752767*
%FSLAX25Y25*%
%MOIN*%
G70*
G04*
G04 #@! TF.SameCoordinates,FBDB1D81-1F97-4559-A255-E9B88A778833*
G04*
G04*
G04 #@! TF.FilePolarity,Positive*
G04*
G01*
G75*
%ADD11C,0.00984*%
%ADD13C,0.00394*%
%ADD14C,0.01000*%
%ADD15C,0.00866*%
%ADD16C,0.00591*%
%ADD44C,0.00200*%
%ADD45C,0.00267*%
D11*
X63494Y129234D02*
X75305D01*
X63494Y83880D02*
Y129234D01*
Y83880D02*
X75305D01*
Y129234D01*
X20495Y194095D02*
Y205906D01*
Y194095D02*
X126873D01*
Y205906D01*
X20495D02*
X126873D01*
X126495D02*
X211219D01*
Y194095D02*
Y205906D01*
X126495Y194095D02*
X211219D01*
X126495D02*
Y205906D01*
X146495Y4095D02*
Y15905D01*
Y4095D02*
X211534D01*
Y15905D01*
X146495D02*
X211534D01*
X56495Y4095D02*
Y15905D01*
Y4095D02*
X141219D01*
Y15905D01*
X56495D02*
X141219D01*
X75305Y83880D02*
Y129234D01*
X63494Y83880D02*
X75305D01*
X63494D02*
Y129234D01*
X75305D01*
X20495Y205906D02*
X126873D01*
Y194095D02*
Y205906D01*
X20495Y194095D02*
X126873D01*
X20495D02*
Y205906D01*
X126495Y194095D02*
Y205906D01*
Y194095D02*
X211219D01*
Y205906D01*
X126495D02*
X211219D01*
X146495Y15905D02*
X211534D01*
Y4095D02*
Y15905D01*
X146495Y4095D02*
X211534D01*
X146495D02*
Y15905D01*
X56495D02*
X141219D01*
Y4095D02*
Y15905D01*
X56495Y4095D02*
X141219D01*
X56495D02*
Y15905D01*
D13*
X75196Y120079D02*
X79133D01*
X75196Y127953D02*
X79133D01*
X75196Y120079D02*
Y127953D01*
X79133Y120079D02*
Y127953D01*
X75589Y111417D02*
X79526D01*
X75589Y103543D02*
X79526D01*
Y111417D01*
X75589Y103543D02*
Y111417D01*
X67431Y106005D02*
X71368D01*
X69399Y104037D02*
Y107974D01*
X132676Y44193D02*
Y57087D01*
X154723D01*
Y45276D02*
Y57087D01*
X153640Y44193D02*
X154723Y45276D01*
X132676Y44193D02*
X153640D01*
X143700Y48720D02*
Y52658D01*
X141731Y50689D02*
X145668D01*
X73723Y198031D02*
Y201969D01*
X71755Y200000D02*
X75692D01*
X167755D02*
X171692D01*
X169723Y198031D02*
Y201969D01*
X81495Y92913D02*
X87007D01*
Y103937D01*
X81495D02*
X87007D01*
X81495Y92913D02*
Y103937D01*
X84251Y97244D02*
Y99606D01*
X83070Y98425D02*
X85432D01*
X23900Y70079D02*
X24800D01*
X44373D01*
X23900D02*
Y83465D01*
X44373D01*
Y70079D02*
Y83465D01*
X32168Y76772D02*
X36105D01*
X34137Y74803D02*
Y78740D01*
X23900Y133993D02*
X24800D01*
X44373D01*
X23900D02*
Y147379D01*
X44373D01*
Y133993D02*
Y147379D01*
X32168Y140686D02*
X36105D01*
X34137Y138717D02*
Y142654D01*
X184251Y99803D02*
X189763D01*
X184251Y88779D02*
Y99803D01*
Y88779D02*
X189763D01*
Y99803D01*
X187007Y93110D02*
Y95472D01*
X185826Y94291D02*
X188188D01*
X191633Y82185D02*
X224704D01*
X191633Y39665D02*
Y82185D01*
Y39665D02*
X224704D01*
Y82185D01*
X208168Y60138D02*
Y64075D01*
X206200Y62106D02*
X210137D01*
X191633Y128740D02*
X224704D01*
X191633Y86221D02*
Y128740D01*
Y86221D02*
X224704D01*
Y128740D01*
X208168Y106693D02*
Y110630D01*
X206200Y108661D02*
X210137D01*
X26574Y125984D02*
Y128347D01*
X25392Y127165D02*
X27755D01*
X24605Y121653D02*
X28542D01*
Y132677D01*
X24605D02*
X28542D01*
X24605Y121653D02*
Y132677D01*
X173522Y100445D02*
X179034D01*
Y111469D01*
X173522D02*
X179034D01*
X173522Y100445D02*
Y111469D01*
X176278Y104776D02*
Y107138D01*
X175097Y105957D02*
X177459D01*
X170037Y104776D02*
Y107138D01*
X168856Y105957D02*
X171219D01*
X168069Y111469D02*
X172006D01*
X168069Y100445D02*
Y111469D01*
Y100445D02*
X172006D01*
Y111469D01*
X154723Y119960D02*
X157085D01*
X155904Y118779D02*
Y121142D01*
X150392Y117992D02*
Y121929D01*
Y117992D02*
X161416D01*
Y121929D01*
X150392D02*
X161416D01*
Y123378D02*
Y128890D01*
X150392D02*
X161416D01*
X150392Y123378D02*
Y128890D01*
Y123378D02*
X161416D01*
X154723Y126134D02*
X157085D01*
X155904Y124953D02*
Y127315D01*
X141797Y104776D02*
Y107138D01*
X140616Y105957D02*
X142979D01*
X139829Y111469D02*
X143766D01*
X139829Y100445D02*
Y111469D01*
Y100445D02*
X143766D01*
Y111469D01*
X134644Y105957D02*
X137007D01*
X135826Y104776D02*
Y107138D01*
X133070Y100445D02*
Y111469D01*
X138582D01*
Y100445D02*
Y111469D01*
X133070Y100445D02*
X138582D01*
X30707Y150394D02*
Y152756D01*
X29526Y151575D02*
X31889D01*
X25196Y148819D02*
X36219D01*
X25196D02*
Y154331D01*
X36219D01*
Y148819D02*
Y154331D01*
X44290Y122441D02*
Y133465D01*
X40353Y122441D02*
X44290D01*
X40353D02*
Y133465D01*
X44290D01*
X41140Y127953D02*
X43503D01*
X42322Y126772D02*
Y129134D01*
X28542Y57480D02*
Y68504D01*
X24605Y57480D02*
X28542D01*
X24605D02*
Y68504D01*
X28542D01*
X25392Y62992D02*
X27755D01*
X26574Y61811D02*
Y64173D01*
X32282Y62992D02*
X34644D01*
X33463Y61811D02*
Y64173D01*
X36219Y57480D02*
Y68504D01*
X30707Y57480D02*
X36219D01*
X30707D02*
Y68504D01*
X36219D01*
X87628Y98830D02*
Y113190D01*
X109281D01*
Y98830D02*
Y113190D01*
X87628Y98830D02*
X109281D01*
X98454Y104037D02*
Y107974D01*
X96486Y106005D02*
X100423D01*
X111022Y98132D02*
X113385D01*
X112204Y96951D02*
Y99313D01*
X109448Y92620D02*
Y103644D01*
X114959D01*
Y92620D02*
Y103644D01*
X109448Y92620D02*
X114959D01*
X115845Y103642D02*
X122932D01*
X115845Y87894D02*
Y103642D01*
Y87894D02*
X122932D01*
Y103642D01*
X119389Y94587D02*
Y96949D01*
X118207Y95768D02*
X120570D01*
X150392Y89764D02*
X161416D01*
X150392D02*
Y93701D01*
X161416D01*
Y89764D02*
Y93701D01*
X155904Y90551D02*
Y92913D01*
X154723Y91732D02*
X157085D01*
X150392Y82433D02*
Y87945D01*
Y82433D02*
X161416D01*
Y87945D01*
X150392D02*
X161416D01*
X154723Y85189D02*
X157085D01*
X155904Y84008D02*
Y86370D01*
X127164Y45768D02*
Y48130D01*
X125983Y46949D02*
X128345D01*
X121652Y49705D02*
X132676D01*
Y44193D02*
Y49705D01*
X121652Y44193D02*
X132676D01*
X121652D02*
Y49705D01*
X183857Y68110D02*
X190944D01*
X183857Y52362D02*
Y68110D01*
Y52362D02*
X190944D01*
Y68110D01*
X187400Y58268D02*
Y62205D01*
X185432Y60236D02*
X189369D01*
X179723Y8032D02*
Y11969D01*
X177755Y10000D02*
X181692D01*
X99723Y8032D02*
Y11969D01*
X97755Y10000D02*
X101692D01*
X19487Y10827D02*
Y16339D01*
Y10827D02*
X30511D01*
Y16339D01*
X19487D02*
X30511D01*
X23818Y13583D02*
X26180D01*
X24999Y12402D02*
Y14764D01*
X19487Y5118D02*
X30511D01*
X19487D02*
Y9055D01*
X30511D01*
Y5118D02*
Y9055D01*
X24999Y5906D02*
Y8268D01*
X23818Y7087D02*
X26180D01*
X93700Y124409D02*
Y126772D01*
X92519Y125591D02*
X94881D01*
X91731Y131102D02*
X95668D01*
Y120079D02*
Y131102D01*
X91731Y120079D02*
X95668D01*
X91731D02*
Y131102D01*
X77164Y122835D02*
Y125197D01*
X75983Y124016D02*
X78345D01*
X75196Y118504D02*
X79133D01*
X75196D02*
Y129528D01*
X79133D01*
Y118504D02*
Y129528D01*
X77558Y106299D02*
Y108661D01*
X76377Y107480D02*
X78739D01*
X75589Y112992D02*
X79526D01*
Y101969D02*
Y112992D01*
X75589Y101969D02*
X79526D01*
X75589D02*
Y112992D01*
X154723Y45276D02*
Y57087D01*
X153640Y44193D02*
X154723Y45276D01*
X132676Y44193D02*
X153640D01*
X132676D02*
Y57087D01*
X154723D01*
X81495Y92913D02*
X87007D01*
X81495D02*
Y103937D01*
X87007D01*
Y92913D02*
Y103937D01*
X23900Y70079D02*
X24800D01*
X44373D01*
Y83465D01*
X23900Y70079D02*
Y83465D01*
X44373D01*
X23900Y133993D02*
X24800D01*
X44373D01*
Y147379D01*
X23900Y133993D02*
Y147379D01*
X44373D01*
X184251Y99803D02*
X189763D01*
Y88779D02*
Y99803D01*
X184251Y88779D02*
X189763D01*
X184251D02*
Y99803D01*
X191633Y82185D02*
X224704D01*
Y39665D02*
Y82185D01*
X191633Y39665D02*
X224704D01*
X191633D02*
Y82185D01*
Y128740D02*
X224704D01*
Y86221D02*
Y128740D01*
X191633Y86221D02*
X224704D01*
X191633D02*
Y128740D01*
X24605Y121653D02*
X28542D01*
Y132677D01*
X24605D02*
X28542D01*
X24605Y121653D02*
Y132677D01*
X173522Y100445D02*
X179034D01*
X173522D02*
Y111469D01*
X179034D01*
Y100445D02*
Y111469D01*
X168069D02*
X172006D01*
X168069Y100445D02*
Y111469D01*
Y100445D02*
X172006D01*
Y111469D01*
X150392Y117992D02*
Y121929D01*
Y117992D02*
X161416D01*
Y121929D01*
X150392D02*
X161416D01*
Y123378D02*
Y128890D01*
X150392Y123378D02*
X161416D01*
X150392D02*
Y128890D01*
X161416D01*
X139829Y111469D02*
X143766D01*
X139829Y100445D02*
Y111469D01*
Y100445D02*
X143766D01*
Y111469D01*
X138582Y100445D02*
Y111469D01*
X133070D02*
X138582D01*
X133070Y100445D02*
Y111469D01*
Y100445D02*
X138582D01*
X25196Y154331D02*
X36219D01*
X25196Y148819D02*
Y154331D01*
Y148819D02*
X36219D01*
Y154331D01*
X44290Y122441D02*
Y133465D01*
X40353Y122441D02*
X44290D01*
X40353D02*
Y133465D01*
X44290D01*
X28542Y57480D02*
Y68504D01*
X24605Y57480D02*
X28542D01*
X24605D02*
Y68504D01*
X28542D01*
X30707Y57480D02*
Y68504D01*
Y57480D02*
X36219D01*
Y68504D01*
X30707D02*
X36219D01*
X109281Y98830D02*
Y113190D01*
X87628D02*
X109281D01*
X87628Y98830D02*
X109281D01*
X87628D02*
Y113190D01*
X114959Y92620D02*
Y103644D01*
X109448D02*
X114959D01*
X109448Y92620D02*
Y103644D01*
Y92620D02*
X114959D01*
X115845Y103642D02*
X122932D01*
Y87894D02*
Y103642D01*
X115845Y87894D02*
X122932D01*
X115845D02*
Y103642D01*
X150392Y89764D02*
X161416D01*
X150392D02*
Y93701D01*
X161416D01*
Y89764D02*
Y93701D01*
X150392Y82433D02*
Y87945D01*
X161416D01*
Y82433D02*
Y87945D01*
X150392Y82433D02*
X161416D01*
X121652Y44193D02*
X132676D01*
Y49705D01*
X121652D02*
X132676D01*
X121652Y44193D02*
Y49705D01*
X190944Y52362D02*
Y68110D01*
X183857Y52362D02*
X190944D01*
X183857Y68110D02*
X190944D01*
X183857Y52362D02*
Y68110D01*
X19487Y10827D02*
Y16339D01*
X30511D01*
Y10827D02*
Y16339D01*
X19487Y10827D02*
X30511D01*
X19487Y5118D02*
X30511D01*
X19487D02*
Y9055D01*
X30511D01*
Y5118D02*
Y9055D01*
X28148Y123228D02*
X26180D01*
Y124212D01*
X26509Y124540D01*
X27165D01*
X27492Y124212D01*
Y123228D01*
Y123884D02*
X28148Y124540D01*
Y126508D02*
Y125196D01*
X26836Y126508D01*
X26509D01*
X26180Y126180D01*
Y125524D01*
X26509Y125196D01*
X168463Y109894D02*
X170431D01*
Y108910D01*
X170103Y108582D01*
X169447D01*
X169119Y108910D01*
Y109894D01*
Y109238D02*
X168463Y108582D01*
X170431Y106614D02*
Y107926D01*
X169447D01*
X169774Y107270D01*
Y106942D01*
X169447Y106614D01*
X168791D01*
X168463Y106942D01*
Y107598D01*
X168791Y107926D01*
X151967Y118386D02*
Y120353D01*
X152951D01*
X153279Y120026D01*
Y119370D01*
X152951Y119042D01*
X151967D01*
X152623D02*
X153279Y118386D01*
X155247Y120353D02*
X154591Y120026D01*
X153935Y119370D01*
Y118714D01*
X154263Y118386D01*
X154919D01*
X155247Y118714D01*
Y119042D01*
X154919Y119370D01*
X153935D01*
X140223Y109894D02*
X142191D01*
Y108910D01*
X141863Y108582D01*
X141207D01*
X140879Y108910D01*
Y109894D01*
Y109238D02*
X140223Y108582D01*
X141863Y107926D02*
X142191Y107598D01*
Y106942D01*
X141863Y106614D01*
X141535D01*
X141207Y106942D01*
X140879Y106614D01*
X140551D01*
X140223Y106942D01*
Y107598D01*
X140551Y107926D01*
X140879D01*
X141207Y107598D01*
X141535Y107926D01*
X141863D01*
X141207Y107598D02*
Y106942D01*
X40747Y131890D02*
X42715D01*
Y130906D01*
X42387Y130578D01*
X41731D01*
X41403Y130906D01*
Y131890D01*
Y131234D02*
X40747Y130578D01*
Y129922D02*
Y129266D01*
Y129594D01*
X42715D01*
X42387Y129922D01*
X24999Y66929D02*
X26967D01*
Y65945D01*
X26639Y65617D01*
X25983D01*
X25655Y65945D01*
Y66929D01*
Y66273D02*
X24999Y65617D01*
X26639Y64961D02*
X26967Y64633D01*
Y63977D01*
X26639Y63649D01*
X26311D01*
X25983Y63977D01*
Y64305D01*
Y63977D01*
X25655Y63649D01*
X25327D01*
X24999Y63977D01*
Y64633D01*
X25327Y64961D01*
X159841Y93307D02*
Y91339D01*
X158857D01*
X158529Y91667D01*
Y92323D01*
X158857Y92651D01*
X159841D01*
X159185D02*
X158529Y93307D01*
X157873Y91339D02*
X156562D01*
Y91667D01*
X157873Y92979D01*
Y93307D01*
X28936Y8661D02*
Y6694D01*
X27952D01*
X27624Y7022D01*
Y7677D01*
X27952Y8005D01*
X28936D01*
X28280D02*
X27624Y8661D01*
X25984D02*
Y6694D01*
X26968Y7677D01*
X25656D01*
X91731Y131102D02*
X95668D01*
Y120079D02*
Y131102D01*
X91731Y120079D02*
X95668D01*
X91731D02*
Y131102D01*
X75196Y118504D02*
X79133D01*
X75196D02*
Y129528D01*
X79133D01*
Y118504D02*
Y129528D01*
X75589Y112992D02*
X79526D01*
Y101969D02*
Y112992D01*
X75589Y101969D02*
X79526D01*
X75589D02*
Y112992D01*
X95274Y129528D02*
X93306D01*
Y128544D01*
X93634Y128216D01*
X94290D01*
X94618Y128544D01*
Y129528D01*
Y128872D02*
X95274Y128216D01*
Y127560D02*
Y126904D01*
Y127232D01*
X93306D01*
X93634Y127560D01*
X95274Y125920D02*
Y125264D01*
Y125592D01*
X93306D01*
X93634Y125920D01*
X75589Y120079D02*
X77557D01*
Y121063D01*
X77229Y121391D01*
X76573D01*
X76245Y121063D01*
Y120079D01*
Y120735D02*
X75589Y121391D01*
X75917Y122047D02*
X75589Y122375D01*
Y123030D01*
X75917Y123359D01*
X77229D01*
X77557Y123030D01*
Y122375D01*
X77229Y122047D01*
X76901D01*
X76573Y122375D01*
Y123359D01*
X79133Y111417D02*
X77165D01*
Y110433D01*
X77493Y110105D01*
X78149D01*
X78477Y110433D01*
Y111417D01*
Y110761D02*
X79133Y110105D01*
Y109450D02*
Y108793D01*
Y109122D01*
X77165D01*
X77493Y109450D01*
Y107810D02*
X77165Y107482D01*
Y106826D01*
X77493Y106498D01*
X78805D01*
X79133Y106826D01*
Y107482D01*
X78805Y107810D01*
X77493D01*
X210660Y212011D02*
X210690Y211981D01*
X210660Y212011D02*
X216716Y205954D01*
X0Y0D02*
X220478D01*
X216716Y160970D02*
Y205954D01*
Y160970D02*
X226698Y150989D01*
Y6220D02*
Y150989D01*
X220478Y0D02*
X226698Y6220D01*
X-1Y212011D02*
X210660D01*
X-1Y1D02*
Y212011D01*
D14*
X70137Y115655D02*
Y117654D01*
Y116654D01*
X65138D01*
X64139Y117654D01*
Y118654D01*
X65138Y119653D01*
X70137Y109657D02*
Y113655D01*
X67138D01*
X68137Y111656D01*
Y110656D01*
X67138Y109657D01*
X65138D01*
X64139Y110656D01*
Y112656D01*
X65138Y113655D01*
X52147Y202077D02*
X50148D01*
X51147D01*
Y197078D01*
X50148Y196079D01*
X49148D01*
X48148Y197078D01*
X58145Y196079D02*
X54146D01*
X58145Y200077D01*
Y201077D01*
X57146Y202077D01*
X55146D01*
X54146Y201077D01*
X158147Y202077D02*
X156148D01*
X157147D01*
Y197078D01*
X156148Y196079D01*
X155148D01*
X154148Y197078D01*
X163145Y196079D02*
Y202077D01*
X160146Y199078D01*
X164145D01*
X37012Y76679D02*
X38012Y75679D01*
X40011D01*
X41011Y76679D01*
Y77678D01*
X40011Y78678D01*
X38012D01*
X37012Y79678D01*
Y80677D01*
X38012Y81677D01*
X40011D01*
X41011Y80677D01*
X35013Y75679D02*
Y81677D01*
X33013Y79678D01*
X31014Y81677D01*
Y75679D01*
X25016Y81677D02*
X29015D01*
X25016Y77678D01*
Y76679D01*
X26015Y75679D01*
X28015D01*
X29015Y76679D01*
X37012Y140593D02*
X38012Y139593D01*
X40011D01*
X41011Y140593D01*
Y141593D01*
X40011Y142592D01*
X38012D01*
X37012Y143592D01*
Y144592D01*
X38012Y145591D01*
X40011D01*
X41011Y144592D01*
X35013Y139593D02*
Y145591D01*
X33013Y143592D01*
X31014Y145591D01*
Y139593D01*
X29015Y145591D02*
X27015D01*
X28015D01*
Y139593D01*
X29015Y140593D01*
X211239Y67222D02*
Y69222D01*
Y68222D01*
X206240D01*
X205241Y69222D01*
Y70221D01*
X206240Y71221D01*
X211239Y61224D02*
X210239Y63224D01*
X208240Y65223D01*
X206240D01*
X205241Y64223D01*
Y62224D01*
X206240Y61224D01*
X207240D01*
X208240Y62224D01*
Y65223D01*
X211239Y113777D02*
Y115777D01*
Y114777D01*
X206240D01*
X205241Y115777D01*
Y116776D01*
X206240Y117776D01*
X211239Y111778D02*
Y107779D01*
X210239D01*
X206240Y111778D01*
X205241D01*
X175940Y11673D02*
X173941D01*
X174940D01*
Y6674D01*
X173941Y5675D01*
X172941D01*
X171941Y6674D01*
X177939Y10673D02*
X178939Y11673D01*
X180938D01*
X181938Y10673D01*
Y9673D01*
X180938Y8674D01*
X179938D01*
X180938D01*
X181938Y7674D01*
Y6674D01*
X180938Y5675D01*
X178939D01*
X177939Y6674D01*
X88147Y12077D02*
X86148D01*
X87147D01*
Y7078D01*
X86148Y6079D01*
X85148D01*
X84148Y7078D01*
X90146Y6079D02*
X92146D01*
X91146D01*
Y12077D01*
X90146Y11077D01*
D15*
X140867Y44075D02*
X145458D01*
X146377Y44993D01*
Y46830D01*
X145458Y47748D01*
X140867D01*
X146377Y53258D02*
Y49585D01*
X142703Y53258D01*
X141785D01*
X140867Y52340D01*
Y50503D01*
X141785Y49585D01*
X96775Y99696D02*
X101367D01*
X102285Y100615D01*
Y102451D01*
X101367Y103370D01*
X96775D01*
X102285Y105206D02*
Y107043D01*
Y106125D01*
X96775D01*
X97693Y105206D01*
D16*
X84120Y95341D02*
X83661Y94881D01*
Y93963D01*
X84120Y93504D01*
X85957D01*
X86416Y93963D01*
Y94881D01*
X85957Y95341D01*
X86416Y97636D02*
X83661D01*
X85039Y96259D01*
Y98096D01*
X184841Y99213D02*
X187596D01*
Y97835D01*
X187137Y97376D01*
X186219D01*
X185760Y97835D01*
Y99213D01*
Y98294D02*
X184841Y97376D01*
Y96458D02*
Y95539D01*
Y95998D01*
X187596D01*
X187137Y96458D01*
Y94162D02*
X187596Y93703D01*
Y92784D01*
X187137Y92325D01*
X186678D01*
X186219Y92784D01*
Y93243D01*
Y92784D01*
X185760Y92325D01*
X185301D01*
X184841Y92784D01*
Y93703D01*
X185301Y94162D01*
X175689Y101036D02*
X178444D01*
Y102413D01*
X177984Y102872D01*
X176148D01*
X175689Y102413D01*
Y101036D01*
X178444Y105627D02*
Y103791D01*
X176607Y105627D01*
X176148D01*
X175689Y105168D01*
Y104250D01*
X176148Y103791D01*
X160826Y125545D02*
Y128299D01*
X159448D01*
X158989Y127840D01*
Y126004D01*
X159448Y125545D01*
X160826D01*
X158071Y126004D02*
X157611Y125545D01*
X156693D01*
X156234Y126004D01*
Y126463D01*
X156693Y126922D01*
X157152D01*
X156693D01*
X156234Y127381D01*
Y127840D01*
X156693Y128299D01*
X157611D01*
X158071Y127840D01*
X135236Y101036D02*
X137991D01*
Y102413D01*
X137532Y102872D01*
X135695D01*
X135236Y102413D01*
Y101036D01*
Y105627D02*
Y103791D01*
X136613D01*
X136154Y104709D01*
Y105168D01*
X136613Y105627D01*
X137532D01*
X137991Y105168D01*
Y104250D01*
X137532Y103791D01*
X33792Y151444D02*
X34251Y150985D01*
X35170D01*
X35629Y151444D01*
Y153281D01*
X35170Y153740D01*
X34251D01*
X33792Y153281D01*
X32874Y153740D02*
X31955D01*
X32414D01*
Y150985D01*
X32874Y151444D01*
X33594Y66077D02*
X34053Y66536D01*
Y67454D01*
X33594Y67913D01*
X31757D01*
X31298Y67454D01*
Y66536D01*
X31757Y66077D01*
X31298Y63322D02*
Y65158D01*
X33135Y63322D01*
X33594D01*
X34053Y63781D01*
Y64699D01*
X33594Y65158D01*
X112073Y95047D02*
X111614Y94588D01*
Y93670D01*
X112073Y93211D01*
X113910D01*
X114369Y93670D01*
Y94588D01*
X113910Y95047D01*
X111614Y97802D02*
X112073Y96884D01*
X112991Y95966D01*
X113910D01*
X114369Y96425D01*
Y97343D01*
X113910Y97802D01*
X113451D01*
X112991Y97343D01*
Y95966D01*
X119519Y98852D02*
X119978Y99312D01*
Y100230D01*
X119519Y100689D01*
X117682D01*
X117223Y100230D01*
Y99312D01*
X117682Y98852D01*
X119519Y97934D02*
X119978Y97475D01*
Y96556D01*
X119519Y96097D01*
X119060D01*
X118601Y96556D01*
Y97016D01*
Y96556D01*
X118141Y96097D01*
X117682D01*
X117223Y96556D01*
Y97475D01*
X117682Y97934D01*
X150983Y85779D02*
Y83024D01*
X152360D01*
X152820Y83483D01*
Y85320D01*
X152360Y85779D01*
X150983D01*
X155116Y83024D02*
Y85779D01*
X153738Y84401D01*
X155575D01*
X124080Y47079D02*
X123620Y47539D01*
X122702D01*
X122243Y47079D01*
Y45243D01*
X122702Y44783D01*
X123620D01*
X124080Y45243D01*
X126835Y47539D02*
X124998D01*
Y46161D01*
X125916Y46620D01*
X126375D01*
X126835Y46161D01*
Y45243D01*
X126375Y44783D01*
X125457D01*
X124998Y45243D01*
X184841Y65551D02*
X187990D01*
Y63977D01*
X187465Y63452D01*
X186416D01*
X185891Y63977D01*
Y65551D01*
Y64502D02*
X184841Y63452D01*
Y62403D02*
Y61353D01*
Y61878D01*
X187990D01*
X187465Y62403D01*
X184841Y57680D02*
Y59779D01*
X186940Y57680D01*
X187465D01*
X187990Y58205D01*
Y59254D01*
X187465Y59779D01*
X20077Y14172D02*
Y11417D01*
X21455D01*
X21914Y11876D01*
Y13713D01*
X21455Y14172D01*
X20077D01*
X22832Y11417D02*
X23751D01*
X23292D01*
Y14172D01*
X22832Y13713D01*
D44*
X68599Y90205D02*
Y91805D01*
X70199D01*
Y90205D01*
X68599D01*
Y100205D02*
Y101805D01*
X70199D01*
Y100205D01*
X68599D01*
Y110205D02*
Y111805D01*
X70199D01*
Y110205D01*
X68599D01*
Y120205D02*
Y121805D01*
X70199D01*
Y120205D01*
X68599D01*
X47923Y199200D02*
Y200800D01*
X49523D01*
Y199200D01*
X47923D01*
X117923D02*
Y200800D01*
X119523D01*
Y199200D01*
X117923D01*
X107923D02*
Y200800D01*
X109523D01*
Y199200D01*
X107923D01*
X97923D02*
Y200800D01*
X99523D01*
Y199200D01*
X97923D01*
X87923D02*
Y200800D01*
X89523D01*
Y199200D01*
X87923D01*
X77923D02*
Y200800D01*
X79523D01*
Y199200D01*
X77923D01*
X67923D02*
Y200800D01*
X69523D01*
Y199200D01*
X67923D01*
X57923D02*
Y200800D01*
X59523D01*
Y199200D01*
X57923D01*
X37923D02*
Y200800D01*
X39523D01*
Y199200D01*
X37923D01*
X27923D02*
Y200800D01*
X29523D01*
Y199200D01*
X27923D01*
X133923D02*
Y200800D01*
X135523D01*
Y199200D01*
X133923D01*
X143923D02*
Y200800D01*
X145523D01*
Y199200D01*
X143923D01*
X153923D02*
Y200800D01*
X155523D01*
Y199200D01*
X153923D01*
X163923D02*
Y200800D01*
X165523D01*
Y199200D01*
X163923D01*
X173923D02*
Y200800D01*
X175523D01*
Y199200D01*
X173923D01*
X183923D02*
Y200800D01*
X185523D01*
Y199200D01*
X183923D01*
X193923D02*
Y200800D01*
X195523D01*
Y199200D01*
X193923D01*
X203923D02*
Y200800D01*
X205523D01*
Y199200D01*
X203923D01*
Y9200D02*
Y10800D01*
X205523D01*
Y9200D01*
X203923D01*
X193923D02*
Y10800D01*
X195523D01*
Y9200D01*
X193923D01*
X183923D02*
Y10800D01*
X185523D01*
Y9200D01*
X183923D01*
X173923D02*
Y10800D01*
X175523D01*
Y9200D01*
X173923D01*
X163923D02*
Y10800D01*
X165523D01*
Y9200D01*
X163923D01*
X153923D02*
Y10800D01*
X155523D01*
Y9200D01*
X153923D01*
X133923D02*
Y10800D01*
X135523D01*
Y9200D01*
X133923D01*
X123923D02*
Y10800D01*
X125523D01*
Y9200D01*
X123923D01*
X113923D02*
Y10800D01*
X115523D01*
Y9200D01*
X113923D01*
X103923D02*
Y10800D01*
X105523D01*
Y9200D01*
X103923D01*
X93923D02*
Y10800D01*
X95523D01*
Y9200D01*
X93923D01*
X83923D02*
Y10800D01*
X85523D01*
Y9200D01*
X83923D01*
X73923D02*
Y10800D01*
X75523D01*
Y9200D01*
X73923D01*
X63923D02*
Y10800D01*
X65523D01*
Y9200D01*
X63923D01*
X14723Y199200D02*
X15123Y199600D01*
X15523D01*
X15123Y200000D01*
X15523Y200400D01*
X15123D01*
X14723Y200800D01*
X14323Y200400D01*
X13923D01*
X14323Y200000D01*
X13923Y199600D01*
X14323D01*
X14723Y199200D01*
X214723Y29200D02*
X215123Y29600D01*
X215523D01*
X215123Y30000D01*
X215523Y30400D01*
X215123D01*
X214723Y30800D01*
X214323Y30400D01*
X213923D01*
X214323Y30000D01*
X213923Y29600D01*
X214323D01*
X214723Y29200D01*
Y139200D02*
X215123Y139600D01*
X215523D01*
X215123Y140000D01*
X215523Y140400D01*
X215123D01*
X214723Y140800D01*
X214323Y140400D01*
X213923D01*
X214323Y140000D01*
X213923Y139600D01*
X214323D01*
X214723Y139200D01*
X9723Y9200D02*
X10123Y9600D01*
X10523D01*
X10123Y10000D01*
X10523Y10400D01*
X10123D01*
X9723Y10800D01*
X9323Y10400D01*
X8923D01*
X9323Y10000D01*
X8923Y9600D01*
X9323D01*
X9723Y9200D01*
X81384Y99003D02*
X81784Y99803D01*
X81384Y100603D01*
X82184Y100203D01*
X82984Y100603D01*
X82584Y99803D01*
X82984Y99003D01*
X82184Y99403D01*
X81384Y99003D01*
X115340Y99594D02*
X115741Y100394D01*
X115340Y101194D01*
X116140Y100794D01*
X116940Y101194D01*
X116541Y100394D01*
X116940Y99594D01*
X116140Y99994D01*
X115340Y99594D01*
X109435Y101562D02*
X109835Y102362D01*
X109435Y103162D01*
X110235Y102762D01*
X111035Y103162D01*
X110635Y102362D01*
X111035Y101562D01*
X110235Y101962D01*
X109435Y101562D01*
X27152Y169279D02*
X27551Y170079D01*
X27152Y170879D01*
X27951Y170479D01*
X28752Y170879D01*
X28352Y170079D01*
X28752Y169279D01*
X27951Y169679D01*
X27152Y169279D01*
X38963Y172035D02*
X39363Y172835D01*
X38963Y173635D01*
X39763Y173235D01*
X40563Y173635D01*
X40163Y172835D01*
X40563Y172035D01*
X39763Y172435D01*
X38963Y172035D01*
X75970Y129121D02*
X76370Y129921D01*
X75970Y130721D01*
X76770Y130321D01*
X77570Y130721D01*
X77170Y129921D01*
X77570Y129121D01*
X76770Y129521D01*
X75970Y129121D01*
Y133058D02*
X76370Y133858D01*
X75970Y134658D01*
X76770Y134258D01*
X77570Y134658D01*
X77170Y133858D01*
X77570Y133058D01*
X76770Y133458D01*
X75970Y133058D01*
X76364Y104318D02*
X76764Y105118D01*
X76364Y105918D01*
X77164Y105518D01*
X77964Y105918D01*
X77564Y105118D01*
X77964Y104318D01*
X77164Y104718D01*
X76364Y104318D01*
X79907Y127153D02*
X80307Y127953D01*
X79907Y128753D01*
X80707Y128353D01*
X81507Y128753D01*
X81107Y127953D01*
X81507Y127153D01*
X80707Y127553D01*
X79907Y127153D01*
Y133058D02*
X80307Y133858D01*
X79907Y134658D01*
X80707Y134258D01*
X81507Y134658D01*
X81107Y133858D01*
X81507Y133058D01*
X80707Y133458D01*
X79907Y133058D01*
X83612Y105205D02*
X84012Y106005D01*
X83612Y106805D01*
X84412Y106405D01*
X85212Y106805D01*
X84812Y106005D01*
X85212Y105205D01*
X84412Y105605D01*
X83612Y105205D01*
X87782Y117310D02*
X88182Y118110D01*
X87782Y118910D01*
X88582Y118510D01*
X89381Y118910D01*
X88981Y118110D01*
X89381Y117310D01*
X88582Y117710D01*
X87782Y117310D01*
X91719Y130946D02*
X92119Y131746D01*
X91719Y132546D01*
X92519Y132146D01*
X93318Y132546D01*
X92918Y131746D01*
X93318Y130946D01*
X92519Y131346D01*
X91719Y130946D01*
Y136995D02*
X92119Y137795D01*
X91719Y138595D01*
X92519Y138195D01*
X93318Y138595D01*
X92918Y137795D01*
X93318Y136995D01*
X92519Y137395D01*
X91719Y136995D01*
Y143045D02*
X92119Y143845D01*
X91719Y144645D01*
X92519Y144245D01*
X93318Y144645D01*
X92918Y143845D01*
X93318Y143045D01*
X92519Y143445D01*
X91719Y143045D01*
X93700Y115342D02*
X92900Y116942D01*
X94500D01*
X93700Y115342D01*
X103148Y114948D02*
X102348Y116548D01*
X103948D01*
X103148Y114948D01*
X106298Y120066D02*
X105498Y121666D01*
X107098D01*
X106298Y120066D01*
X115340Y103531D02*
X115741Y104331D01*
X115340Y105131D01*
X116140Y104731D01*
X116940Y105131D01*
X116541Y104331D01*
X116940Y103531D01*
X116140Y103931D01*
X115340Y103531D01*
X121246Y101562D02*
X121646Y102362D01*
X121246Y103162D01*
X122046Y102762D01*
X122846Y103162D01*
X122446Y102362D01*
X122846Y101562D01*
X122046Y101962D01*
X121246Y101562D01*
X133857Y44544D02*
X133057Y46144D01*
X134657D01*
X133857Y44544D01*
X129526D02*
X128726Y46144D01*
X130326D01*
X129526Y44544D01*
Y48649D02*
X128726Y50249D01*
X130326D01*
X129526Y48649D01*
X184238Y162586D02*
X184638Y163386D01*
X184238Y164186D01*
X185038Y163786D01*
X185838Y164186D01*
X185438Y163386D01*
X185838Y162586D01*
X185038Y162986D01*
X184238Y162586D01*
X203923D02*
X204323Y163386D01*
X203923Y164186D01*
X204723Y163786D01*
X205523Y164186D01*
X205123Y163386D01*
X205523Y162586D01*
X204723Y162986D01*
X203923Y162586D01*
Y154712D02*
X204323Y155512D01*
X203923Y156312D01*
X204723Y155912D01*
X205523Y156312D01*
X205123Y155512D01*
X205523Y154712D01*
X204723Y155112D01*
X203923Y154712D01*
X184238D02*
X184638Y155512D01*
X184238Y156312D01*
X185038Y155912D01*
X185838Y156312D01*
X185438Y155512D01*
X185838Y154712D01*
X185038Y155112D01*
X184238Y154712D01*
X194081Y150775D02*
X194481Y151575D01*
X194081Y152375D01*
X194881Y151975D01*
X195681Y152375D01*
X195281Y151575D01*
X195681Y150775D01*
X194881Y151175D01*
X194081Y150775D01*
Y158649D02*
X194481Y159449D01*
X194081Y160249D01*
X194881Y159849D01*
X195681Y160249D01*
X195281Y159449D01*
X195681Y158649D01*
X194881Y159049D01*
X194081Y158649D01*
Y166523D02*
X194481Y167323D01*
X194081Y168123D01*
X194881Y167723D01*
X195681Y168123D01*
X195281Y167323D01*
X195681Y166523D01*
X194881Y166923D01*
X194081Y166523D01*
X203923Y170460D02*
X204323Y171260D01*
X203923Y172060D01*
X204723Y171660D01*
X205523Y172060D01*
X205123Y171260D01*
X205523Y170460D01*
X204723Y170860D01*
X203923Y170460D01*
X184238D02*
X184638Y171260D01*
X184238Y172060D01*
X185038Y171660D01*
X185838Y172060D01*
X185438Y171260D01*
X185838Y170460D01*
X185038Y170860D01*
X184238Y170460D01*
Y178334D02*
X184638Y179134D01*
X184238Y179934D01*
X185038Y179534D01*
X185838Y179934D01*
X185438Y179134D01*
X185838Y178334D01*
X185038Y178734D01*
X184238Y178334D01*
X194081Y174397D02*
X194481Y175197D01*
X194081Y175997D01*
X194881Y175597D01*
X195681Y175997D01*
X195281Y175197D01*
X195681Y174397D01*
X194881Y174797D01*
X194081Y174397D01*
X203923Y178334D02*
X204323Y179134D01*
X203923Y179934D01*
X204723Y179534D01*
X205523Y179934D01*
X205123Y179134D01*
X205523Y178334D01*
X204723Y178734D01*
X203923Y178334D01*
X188175Y95657D02*
X188575Y96457D01*
X188175Y97257D01*
X188975Y96857D01*
X189775Y97257D01*
X189375Y96457D01*
X189775Y95657D01*
X188975Y96057D01*
X188175Y95657D01*
Y99594D02*
X188575Y100394D01*
X188175Y101194D01*
X188975Y100794D01*
X189775Y101194D01*
X189375Y100394D01*
X189775Y99594D01*
X188975Y99994D01*
X188175Y99594D01*
X192112Y87783D02*
X192512Y88583D01*
X192112Y89383D01*
X192912Y88983D01*
X193712Y89383D01*
X193312Y88583D01*
X193712Y87783D01*
X192912Y88183D01*
X192112Y87783D01*
Y83846D02*
X192512Y84646D01*
X192112Y85446D01*
X192912Y85046D01*
X193712Y85446D01*
X193312Y84646D01*
X193712Y83846D01*
X192912Y84246D01*
X192112Y83846D01*
X188175Y79909D02*
X188575Y80709D01*
X188175Y81509D01*
X188975Y81109D01*
X189775Y81509D01*
X189375Y80709D01*
X189775Y79909D01*
X188975Y80309D01*
X188175Y79909D01*
Y83846D02*
X188575Y84646D01*
X188175Y85446D01*
X188975Y85046D01*
X189775Y85446D01*
X189375Y84646D01*
X189775Y83846D01*
X188975Y84246D01*
X188175Y83846D01*
Y87783D02*
X188575Y88583D01*
X188175Y89383D01*
X188975Y88983D01*
X189775Y89383D01*
X189375Y88583D01*
X189775Y87783D01*
X188975Y88183D01*
X188175Y87783D01*
X184238D02*
X184638Y88583D01*
X184238Y89383D01*
X185038Y88983D01*
X185838Y89383D01*
X185438Y88583D01*
X185838Y87783D01*
X185038Y88183D01*
X184238Y87783D01*
Y83846D02*
X184638Y84646D01*
X184238Y85446D01*
X185038Y85046D01*
X185838Y85446D01*
X185438Y84646D01*
X185838Y83846D01*
X185038Y84246D01*
X184238Y83846D01*
Y79909D02*
X184638Y80709D01*
X184238Y81509D01*
X185038Y81109D01*
X185838Y81509D01*
X185438Y80709D01*
X185838Y79909D01*
X185038Y80309D01*
X184238Y79909D01*
Y75972D02*
X184638Y76772D01*
X184238Y77572D01*
X185038Y77172D01*
X185838Y77572D01*
X185438Y76772D01*
X185838Y75972D01*
X185038Y76372D01*
X184238Y75972D01*
X180301D02*
X180701Y76772D01*
X180301Y77572D01*
X181101Y77172D01*
X181901Y77572D01*
X181501Y76772D01*
X181901Y75972D01*
X181101Y76372D01*
X180301Y75972D01*
Y79909D02*
X180701Y80709D01*
X180301Y81509D01*
X181101Y81109D01*
X181901Y81509D01*
X181501Y80709D01*
X181901Y79909D01*
X181101Y80309D01*
X180301Y79909D01*
Y83846D02*
X180701Y84646D01*
X180301Y85446D01*
X181101Y85046D01*
X181901Y85446D01*
X181501Y84646D01*
X181901Y83846D01*
X181101Y84246D01*
X180301Y83846D01*
X188175Y103531D02*
X188575Y104331D01*
X188175Y105131D01*
X188975Y104731D01*
X189775Y105131D01*
X189375Y104331D01*
X189775Y103531D01*
X188975Y103931D01*
X188175Y103531D01*
X194081D02*
X194481Y104331D01*
X194081Y105131D01*
X194881Y104731D01*
X195681Y105131D01*
X195281Y104331D01*
X195681Y103531D01*
X194881Y103931D01*
X194081Y103531D01*
Y109436D02*
X194481Y110236D01*
X194081Y111036D01*
X194881Y110636D01*
X195681Y111036D01*
X195281Y110236D01*
X195681Y109436D01*
X194881Y109836D01*
X194081Y109436D01*
X188175D02*
X188575Y110236D01*
X188175Y111036D01*
X188975Y110636D01*
X189775Y111036D01*
X189375Y110236D01*
X189775Y109436D01*
X188975Y109836D01*
X188175Y109436D01*
Y115342D02*
X188575Y116142D01*
X188175Y116942D01*
X188975Y116542D01*
X189775Y116942D01*
X189375Y116142D01*
X189775Y115342D01*
X188975Y115742D01*
X188175Y115342D01*
X194081D02*
X194481Y116142D01*
X194081Y116942D01*
X194881Y116542D01*
X195681Y116942D01*
X195281Y116142D01*
X195681Y115342D01*
X194881Y115742D01*
X194081Y115342D01*
Y121247D02*
X194481Y122047D01*
X194081Y122847D01*
X194881Y122447D01*
X195681Y122847D01*
X195281Y122047D01*
X195681Y121247D01*
X194881Y121647D01*
X194081Y121247D01*
X188175D02*
X188575Y122047D01*
X188175Y122847D01*
X188975Y122447D01*
X189775Y122847D01*
X189375Y122047D01*
X189775Y121247D01*
X188975Y121647D01*
X188175Y121247D01*
D45*
X208968Y71949D02*
G03*
X208968Y71949I-800J0D01*
G01*
Y52264D02*
G03*
X208968Y52264I-800J0D01*
G01*
Y118504D02*
G03*
X208968Y118504I-800J0D01*
G01*
Y98819D02*
G03*
X208968Y98819I-800J0D01*
G01*
M02*
