M48
;Layer_Color=9474304
;FILE_FORMAT=2:5
INCH,LZ
;TYPE=PLATED
T1F00S00C0.01000
T2F00S00C0.01181
T3F00S00C0.04134
T4F00S00C0.05512
T5F00S00C0.12992
%
T01
X0129526Y0045344
Y004945
X0133857Y0045344
X0103148Y0115748
X0106298Y0120866
X00937Y0116142
T02
X0181101Y0076772
X0185038
Y0080709
X0188975
Y0084646
X0192912
Y0088583
X0188975
X0185038
Y0084646
X0181101
Y0080709
X0188975Y0096457
Y0100394
Y0104331
X0194881
Y0110236
X0188975
Y0116142
X0194881
Y0122047
X0188975
X0194881Y0151575
Y0159449
Y0167323
Y0175197
X0204723Y017126
Y0163386
Y0155512
X0185038
Y0163386
Y017126
Y0179134
X0204723
X0092519Y0143845
Y0137795
Y0131746
X0080707Y0133858
X007677
Y0129921
X0080707Y0127953
X0088582Y011811
X0084412Y0106005
X0077164Y0105118
X0082184Y0099803
X0110235Y0102362
X011614Y0100394
Y0104331
X0122046Y0102362
X0039763Y0172835
X0027951Y0170079
T03
X0064723Y001
X0074723
X0084723
X0094723
X0104723
X0114723
X0124723
X0134723
X0154723
X0164723
X0174723
X0184723
X0194723
X0204723
Y02
X0194723
X0184723
X0174723
X0164723
X0154723
X0144723
X0134723
X0118723
X0108723
X0098723
X0088723
X0078723
X0068723
X0058723
X0048723
X0038723
X0028723
X0069399Y0121005
Y0111005
Y0101005
Y0091005
T04
X0208168Y0052264
Y0071949
Y0098819
Y0118504
T05
X0009723Y001
X0214723Y003
Y014
X0014723Y02
M30
