M48
;Layer_Color=9474304
;FILE_FORMAT=2:4
METRIC,LZ
;TYPE=PLATED
T1F00S00C0.2540
T2F00S00C0.3000
T3F00S00C1.0500
T4F00S00C1.4000
T5F00S00C3.3000
%
T01
X333Y119173
Y129602
X344Y119173
X933
Y129602
X944Y119173
X1533
Y129602
X1544Y119173
X1466Y298
X1474Y311
X1442Y299
X866Y298
X874Y311
X842Y299
X266Y298
X274Y311
X242Y299
X333Y669173
Y679602
X344Y669173
X266Y848
X274Y861
X242Y849
X842
X866Y848
X874Y861
X933Y679602
Y669173
X944
X1533
Y679602
X1544Y669173
X1466Y848
X1474Y861
X1442Y849
T02
X141275Y2575
X1418409Y273254
X14Y271
X1429Y304
X1439Y338635
Y354
Y369365
X1409Y344
X1399
Y334
X1409Y329
X1484Y264
X1499Y259
Y269
X1514Y264
X1684Y259
Y249
Y229
X1694
Y219
X1684
Y209
X1674
Y219
Y229
X1664Y219
Y209
Y199
X1674
X1684Y269
X1699
Y284
X1684
Y299
X1699
Y314
X1684
X1699Y389
Y409
Y429
Y449
X1724Y439
Y419
Y399
X1674
Y419
Y439
Y459
X1724
X1305Y443
X1275Y436
X1124Y439
Y419
Y399
X1099Y389
Y409
Y429
Y449
X1074Y439
Y419
Y399
Y459
X1124
X1099Y314
Y299
Y284
Y269
X1084
Y259
Y249
Y229
X1094
Y219
X1084
Y209
X1074
Y219
Y229
X1064Y219
Y209
Y199
X1074
X1084Y284
Y299
Y314
X914Y264
X899Y259
Y269
X884Y264
X818409Y273254
X8Y271
X81275Y2575
X829Y304
X839Y338635
Y354
Y369365
X809Y344
X799
Y334
X809Y329
X705Y443
X675Y436
X524Y439
Y419
Y399
X499Y389
Y409
Y429
Y449
X474Y439
Y419
Y399
Y459
X524
X499Y314
Y299
Y284
Y269
X484
Y259
Y249
Y229
X494
Y219
X484
Y209
X474
Y219
Y229
X464Y219
Y209
Y199
X474
X484Y284
Y299
Y314
X314Y264
X299Y259
Y269
X284Y264
X218409Y273254
X2Y271
X21275Y2575
X229Y304
X239Y338635
Y354
Y369365
X209Y344
X199
Y334
X209Y329
X105Y443
X075Y436
X21275Y8075
X218409Y823254
X2Y821
X229Y854
X239Y888635
Y904
Y919365
X209Y894
X199
Y884
X209Y879
X284Y814
X299Y809
Y819
X314Y814
X484Y809
Y799
Y779
X494
Y769
X484
Y759
X474
Y769
Y779
X464Y769
Y759
Y749
X474
X484Y819
X499
Y834
X484
Y849
X499
Y864
X484
X499Y939
X799Y894
Y884
X809Y879
Y894
X839Y888635
Y904
Y919365
X829Y854
X818409Y823254
X8Y821
X81275Y8075
X884Y814
X899Y809
Y819
X914Y814
X1084Y809
Y799
Y779
X1094
Y769
X1084
Y759
X1074
Y769
Y779
X1064Y769
Y759
Y749
X1074
X1084Y819
X1099
Y834
X1084
Y849
X1099
Y864
X1084
X1099Y939
X1399Y894
Y884
X1409Y879
Y894
X1439Y888635
Y904
Y919365
X1429Y854
X1418409Y823254
X14Y821
X141275Y8075
X1484Y814
X1499Y809
Y819
X1514Y814
X1684Y809
Y799
Y779
X1694
Y769
X1684
Y759
X1674
Y769
Y779
X1664Y769
Y759
Y749
X1674
X1684Y819
X1699
Y834
X1684
Y849
X1699
Y864
X1684
X1699Y939
Y959
Y979
Y999
X1724Y989
Y969
Y949
X1674
Y969
Y989
Y1009
X1724
X1305Y993
X1275Y986
X1124Y989
Y969
Y949
X1099Y959
Y979
Y999
X1074Y989
Y969
Y949
Y1009
X1124
X705Y993
X675Y986
X524Y989
Y969
Y949
X499Y959
Y979
Y999
X474Y989
Y969
Y949
Y1009
X524
X105Y993
X075Y986
T03
X1684Y0294
X1938
X2192
X2446
X27
X2954
X3208
X3462
X397
X4224
X4478
X4732
X4986
X524
X7684
X7938
X8192
X8446
X87
X8954
X9208
X9462
X997
X10224
X10478
X10732
X10986
X1124
X13684
X13938
X14192
X14446
X147
X14954
X15208
X15462
X1597
X16224
X16478
X16732
X16986
X1724
Y512
X16986
X16732
X16478
X16224
X1597
X15716
X15462
X150556
X148016
X145476
X142936
X140396
X137856
X135316
X1380277Y311354
Y285954
Y260554
Y235154
X132776Y512
X130236
X127696
X1124
X10986
X10732
X10478
X10224
X997
X9716
X9462
X90556
X88016
X85476
X82936
X80396
X77856
X75316
X72776
X70236
X67696
X780277Y311354
Y285954
Y260554
Y235154
X524Y512
X4986
X4732
X4478
X4224
X397
X3716
X3462
X30556
X28016
X25476
X22936
X20396
X17856
X15316
X180277Y311354
Y285954
Y260554
Y235154
X12776Y512
X10236
X07696
X1684Y5794
X1938
X2192
X2446
X27
X2954
X3208
X3462
X397
X4224
X4478
X4732
X4986
X524
X180277Y785154
Y810554
Y835954
Y861354
X780277
Y835954
Y810554
Y785154
X7684Y5794
X7938
X8192
X8446
X87
X8954
X9208
X9462
X997
X10224
X10478
X10732
X10986
X1124
X13684
X13938
X14192
X14446
X147
X14954
X15208
X15462
X1597
X16224
X16478
X16732
X16986
X1724
X1380277Y785154
Y810554
Y835954
Y861354
X137856Y1062
X140396
X142936
X145476
X148016
X150556
X15462
X15716
X1597
X16224
X16478
X16732
X16986
X1724
X135316
X132776
X130236
X127696
X1124
X10986
X10732
X10478
X10224
X997
X9716
X9462
X90556
X88016
X85476
X82936
X80396
X77856
X75316
X72776
X70236
X67696
X524
X4986
X4732
X4478
X4224
X397
X3716
X3462
X30556
X28016
X25476
X22936
X20396
X17856
X15316
X12776
X10236
X07696
T04
X53275Y13675
X113275
X173275
Y18675
Y255
Y305
X113275
Y255
Y18675
X53275
Y255
Y305
Y68675
Y73675
Y805
Y855
X113275
Y805
Y73675
Y68675
X173275
Y73675
Y805
Y855
T05
X0287Y0294
X5494Y0802
X6287Y0294
X11494Y0802
X12287Y0294
X17494Y0802
Y3596
X11494
X12414Y512
X6414
X5494Y3596
X0414Y512
X0287Y5794
X5494Y6302
X6287Y5794
X5494Y9096
X11494
Y6302
X12287Y5794
X17494Y6302
Y9096
X12414Y1062
X6414
X0414
M30
